<mxfile host="app.diagrams.net" modified="2021-12-16T08:18:19.632Z" agent="5.0 (Macintosh; Intel Mac OS X 10_15_7) AppleWebKit/537.36 (KHTML, like Gecko) Chrome/95.0.4638.54 Safari/537.36" etag="grhzphulek31Ls8v0GlF" version="15.6.8" type="github" pages="4">
  <diagram id="z73ZjGzSqJIKeF63MA-Z" name="Page-1">
    <mxGraphModel dx="2054" dy="755" grid="1" gridSize="10" guides="1" tooltips="1" connect="1" arrows="1" fold="1" page="1" pageScale="1" pageWidth="827" pageHeight="1169" math="0" shadow="0">
      <root>
        <mxCell id="0" />
        <mxCell id="1" parent="0" />
        <mxCell id="3Y9HXY3XmJLdRXZQ-D7i-44" value="" style="rounded=0;whiteSpace=wrap;html=1;fillColor=#d5e8d4;strokeColor=#82b366;" vertex="1" parent="1">
          <mxGeometry x="-40" y="750" width="600" height="100" as="geometry" />
        </mxCell>
        <mxCell id="3Y9HXY3XmJLdRXZQ-D7i-28" value="" style="rounded=0;whiteSpace=wrap;html=1;fillColor=#f8cecc;strokeColor=#b85450;" vertex="1" parent="1">
          <mxGeometry x="-40" y="590" width="600" height="100" as="geometry" />
        </mxCell>
        <mxCell id="3Y9HXY3XmJLdRXZQ-D7i-11" value="" style="rounded=0;whiteSpace=wrap;html=1;fillColor=#e1d5e7;strokeColor=#9673a6;" vertex="1" parent="1">
          <mxGeometry x="-40" y="430" width="600" height="100" as="geometry" />
        </mxCell>
        <mxCell id="3Y9HXY3XmJLdRXZQ-D7i-1" value="" style="rounded=0;whiteSpace=wrap;html=1;fillColor=#dae8fc;strokeColor=#6c8ebf;" vertex="1" parent="1">
          <mxGeometry x="-40" y="270" width="600" height="100" as="geometry" />
        </mxCell>
        <mxCell id="3Y9HXY3XmJLdRXZQ-D7i-4" value="" style="edgeStyle=orthogonalEdgeStyle;rounded=0;orthogonalLoop=1;jettySize=auto;html=1;" edge="1" parent="1" source="3Y9HXY3XmJLdRXZQ-D7i-2" target="3Y9HXY3XmJLdRXZQ-D7i-3">
          <mxGeometry relative="1" as="geometry" />
        </mxCell>
        <mxCell id="3Y9HXY3XmJLdRXZQ-D7i-23" style="edgeStyle=orthogonalEdgeStyle;rounded=0;orthogonalLoop=1;jettySize=auto;html=1;entryX=0.5;entryY=0;entryDx=0;entryDy=0;fontSize=20;" edge="1" parent="1" source="3Y9HXY3XmJLdRXZQ-D7i-2" target="3Y9HXY3XmJLdRXZQ-D7i-13">
          <mxGeometry relative="1" as="geometry" />
        </mxCell>
        <mxCell id="3Y9HXY3XmJLdRXZQ-D7i-2" value="" style="ellipse;whiteSpace=wrap;html=1;aspect=fixed;" vertex="1" parent="1">
          <mxGeometry y="300" width="40" height="40" as="geometry" />
        </mxCell>
        <mxCell id="3Y9HXY3XmJLdRXZQ-D7i-6" value="" style="edgeStyle=orthogonalEdgeStyle;rounded=0;orthogonalLoop=1;jettySize=auto;html=1;" edge="1" parent="1" source="3Y9HXY3XmJLdRXZQ-D7i-3" target="3Y9HXY3XmJLdRXZQ-D7i-5">
          <mxGeometry relative="1" as="geometry" />
        </mxCell>
        <mxCell id="3Y9HXY3XmJLdRXZQ-D7i-24" style="edgeStyle=orthogonalEdgeStyle;rounded=0;orthogonalLoop=1;jettySize=auto;html=1;fontSize=20;" edge="1" parent="1" source="3Y9HXY3XmJLdRXZQ-D7i-3" target="3Y9HXY3XmJLdRXZQ-D7i-15">
          <mxGeometry relative="1" as="geometry" />
        </mxCell>
        <mxCell id="3Y9HXY3XmJLdRXZQ-D7i-3" value="" style="ellipse;whiteSpace=wrap;html=1;aspect=fixed;" vertex="1" parent="1">
          <mxGeometry x="120" y="300" width="40" height="40" as="geometry" />
        </mxCell>
        <mxCell id="3Y9HXY3XmJLdRXZQ-D7i-8" value="" style="edgeStyle=orthogonalEdgeStyle;rounded=0;orthogonalLoop=1;jettySize=auto;html=1;" edge="1" parent="1" source="3Y9HXY3XmJLdRXZQ-D7i-5" target="3Y9HXY3XmJLdRXZQ-D7i-7">
          <mxGeometry relative="1" as="geometry" />
        </mxCell>
        <mxCell id="3Y9HXY3XmJLdRXZQ-D7i-25" style="edgeStyle=orthogonalEdgeStyle;rounded=0;orthogonalLoop=1;jettySize=auto;html=1;entryX=0.5;entryY=0;entryDx=0;entryDy=0;fontSize=20;" edge="1" parent="1" source="3Y9HXY3XmJLdRXZQ-D7i-5" target="3Y9HXY3XmJLdRXZQ-D7i-17">
          <mxGeometry relative="1" as="geometry" />
        </mxCell>
        <mxCell id="3Y9HXY3XmJLdRXZQ-D7i-5" value="" style="ellipse;whiteSpace=wrap;html=1;aspect=fixed;" vertex="1" parent="1">
          <mxGeometry x="240" y="300" width="40" height="40" as="geometry" />
        </mxCell>
        <mxCell id="3Y9HXY3XmJLdRXZQ-D7i-10" value="" style="edgeStyle=orthogonalEdgeStyle;rounded=0;orthogonalLoop=1;jettySize=auto;html=1;" edge="1" parent="1" source="3Y9HXY3XmJLdRXZQ-D7i-7" target="3Y9HXY3XmJLdRXZQ-D7i-9">
          <mxGeometry relative="1" as="geometry" />
        </mxCell>
        <mxCell id="3Y9HXY3XmJLdRXZQ-D7i-26" style="edgeStyle=orthogonalEdgeStyle;rounded=0;orthogonalLoop=1;jettySize=auto;html=1;fontSize=20;" edge="1" parent="1" source="3Y9HXY3XmJLdRXZQ-D7i-7" target="3Y9HXY3XmJLdRXZQ-D7i-19">
          <mxGeometry relative="1" as="geometry" />
        </mxCell>
        <mxCell id="3Y9HXY3XmJLdRXZQ-D7i-7" value="" style="ellipse;whiteSpace=wrap;html=1;aspect=fixed;" vertex="1" parent="1">
          <mxGeometry x="360" y="300" width="40" height="40" as="geometry" />
        </mxCell>
        <mxCell id="3Y9HXY3XmJLdRXZQ-D7i-27" style="edgeStyle=orthogonalEdgeStyle;rounded=0;orthogonalLoop=1;jettySize=auto;html=1;fontSize=20;" edge="1" parent="1" source="3Y9HXY3XmJLdRXZQ-D7i-9" target="3Y9HXY3XmJLdRXZQ-D7i-20">
          <mxGeometry relative="1" as="geometry" />
        </mxCell>
        <mxCell id="3Y9HXY3XmJLdRXZQ-D7i-9" value="" style="ellipse;whiteSpace=wrap;html=1;aspect=fixed;" vertex="1" parent="1">
          <mxGeometry x="480" y="300" width="40" height="40" as="geometry" />
        </mxCell>
        <mxCell id="3Y9HXY3XmJLdRXZQ-D7i-12" value="" style="edgeStyle=orthogonalEdgeStyle;rounded=0;orthogonalLoop=1;jettySize=auto;html=1;" edge="1" parent="1" source="3Y9HXY3XmJLdRXZQ-D7i-13" target="3Y9HXY3XmJLdRXZQ-D7i-15">
          <mxGeometry relative="1" as="geometry" />
        </mxCell>
        <mxCell id="3Y9HXY3XmJLdRXZQ-D7i-39" style="edgeStyle=orthogonalEdgeStyle;rounded=0;orthogonalLoop=1;jettySize=auto;html=1;entryX=0.5;entryY=0;entryDx=0;entryDy=0;fontSize=20;" edge="1" parent="1" source="3Y9HXY3XmJLdRXZQ-D7i-13" target="3Y9HXY3XmJLdRXZQ-D7i-30">
          <mxGeometry relative="1" as="geometry" />
        </mxCell>
        <mxCell id="3Y9HXY3XmJLdRXZQ-D7i-13" value="" style="ellipse;whiteSpace=wrap;html=1;aspect=fixed;" vertex="1" parent="1">
          <mxGeometry y="460" width="40" height="40" as="geometry" />
        </mxCell>
        <mxCell id="3Y9HXY3XmJLdRXZQ-D7i-14" value="" style="edgeStyle=orthogonalEdgeStyle;rounded=0;orthogonalLoop=1;jettySize=auto;html=1;" edge="1" parent="1" source="3Y9HXY3XmJLdRXZQ-D7i-15" target="3Y9HXY3XmJLdRXZQ-D7i-17">
          <mxGeometry relative="1" as="geometry" />
        </mxCell>
        <mxCell id="3Y9HXY3XmJLdRXZQ-D7i-40" style="edgeStyle=orthogonalEdgeStyle;rounded=0;orthogonalLoop=1;jettySize=auto;html=1;entryX=0.5;entryY=0;entryDx=0;entryDy=0;fontSize=20;" edge="1" parent="1" source="3Y9HXY3XmJLdRXZQ-D7i-15" target="3Y9HXY3XmJLdRXZQ-D7i-32">
          <mxGeometry relative="1" as="geometry" />
        </mxCell>
        <mxCell id="3Y9HXY3XmJLdRXZQ-D7i-15" value="" style="ellipse;whiteSpace=wrap;html=1;aspect=fixed;" vertex="1" parent="1">
          <mxGeometry x="120" y="460" width="40" height="40" as="geometry" />
        </mxCell>
        <mxCell id="3Y9HXY3XmJLdRXZQ-D7i-16" value="" style="edgeStyle=orthogonalEdgeStyle;rounded=0;orthogonalLoop=1;jettySize=auto;html=1;" edge="1" parent="1" source="3Y9HXY3XmJLdRXZQ-D7i-17" target="3Y9HXY3XmJLdRXZQ-D7i-19">
          <mxGeometry relative="1" as="geometry" />
        </mxCell>
        <mxCell id="3Y9HXY3XmJLdRXZQ-D7i-41" style="edgeStyle=orthogonalEdgeStyle;rounded=0;orthogonalLoop=1;jettySize=auto;html=1;fontSize=20;" edge="1" parent="1" source="3Y9HXY3XmJLdRXZQ-D7i-17" target="3Y9HXY3XmJLdRXZQ-D7i-34">
          <mxGeometry relative="1" as="geometry" />
        </mxCell>
        <mxCell id="3Y9HXY3XmJLdRXZQ-D7i-17" value="" style="ellipse;whiteSpace=wrap;html=1;aspect=fixed;" vertex="1" parent="1">
          <mxGeometry x="240" y="460" width="40" height="40" as="geometry" />
        </mxCell>
        <mxCell id="3Y9HXY3XmJLdRXZQ-D7i-18" value="" style="edgeStyle=orthogonalEdgeStyle;rounded=0;orthogonalLoop=1;jettySize=auto;html=1;" edge="1" parent="1" source="3Y9HXY3XmJLdRXZQ-D7i-19" target="3Y9HXY3XmJLdRXZQ-D7i-20">
          <mxGeometry relative="1" as="geometry" />
        </mxCell>
        <mxCell id="3Y9HXY3XmJLdRXZQ-D7i-42" style="edgeStyle=orthogonalEdgeStyle;rounded=0;orthogonalLoop=1;jettySize=auto;html=1;fontSize=20;" edge="1" parent="1" source="3Y9HXY3XmJLdRXZQ-D7i-19" target="3Y9HXY3XmJLdRXZQ-D7i-36">
          <mxGeometry relative="1" as="geometry" />
        </mxCell>
        <mxCell id="3Y9HXY3XmJLdRXZQ-D7i-19" value="" style="ellipse;whiteSpace=wrap;html=1;aspect=fixed;" vertex="1" parent="1">
          <mxGeometry x="360" y="460" width="40" height="40" as="geometry" />
        </mxCell>
        <mxCell id="3Y9HXY3XmJLdRXZQ-D7i-43" style="edgeStyle=orthogonalEdgeStyle;rounded=0;orthogonalLoop=1;jettySize=auto;html=1;fontSize=20;" edge="1" parent="1" source="3Y9HXY3XmJLdRXZQ-D7i-20" target="3Y9HXY3XmJLdRXZQ-D7i-37">
          <mxGeometry relative="1" as="geometry" />
        </mxCell>
        <mxCell id="3Y9HXY3XmJLdRXZQ-D7i-20" value="" style="ellipse;whiteSpace=wrap;html=1;aspect=fixed;" vertex="1" parent="1">
          <mxGeometry x="480" y="460" width="40" height="40" as="geometry" />
        </mxCell>
        <mxCell id="3Y9HXY3XmJLdRXZQ-D7i-21" value="&lt;font style=&quot;font-size: 20px&quot;&gt;MAS&lt;br&gt;Web 开发&lt;br&gt;&lt;/font&gt;" style="text;html=1;align=center;verticalAlign=middle;resizable=0;points=[];autosize=1;strokeColor=none;fillColor=none;" vertex="1" parent="1">
          <mxGeometry x="-150" y="300" width="100" height="40" as="geometry" />
        </mxCell>
        <mxCell id="3Y9HXY3XmJLdRXZQ-D7i-22" value="&lt;font style=&quot;font-size: 20px&quot;&gt;Workflow&lt;br&gt;开发&lt;br&gt;&lt;/font&gt;" style="text;html=1;align=center;verticalAlign=middle;resizable=0;points=[];autosize=1;strokeColor=none;fillColor=none;" vertex="1" parent="1">
          <mxGeometry x="-150" y="460" width="100" height="40" as="geometry" />
        </mxCell>
        <mxCell id="3Y9HXY3XmJLdRXZQ-D7i-29" value="" style="edgeStyle=orthogonalEdgeStyle;rounded=0;orthogonalLoop=1;jettySize=auto;html=1;" edge="1" parent="1" source="3Y9HXY3XmJLdRXZQ-D7i-30" target="3Y9HXY3XmJLdRXZQ-D7i-32">
          <mxGeometry relative="1" as="geometry" />
        </mxCell>
        <mxCell id="3Y9HXY3XmJLdRXZQ-D7i-55" style="edgeStyle=orthogonalEdgeStyle;rounded=0;orthogonalLoop=1;jettySize=auto;html=1;entryX=0.5;entryY=0;entryDx=0;entryDy=0;fontSize=20;" edge="1" parent="1" source="3Y9HXY3XmJLdRXZQ-D7i-30" target="3Y9HXY3XmJLdRXZQ-D7i-46">
          <mxGeometry relative="1" as="geometry" />
        </mxCell>
        <mxCell id="3Y9HXY3XmJLdRXZQ-D7i-30" value="" style="ellipse;whiteSpace=wrap;html=1;aspect=fixed;" vertex="1" parent="1">
          <mxGeometry y="620" width="40" height="40" as="geometry" />
        </mxCell>
        <mxCell id="3Y9HXY3XmJLdRXZQ-D7i-31" value="" style="edgeStyle=orthogonalEdgeStyle;rounded=0;orthogonalLoop=1;jettySize=auto;html=1;" edge="1" parent="1" source="3Y9HXY3XmJLdRXZQ-D7i-32" target="3Y9HXY3XmJLdRXZQ-D7i-34">
          <mxGeometry relative="1" as="geometry" />
        </mxCell>
        <mxCell id="3Y9HXY3XmJLdRXZQ-D7i-56" style="edgeStyle=orthogonalEdgeStyle;rounded=0;orthogonalLoop=1;jettySize=auto;html=1;fontSize=20;" edge="1" parent="1" source="3Y9HXY3XmJLdRXZQ-D7i-32" target="3Y9HXY3XmJLdRXZQ-D7i-48">
          <mxGeometry relative="1" as="geometry" />
        </mxCell>
        <mxCell id="3Y9HXY3XmJLdRXZQ-D7i-32" value="" style="ellipse;whiteSpace=wrap;html=1;aspect=fixed;" vertex="1" parent="1">
          <mxGeometry x="120" y="620" width="40" height="40" as="geometry" />
        </mxCell>
        <mxCell id="3Y9HXY3XmJLdRXZQ-D7i-33" value="" style="edgeStyle=orthogonalEdgeStyle;rounded=0;orthogonalLoop=1;jettySize=auto;html=1;" edge="1" parent="1" source="3Y9HXY3XmJLdRXZQ-D7i-34" target="3Y9HXY3XmJLdRXZQ-D7i-36">
          <mxGeometry relative="1" as="geometry" />
        </mxCell>
        <mxCell id="3Y9HXY3XmJLdRXZQ-D7i-57" style="edgeStyle=orthogonalEdgeStyle;rounded=0;orthogonalLoop=1;jettySize=auto;html=1;fontSize=20;" edge="1" parent="1" source="3Y9HXY3XmJLdRXZQ-D7i-34" target="3Y9HXY3XmJLdRXZQ-D7i-50">
          <mxGeometry relative="1" as="geometry" />
        </mxCell>
        <mxCell id="3Y9HXY3XmJLdRXZQ-D7i-34" value="" style="ellipse;whiteSpace=wrap;html=1;aspect=fixed;" vertex="1" parent="1">
          <mxGeometry x="240" y="620" width="40" height="40" as="geometry" />
        </mxCell>
        <mxCell id="3Y9HXY3XmJLdRXZQ-D7i-35" value="" style="edgeStyle=orthogonalEdgeStyle;rounded=0;orthogonalLoop=1;jettySize=auto;html=1;" edge="1" parent="1" source="3Y9HXY3XmJLdRXZQ-D7i-36" target="3Y9HXY3XmJLdRXZQ-D7i-37">
          <mxGeometry relative="1" as="geometry" />
        </mxCell>
        <mxCell id="3Y9HXY3XmJLdRXZQ-D7i-58" style="edgeStyle=orthogonalEdgeStyle;rounded=0;orthogonalLoop=1;jettySize=auto;html=1;fontSize=20;" edge="1" parent="1" source="3Y9HXY3XmJLdRXZQ-D7i-36" target="3Y9HXY3XmJLdRXZQ-D7i-52">
          <mxGeometry relative="1" as="geometry" />
        </mxCell>
        <mxCell id="3Y9HXY3XmJLdRXZQ-D7i-36" value="" style="ellipse;whiteSpace=wrap;html=1;aspect=fixed;" vertex="1" parent="1">
          <mxGeometry x="360" y="620" width="40" height="40" as="geometry" />
        </mxCell>
        <mxCell id="3Y9HXY3XmJLdRXZQ-D7i-59" style="edgeStyle=orthogonalEdgeStyle;rounded=0;orthogonalLoop=1;jettySize=auto;html=1;fontSize=20;" edge="1" parent="1" source="3Y9HXY3XmJLdRXZQ-D7i-37" target="3Y9HXY3XmJLdRXZQ-D7i-53">
          <mxGeometry relative="1" as="geometry" />
        </mxCell>
        <mxCell id="3Y9HXY3XmJLdRXZQ-D7i-37" value="" style="ellipse;whiteSpace=wrap;html=1;aspect=fixed;" vertex="1" parent="1">
          <mxGeometry x="480" y="620" width="40" height="40" as="geometry" />
        </mxCell>
        <mxCell id="3Y9HXY3XmJLdRXZQ-D7i-38" value="&lt;span style=&quot;font-size: 20px&quot;&gt;Job&lt;br&gt;&lt;/span&gt;" style="text;html=1;align=center;verticalAlign=middle;resizable=0;points=[];autosize=1;strokeColor=none;fillColor=none;" vertex="1" parent="1">
          <mxGeometry x="-140" y="630" width="50" height="20" as="geometry" />
        </mxCell>
        <mxCell id="3Y9HXY3XmJLdRXZQ-D7i-45" value="" style="edgeStyle=orthogonalEdgeStyle;rounded=0;orthogonalLoop=1;jettySize=auto;html=1;" edge="1" parent="1" source="3Y9HXY3XmJLdRXZQ-D7i-46" target="3Y9HXY3XmJLdRXZQ-D7i-48">
          <mxGeometry relative="1" as="geometry" />
        </mxCell>
        <mxCell id="3Y9HXY3XmJLdRXZQ-D7i-46" value="" style="ellipse;whiteSpace=wrap;html=1;aspect=fixed;" vertex="1" parent="1">
          <mxGeometry y="780" width="40" height="40" as="geometry" />
        </mxCell>
        <mxCell id="3Y9HXY3XmJLdRXZQ-D7i-47" value="" style="edgeStyle=orthogonalEdgeStyle;rounded=0;orthogonalLoop=1;jettySize=auto;html=1;" edge="1" parent="1" source="3Y9HXY3XmJLdRXZQ-D7i-48" target="3Y9HXY3XmJLdRXZQ-D7i-50">
          <mxGeometry relative="1" as="geometry" />
        </mxCell>
        <mxCell id="3Y9HXY3XmJLdRXZQ-D7i-48" value="" style="ellipse;whiteSpace=wrap;html=1;aspect=fixed;" vertex="1" parent="1">
          <mxGeometry x="120" y="780" width="40" height="40" as="geometry" />
        </mxCell>
        <mxCell id="3Y9HXY3XmJLdRXZQ-D7i-49" value="" style="edgeStyle=orthogonalEdgeStyle;rounded=0;orthogonalLoop=1;jettySize=auto;html=1;" edge="1" parent="1" source="3Y9HXY3XmJLdRXZQ-D7i-50" target="3Y9HXY3XmJLdRXZQ-D7i-52">
          <mxGeometry relative="1" as="geometry" />
        </mxCell>
        <mxCell id="3Y9HXY3XmJLdRXZQ-D7i-50" value="" style="ellipse;whiteSpace=wrap;html=1;aspect=fixed;" vertex="1" parent="1">
          <mxGeometry x="240" y="780" width="40" height="40" as="geometry" />
        </mxCell>
        <mxCell id="3Y9HXY3XmJLdRXZQ-D7i-51" value="" style="edgeStyle=orthogonalEdgeStyle;rounded=0;orthogonalLoop=1;jettySize=auto;html=1;" edge="1" parent="1" source="3Y9HXY3XmJLdRXZQ-D7i-52" target="3Y9HXY3XmJLdRXZQ-D7i-53">
          <mxGeometry relative="1" as="geometry" />
        </mxCell>
        <mxCell id="3Y9HXY3XmJLdRXZQ-D7i-52" value="" style="ellipse;whiteSpace=wrap;html=1;aspect=fixed;" vertex="1" parent="1">
          <mxGeometry x="360" y="780" width="40" height="40" as="geometry" />
        </mxCell>
        <mxCell id="3Y9HXY3XmJLdRXZQ-D7i-53" value="" style="ellipse;whiteSpace=wrap;html=1;aspect=fixed;" vertex="1" parent="1">
          <mxGeometry x="480" y="780" width="40" height="40" as="geometry" />
        </mxCell>
        <mxCell id="3Y9HXY3XmJLdRXZQ-D7i-54" value="&lt;span style=&quot;font-size: 20px&quot;&gt;脚本库&lt;br&gt;iOS 开发&lt;br&gt;Android 开发&lt;br&gt;&lt;/span&gt;" style="text;html=1;align=center;verticalAlign=middle;resizable=0;points=[];autosize=1;strokeColor=none;fillColor=none;" vertex="1" parent="1">
          <mxGeometry x="-180" y="775" width="130" height="50" as="geometry" />
        </mxCell>
      </root>
    </mxGraphModel>
  </diagram>
  <diagram id="1cvkt-oPo-hRLbUR9Nvo" name="Page-2">
    <mxGraphModel dx="1298" dy="2010" grid="1" gridSize="10" guides="1" tooltips="1" connect="1" arrows="1" fold="1" page="1" pageScale="1" pageWidth="827" pageHeight="1169" math="0" shadow="0">
      <root>
        <mxCell id="l2LjVuQHqqThzzVqSNcm-0" />
        <mxCell id="l2LjVuQHqqThzzVqSNcm-1" parent="l2LjVuQHqqThzzVqSNcm-0" />
        <mxCell id="HQVHa_a0u8uJOrrx26nu-64" value="" style="rounded=0;whiteSpace=wrap;html=1;fontSize=12;" vertex="1" parent="l2LjVuQHqqThzzVqSNcm-1">
          <mxGeometry x="1130" y="700" width="160" height="237.5" as="geometry" />
        </mxCell>
        <mxCell id="l2LjVuQHqqThzzVqSNcm-28" value="" style="rounded=0;whiteSpace=wrap;html=1;fontSize=12;" vertex="1" parent="l2LjVuQHqqThzzVqSNcm-1">
          <mxGeometry x="110" y="-110" width="610" height="750" as="geometry" />
        </mxCell>
        <mxCell id="l2LjVuQHqqThzzVqSNcm-10" style="edgeStyle=orthogonalEdgeStyle;rounded=0;orthogonalLoop=1;jettySize=auto;html=1;entryX=0.5;entryY=0;entryDx=0;entryDy=0;fontSize=20;" edge="1" parent="l2LjVuQHqqThzzVqSNcm-1" source="l2LjVuQHqqThzzVqSNcm-2" target="l2LjVuQHqqThzzVqSNcm-8">
          <mxGeometry relative="1" as="geometry" />
        </mxCell>
        <mxCell id="HQVHa_a0u8uJOrrx26nu-1" value="" style="edgeStyle=orthogonalEdgeStyle;rounded=0;orthogonalLoop=1;jettySize=auto;html=1;fontSize=12;" edge="1" parent="l2LjVuQHqqThzzVqSNcm-1" source="l2LjVuQHqqThzzVqSNcm-2">
          <mxGeometry relative="1" as="geometry">
            <mxPoint x="774" y="205" as="targetPoint" />
          </mxGeometry>
        </mxCell>
        <mxCell id="l2LjVuQHqqThzzVqSNcm-2" value="&lt;span&gt;云效 web 系统&lt;/span&gt;" style="rounded=0;whiteSpace=wrap;html=1;fontSize=20;" vertex="1" parent="l2LjVuQHqqThzzVqSNcm-1">
          <mxGeometry x="134" y="180" width="560" height="50" as="geometry" />
        </mxCell>
        <mxCell id="l2LjVuQHqqThzzVqSNcm-7" style="edgeStyle=orthogonalEdgeStyle;rounded=0;orthogonalLoop=1;jettySize=auto;html=1;entryX=0.5;entryY=0;entryDx=0;entryDy=0;fontSize=20;" edge="1" parent="l2LjVuQHqqThzzVqSNcm-1" source="l2LjVuQHqqThzzVqSNcm-4" target="l2LjVuQHqqThzzVqSNcm-2">
          <mxGeometry relative="1" as="geometry" />
        </mxCell>
        <mxCell id="l2LjVuQHqqThzzVqSNcm-4" value="组件 gitlab 仓库" style="rounded=0;whiteSpace=wrap;html=1;fontSize=20;" vertex="1" parent="l2LjVuQHqqThzzVqSNcm-1">
          <mxGeometry x="134" y="40" width="560" height="50" as="geometry" />
        </mxCell>
        <mxCell id="l2LjVuQHqqThzzVqSNcm-27" style="edgeStyle=orthogonalEdgeStyle;rounded=0;orthogonalLoop=1;jettySize=auto;html=1;fontSize=12;" edge="1" parent="l2LjVuQHqqThzzVqSNcm-1" source="l2LjVuQHqqThzzVqSNcm-5" target="l2LjVuQHqqThzzVqSNcm-23">
          <mxGeometry relative="1" as="geometry" />
        </mxCell>
        <mxCell id="l2LjVuQHqqThzzVqSNcm-5" value="组件仓库 RD" style="shape=umlActor;verticalLabelPosition=bottom;verticalAlign=top;html=1;outlineConnect=0;fontSize=20;" vertex="1" parent="l2LjVuQHqqThzzVqSNcm-1">
          <mxGeometry x="399" y="-270" width="30" height="60" as="geometry" />
        </mxCell>
        <mxCell id="l2LjVuQHqqThzzVqSNcm-12" value="" style="edgeStyle=orthogonalEdgeStyle;rounded=0;orthogonalLoop=1;jettySize=auto;html=1;fontSize=20;" edge="1" parent="l2LjVuQHqqThzzVqSNcm-1" source="l2LjVuQHqqThzzVqSNcm-8" target="l2LjVuQHqqThzzVqSNcm-11">
          <mxGeometry relative="1" as="geometry" />
        </mxCell>
        <mxCell id="HQVHa_a0u8uJOrrx26nu-4" value="" style="edgeStyle=orthogonalEdgeStyle;rounded=0;orthogonalLoop=1;jettySize=auto;html=1;fontSize=12;" edge="1" parent="l2LjVuQHqqThzzVqSNcm-1" source="l2LjVuQHqqThzzVqSNcm-8" target="HQVHa_a0u8uJOrrx26nu-3">
          <mxGeometry relative="1" as="geometry" />
        </mxCell>
        <mxCell id="l2LjVuQHqqThzzVqSNcm-8" value="组件 CI 流水线" style="rounded=0;whiteSpace=wrap;html=1;fontSize=20;" vertex="1" parent="l2LjVuQHqqThzzVqSNcm-1">
          <mxGeometry x="134" y="310" width="560" height="50" as="geometry" />
        </mxCell>
        <mxCell id="l2LjVuQHqqThzzVqSNcm-19" value="" style="edgeStyle=orthogonalEdgeStyle;rounded=0;orthogonalLoop=1;jettySize=auto;html=1;fontSize=12;" edge="1" parent="l2LjVuQHqqThzzVqSNcm-1" source="l2LjVuQHqqThzzVqSNcm-11" target="l2LjVuQHqqThzzVqSNcm-18">
          <mxGeometry relative="1" as="geometry" />
        </mxCell>
        <mxCell id="l2LjVuQHqqThzzVqSNcm-11" value="合并代码" style="rounded=0;whiteSpace=wrap;html=1;fontSize=20;" vertex="1" parent="l2LjVuQHqqThzzVqSNcm-1">
          <mxGeometry x="134" y="440" width="560" height="50" as="geometry" />
        </mxCell>
        <mxCell id="l2LjVuQHqqThzzVqSNcm-21" value="" style="edgeStyle=orthogonalEdgeStyle;rounded=0;orthogonalLoop=1;jettySize=auto;html=1;fontSize=12;" edge="1" parent="l2LjVuQHqqThzzVqSNcm-1" source="l2LjVuQHqqThzzVqSNcm-18" target="l2LjVuQHqqThzzVqSNcm-20">
          <mxGeometry relative="1" as="geometry" />
        </mxCell>
        <mxCell id="HQVHa_a0u8uJOrrx26nu-20" value="" style="edgeStyle=orthogonalEdgeStyle;rounded=0;orthogonalLoop=1;jettySize=auto;html=1;fontSize=12;" edge="1" parent="l2LjVuQHqqThzzVqSNcm-1" source="l2LjVuQHqqThzzVqSNcm-18" target="HQVHa_a0u8uJOrrx26nu-19">
          <mxGeometry relative="1" as="geometry" />
        </mxCell>
        <mxCell id="l2LjVuQHqqThzzVqSNcm-18" value="发布 版本号" style="rounded=0;whiteSpace=wrap;html=1;fontSize=20;" vertex="1" parent="l2LjVuQHqqThzzVqSNcm-1">
          <mxGeometry x="134" y="570" width="560" height="50" as="geometry" />
        </mxCell>
        <mxCell id="WlztPs59ZOYxy_TMlBI5-1" value="" style="edgeStyle=orthogonalEdgeStyle;rounded=0;orthogonalLoop=1;jettySize=auto;html=1;fontSize=12;" edge="1" parent="l2LjVuQHqqThzzVqSNcm-1" source="l2LjVuQHqqThzzVqSNcm-20" target="WlztPs59ZOYxy_TMlBI5-0">
          <mxGeometry relative="1" as="geometry" />
        </mxCell>
        <mxCell id="l2LjVuQHqqThzzVqSNcm-20" value="集成 版本号" style="rounded=0;whiteSpace=wrap;html=1;fontSize=20;" vertex="1" parent="l2LjVuQHqqThzzVqSNcm-1">
          <mxGeometry x="134" y="700" width="560" height="50" as="geometry" />
        </mxCell>
        <mxCell id="l2LjVuQHqqThzzVqSNcm-25" style="edgeStyle=orthogonalEdgeStyle;rounded=0;orthogonalLoop=1;jettySize=auto;html=1;entryX=0.5;entryY=0;entryDx=0;entryDy=0;fontSize=12;" edge="1" parent="l2LjVuQHqqThzzVqSNcm-1" source="l2LjVuQHqqThzzVqSNcm-23" target="l2LjVuQHqqThzzVqSNcm-4">
          <mxGeometry relative="1" as="geometry" />
        </mxCell>
        <mxCell id="l2LjVuQHqqThzzVqSNcm-23" value="本地客户端工具" style="rounded=0;whiteSpace=wrap;html=1;fontSize=20;" vertex="1" parent="l2LjVuQHqqThzzVqSNcm-1">
          <mxGeometry x="134" y="-90" width="560" height="50" as="geometry" />
        </mxCell>
        <mxCell id="WlztPs59ZOYxy_TMlBI5-0" value="通知依赖方" style="rounded=0;whiteSpace=wrap;html=1;fontSize=20;" vertex="1" parent="l2LjVuQHqqThzzVqSNcm-1">
          <mxGeometry x="134" y="830" width="560" height="50" as="geometry" />
        </mxCell>
        <mxCell id="HQVHa_a0u8uJOrrx26nu-2" value="关联多组件仓库" style="text;html=1;align=center;verticalAlign=middle;resizable=0;points=[];autosize=1;strokeColor=none;fillColor=none;fontSize=12;" vertex="1" parent="l2LjVuQHqqThzzVqSNcm-1">
          <mxGeometry x="770" y="195" width="100" height="20" as="geometry" />
        </mxCell>
        <mxCell id="HQVHa_a0u8uJOrrx26nu-3" value="" style="rounded=0;whiteSpace=wrap;html=1;fontSize=20;" vertex="1" parent="l2LjVuQHqqThzzVqSNcm-1">
          <mxGeometry x="774" y="310" width="516" height="50" as="geometry" />
        </mxCell>
        <mxCell id="HQVHa_a0u8uJOrrx26nu-10" value="" style="edgeStyle=orthogonalEdgeStyle;rounded=0;orthogonalLoop=1;jettySize=auto;html=1;fontSize=12;" edge="1" parent="l2LjVuQHqqThzzVqSNcm-1" source="HQVHa_a0u8uJOrrx26nu-6" target="HQVHa_a0u8uJOrrx26nu-9">
          <mxGeometry relative="1" as="geometry" />
        </mxCell>
        <mxCell id="HQVHa_a0u8uJOrrx26nu-6" value="编译" style="ellipse;whiteSpace=wrap;html=1;aspect=fixed;fontSize=12;" vertex="1" parent="l2LjVuQHqqThzzVqSNcm-1">
          <mxGeometry x="787" y="317.5" width="35" height="35" as="geometry" />
        </mxCell>
        <mxCell id="HQVHa_a0u8uJOrrx26nu-12" value="" style="edgeStyle=orthogonalEdgeStyle;rounded=0;orthogonalLoop=1;jettySize=auto;html=1;fontSize=12;" edge="1" parent="l2LjVuQHqqThzzVqSNcm-1" source="HQVHa_a0u8uJOrrx26nu-9" target="HQVHa_a0u8uJOrrx26nu-11">
          <mxGeometry relative="1" as="geometry" />
        </mxCell>
        <mxCell id="HQVHa_a0u8uJOrrx26nu-9" value="单测" style="ellipse;whiteSpace=wrap;html=1;aspect=fixed;fontSize=12;" vertex="1" parent="l2LjVuQHqqThzzVqSNcm-1">
          <mxGeometry x="902" y="317.5" width="35" height="35" as="geometry" />
        </mxCell>
        <mxCell id="HQVHa_a0u8uJOrrx26nu-14" value="" style="edgeStyle=orthogonalEdgeStyle;rounded=0;orthogonalLoop=1;jettySize=auto;html=1;fontSize=12;" edge="1" parent="l2LjVuQHqqThzzVqSNcm-1" source="HQVHa_a0u8uJOrrx26nu-11" target="HQVHa_a0u8uJOrrx26nu-13">
          <mxGeometry relative="1" as="geometry" />
        </mxCell>
        <mxCell id="HQVHa_a0u8uJOrrx26nu-11" value="依赖" style="ellipse;whiteSpace=wrap;html=1;aspect=fixed;fontSize=12;" vertex="1" parent="l2LjVuQHqqThzzVqSNcm-1">
          <mxGeometry x="1017" y="317.5" width="35" height="35" as="geometry" />
        </mxCell>
        <mxCell id="HQVHa_a0u8uJOrrx26nu-16" value="" style="edgeStyle=orthogonalEdgeStyle;rounded=0;orthogonalLoop=1;jettySize=auto;html=1;fontSize=12;" edge="1" parent="l2LjVuQHqqThzzVqSNcm-1" source="HQVHa_a0u8uJOrrx26nu-13" target="HQVHa_a0u8uJOrrx26nu-15">
          <mxGeometry relative="1" as="geometry" />
        </mxCell>
        <mxCell id="HQVHa_a0u8uJOrrx26nu-13" value="&lt;span&gt;api&lt;/span&gt;" style="ellipse;whiteSpace=wrap;html=1;aspect=fixed;fontSize=12;" vertex="1" parent="l2LjVuQHqqThzzVqSNcm-1">
          <mxGeometry x="1132" y="317.5" width="35" height="35" as="geometry" />
        </mxCell>
        <mxCell id="HQVHa_a0u8uJOrrx26nu-15" value="分析" style="ellipse;whiteSpace=wrap;html=1;aspect=fixed;fontSize=12;" vertex="1" parent="l2LjVuQHqqThzzVqSNcm-1">
          <mxGeometry x="1247" y="317.5" width="35" height="35" as="geometry" />
        </mxCell>
        <mxCell id="HQVHa_a0u8uJOrrx26nu-19" value="" style="rounded=0;whiteSpace=wrap;html=1;fontSize=20;" vertex="1" parent="l2LjVuQHqqThzzVqSNcm-1">
          <mxGeometry x="840" y="420" width="190" height="400" as="geometry" />
        </mxCell>
        <mxCell id="HQVHa_a0u8uJOrrx26nu-24" value="" style="edgeStyle=orthogonalEdgeStyle;rounded=0;orthogonalLoop=1;jettySize=auto;html=1;fontSize=12;" edge="1" parent="l2LjVuQHqqThzzVqSNcm-1" source="HQVHa_a0u8uJOrrx26nu-21" target="HQVHa_a0u8uJOrrx26nu-23">
          <mxGeometry relative="1" as="geometry" />
        </mxCell>
        <mxCell id="HQVHa_a0u8uJOrrx26nu-38" value="" style="edgeStyle=orthogonalEdgeStyle;rounded=0;orthogonalLoop=1;jettySize=auto;html=1;fontSize=12;" edge="1" parent="l2LjVuQHqqThzzVqSNcm-1" source="HQVHa_a0u8uJOrrx26nu-21" target="HQVHa_a0u8uJOrrx26nu-37">
          <mxGeometry relative="1" as="geometry" />
        </mxCell>
        <mxCell id="HQVHa_a0u8uJOrrx26nu-21" value="1.0.1-beta.0" style="rounded=0;whiteSpace=wrap;html=1;fontSize=12;fillColor=#eeeeee;strokeColor=#36393d;" vertex="1" parent="l2LjVuQHqqThzzVqSNcm-1">
          <mxGeometry x="860" y="435" width="150" height="35" as="geometry" />
        </mxCell>
        <mxCell id="HQVHa_a0u8uJOrrx26nu-26" value="" style="edgeStyle=orthogonalEdgeStyle;rounded=0;orthogonalLoop=1;jettySize=auto;html=1;fontSize=12;" edge="1" parent="l2LjVuQHqqThzzVqSNcm-1" source="HQVHa_a0u8uJOrrx26nu-23" target="HQVHa_a0u8uJOrrx26nu-25">
          <mxGeometry relative="1" as="geometry" />
        </mxCell>
        <mxCell id="HQVHa_a0u8uJOrrx26nu-23" value="1.0.1-beta.1" style="rounded=0;whiteSpace=wrap;html=1;fontSize=12;fillColor=#eeeeee;strokeColor=#36393d;" vertex="1" parent="l2LjVuQHqqThzzVqSNcm-1">
          <mxGeometry x="860" y="490" width="150" height="35" as="geometry" />
        </mxCell>
        <mxCell id="HQVHa_a0u8uJOrrx26nu-28" value="" style="edgeStyle=orthogonalEdgeStyle;rounded=0;orthogonalLoop=1;jettySize=auto;html=1;fontSize=12;" edge="1" parent="l2LjVuQHqqThzzVqSNcm-1" source="HQVHa_a0u8uJOrrx26nu-25" target="HQVHa_a0u8uJOrrx26nu-27">
          <mxGeometry relative="1" as="geometry" />
        </mxCell>
        <mxCell id="HQVHa_a0u8uJOrrx26nu-25" value="……" style="rounded=0;whiteSpace=wrap;html=1;fontSize=12;fillColor=#eeeeee;strokeColor=#36393d;" vertex="1" parent="l2LjVuQHqqThzzVqSNcm-1">
          <mxGeometry x="860" y="550" width="150" height="35" as="geometry" />
        </mxCell>
        <mxCell id="HQVHa_a0u8uJOrrx26nu-30" value="" style="edgeStyle=orthogonalEdgeStyle;rounded=0;orthogonalLoop=1;jettySize=auto;html=1;fontSize=12;" edge="1" parent="l2LjVuQHqqThzzVqSNcm-1" source="HQVHa_a0u8uJOrrx26nu-27" target="HQVHa_a0u8uJOrrx26nu-29">
          <mxGeometry relative="1" as="geometry" />
        </mxCell>
        <mxCell id="HQVHa_a0u8uJOrrx26nu-27" value="1.0.1-beta.0" style="rounded=0;whiteSpace=wrap;html=1;fontSize=12;fillColor=#eeeeee;strokeColor=#36393d;" vertex="1" parent="l2LjVuQHqqThzzVqSNcm-1">
          <mxGeometry x="860" y="605" width="150" height="35" as="geometry" />
        </mxCell>
        <mxCell id="HQVHa_a0u8uJOrrx26nu-32" value="" style="edgeStyle=orthogonalEdgeStyle;rounded=0;orthogonalLoop=1;jettySize=auto;html=1;fontSize=12;" edge="1" parent="l2LjVuQHqqThzzVqSNcm-1" source="HQVHa_a0u8uJOrrx26nu-29" target="HQVHa_a0u8uJOrrx26nu-31">
          <mxGeometry relative="1" as="geometry" />
        </mxCell>
        <mxCell id="HQVHa_a0u8uJOrrx26nu-29" value="……" style="rounded=0;whiteSpace=wrap;html=1;fontSize=12;fillColor=#eeeeee;strokeColor=#36393d;" vertex="1" parent="l2LjVuQHqqThzzVqSNcm-1">
          <mxGeometry x="860" y="660" width="150" height="35" as="geometry" />
        </mxCell>
        <mxCell id="HQVHa_a0u8uJOrrx26nu-34" value="" style="edgeStyle=orthogonalEdgeStyle;rounded=0;orthogonalLoop=1;jettySize=auto;html=1;fontSize=12;" edge="1" parent="l2LjVuQHqqThzzVqSNcm-1" source="HQVHa_a0u8uJOrrx26nu-31" target="HQVHa_a0u8uJOrrx26nu-33">
          <mxGeometry relative="1" as="geometry" />
        </mxCell>
        <mxCell id="HQVHa_a0u8uJOrrx26nu-31" value="1.0.1-rc.0" style="rounded=0;whiteSpace=wrap;html=1;fontSize=12;fillColor=#eeeeee;strokeColor=#36393d;" vertex="1" parent="l2LjVuQHqqThzzVqSNcm-1">
          <mxGeometry x="860" y="715" width="150" height="35" as="geometry" />
        </mxCell>
        <mxCell id="HQVHa_a0u8uJOrrx26nu-65" style="edgeStyle=orthogonalEdgeStyle;rounded=0;orthogonalLoop=1;jettySize=auto;html=1;entryX=0;entryY=0.5;entryDx=0;entryDy=0;fontSize=12;" edge="1" parent="l2LjVuQHqqThzzVqSNcm-1" source="HQVHa_a0u8uJOrrx26nu-33" target="HQVHa_a0u8uJOrrx26nu-64">
          <mxGeometry relative="1" as="geometry" />
        </mxCell>
        <mxCell id="HQVHa_a0u8uJOrrx26nu-33" value="1.0.1" style="rounded=0;whiteSpace=wrap;html=1;fontSize=12;fillColor=#d5e8d4;strokeColor=#82b366;" vertex="1" parent="l2LjVuQHqqThzzVqSNcm-1">
          <mxGeometry x="860" y="770" width="150" height="35" as="geometry" />
        </mxCell>
        <mxCell id="HQVHa_a0u8uJOrrx26nu-37" value="" style="rounded=0;whiteSpace=wrap;html=1;fontSize=12;" vertex="1" parent="l2LjVuQHqqThzzVqSNcm-1">
          <mxGeometry x="1090" y="435" width="130" height="35" as="geometry" />
        </mxCell>
        <mxCell id="HQVHa_a0u8uJOrrx26nu-42" value="" style="edgeStyle=orthogonalEdgeStyle;rounded=0;orthogonalLoop=1;jettySize=auto;html=1;fontSize=12;" edge="1" parent="l2LjVuQHqqThzzVqSNcm-1" source="HQVHa_a0u8uJOrrx26nu-39" target="HQVHa_a0u8uJOrrx26nu-41">
          <mxGeometry relative="1" as="geometry" />
        </mxCell>
        <mxCell id="HQVHa_a0u8uJOrrx26nu-39" value="集成打包" style="ellipse;html=1;aspect=fixed;fontSize=12;" vertex="1" parent="l2LjVuQHqqThzzVqSNcm-1">
          <mxGeometry x="1107" y="440" width="25" height="25" as="geometry" />
        </mxCell>
        <mxCell id="HQVHa_a0u8uJOrrx26nu-41" value="QA" style="ellipse;html=1;aspect=fixed;fontSize=12;" vertex="1" parent="l2LjVuQHqqThzzVqSNcm-1">
          <mxGeometry x="1180" y="440" width="25" height="25" as="geometry" />
        </mxCell>
        <mxCell id="HQVHa_a0u8uJOrrx26nu-59" value="" style="edgeStyle=orthogonalEdgeStyle;rounded=0;orthogonalLoop=1;jettySize=auto;html=1;fontSize=12;" edge="1" parent="l2LjVuQHqqThzzVqSNcm-1" source="HQVHa_a0u8uJOrrx26nu-57" target="HQVHa_a0u8uJOrrx26nu-58">
          <mxGeometry relative="1" as="geometry" />
        </mxCell>
        <mxCell id="HQVHa_a0u8uJOrrx26nu-57" value="基本信息" style="rounded=0;whiteSpace=wrap;html=1;fontSize=12;" vertex="1" parent="l2LjVuQHqqThzzVqSNcm-1">
          <mxGeometry x="1140" y="712.5" width="140" height="35" as="geometry" />
        </mxCell>
        <mxCell id="HQVHa_a0u8uJOrrx26nu-61" value="" style="edgeStyle=orthogonalEdgeStyle;rounded=0;orthogonalLoop=1;jettySize=auto;html=1;fontSize=12;" edge="1" parent="l2LjVuQHqqThzzVqSNcm-1" source="HQVHa_a0u8uJOrrx26nu-58" target="HQVHa_a0u8uJOrrx26nu-60">
          <mxGeometry relative="1" as="geometry" />
        </mxCell>
        <mxCell id="HQVHa_a0u8uJOrrx26nu-58" value="二进制包" style="rounded=0;whiteSpace=wrap;html=1;fontSize=12;" vertex="1" parent="l2LjVuQHqqThzzVqSNcm-1">
          <mxGeometry x="1140" y="767.5" width="140" height="35" as="geometry" />
        </mxCell>
        <mxCell id="HQVHa_a0u8uJOrrx26nu-63" value="" style="edgeStyle=orthogonalEdgeStyle;rounded=0;orthogonalLoop=1;jettySize=auto;html=1;fontSize=12;" edge="1" parent="l2LjVuQHqqThzzVqSNcm-1" source="HQVHa_a0u8uJOrrx26nu-60" target="HQVHa_a0u8uJOrrx26nu-62">
          <mxGeometry relative="1" as="geometry" />
        </mxCell>
        <mxCell id="HQVHa_a0u8uJOrrx26nu-60" value="依赖分析" style="rounded=0;whiteSpace=wrap;html=1;fontSize=12;" vertex="1" parent="l2LjVuQHqqThzzVqSNcm-1">
          <mxGeometry x="1140" y="827.5" width="140" height="35" as="geometry" />
        </mxCell>
        <mxCell id="HQVHa_a0u8uJOrrx26nu-62" value="api 变更" style="rounded=0;whiteSpace=wrap;html=1;fontSize=12;" vertex="1" parent="l2LjVuQHqqThzzVqSNcm-1">
          <mxGeometry x="1140" y="887.5" width="140" height="35" as="geometry" />
        </mxCell>
      </root>
    </mxGraphModel>
  </diagram>
  <diagram id="VDmC0WfIqvpTlBcTtTQ7" name="Page-3">
    <mxGraphModel dx="2125" dy="841" grid="1" gridSize="10" guides="1" tooltips="1" connect="1" arrows="1" fold="1" page="1" pageScale="1" pageWidth="827" pageHeight="1169" math="0" shadow="0">
      <root>
        <mxCell id="3Dn1EAEciPxK2AG-_Tar-0" />
        <mxCell id="3Dn1EAEciPxK2AG-_Tar-1" parent="3Dn1EAEciPxK2AG-_Tar-0" />
        <mxCell id="20uz0A367yIB0za0_pvE-2" value="" style="edgeStyle=orthogonalEdgeStyle;rounded=0;orthogonalLoop=1;jettySize=auto;html=1;fontSize=20;" edge="1" parent="3Dn1EAEciPxK2AG-_Tar-1" source="20uz0A367yIB0za0_pvE-0" target="20uz0A367yIB0za0_pvE-1">
          <mxGeometry relative="1" as="geometry" />
        </mxCell>
        <mxCell id="20uz0A367yIB0za0_pvE-0" value="&lt;font style=&quot;font-size: 20px&quot;&gt;包类型1&lt;/font&gt;" style="rounded=0;whiteSpace=wrap;html=1;fontSize=12;" vertex="1" parent="3Dn1EAEciPxK2AG-_Tar-1">
          <mxGeometry x="70" y="270" width="120" height="60" as="geometry" />
        </mxCell>
        <mxCell id="20uz0A367yIB0za0_pvE-30" value="" style="edgeStyle=orthogonalEdgeStyle;rounded=0;orthogonalLoop=1;jettySize=auto;html=1;fontSize=20;" edge="1" parent="3Dn1EAEciPxK2AG-_Tar-1" source="20uz0A367yIB0za0_pvE-1" target="20uz0A367yIB0za0_pvE-29">
          <mxGeometry relative="1" as="geometry" />
        </mxCell>
        <mxCell id="20uz0A367yIB0za0_pvE-1" value="" style="rounded=0;whiteSpace=wrap;html=1;fontSize=12;fillColor=#cce5ff;strokeColor=#36393d;" vertex="1" parent="3Dn1EAEciPxK2AG-_Tar-1">
          <mxGeometry x="270" y="270" width="550" height="60" as="geometry" />
        </mxCell>
        <mxCell id="20uz0A367yIB0za0_pvE-5" value="" style="edgeStyle=orthogonalEdgeStyle;rounded=0;orthogonalLoop=1;jettySize=auto;html=1;fontSize=20;" edge="1" parent="3Dn1EAEciPxK2AG-_Tar-1" source="20uz0A367yIB0za0_pvE-3" target="20uz0A367yIB0za0_pvE-4">
          <mxGeometry relative="1" as="geometry" />
        </mxCell>
        <mxCell id="20uz0A367yIB0za0_pvE-3" value="" style="ellipse;whiteSpace=wrap;html=1;aspect=fixed;fontSize=20;" vertex="1" parent="3Dn1EAEciPxK2AG-_Tar-1">
          <mxGeometry x="280" y="280" width="40" height="40" as="geometry" />
        </mxCell>
        <mxCell id="20uz0A367yIB0za0_pvE-7" value="" style="edgeStyle=orthogonalEdgeStyle;rounded=0;orthogonalLoop=1;jettySize=auto;html=1;fontSize=20;" edge="1" parent="3Dn1EAEciPxK2AG-_Tar-1" source="20uz0A367yIB0za0_pvE-4" target="20uz0A367yIB0za0_pvE-6">
          <mxGeometry relative="1" as="geometry" />
        </mxCell>
        <mxCell id="20uz0A367yIB0za0_pvE-4" value="" style="ellipse;whiteSpace=wrap;html=1;aspect=fixed;fontSize=20;" vertex="1" parent="3Dn1EAEciPxK2AG-_Tar-1">
          <mxGeometry x="400" y="280" width="40" height="40" as="geometry" />
        </mxCell>
        <mxCell id="20uz0A367yIB0za0_pvE-11" value="" style="edgeStyle=orthogonalEdgeStyle;rounded=0;orthogonalLoop=1;jettySize=auto;html=1;fontSize=20;" edge="1" parent="3Dn1EAEciPxK2AG-_Tar-1" source="20uz0A367yIB0za0_pvE-6" target="20uz0A367yIB0za0_pvE-10">
          <mxGeometry relative="1" as="geometry" />
        </mxCell>
        <mxCell id="20uz0A367yIB0za0_pvE-6" value="" style="ellipse;whiteSpace=wrap;html=1;aspect=fixed;fontSize=20;" vertex="1" parent="3Dn1EAEciPxK2AG-_Tar-1">
          <mxGeometry x="520" y="280" width="40" height="40" as="geometry" />
        </mxCell>
        <mxCell id="20uz0A367yIB0za0_pvE-13" value="" style="edgeStyle=orthogonalEdgeStyle;rounded=0;orthogonalLoop=1;jettySize=auto;html=1;fontSize=20;" edge="1" parent="3Dn1EAEciPxK2AG-_Tar-1" source="20uz0A367yIB0za0_pvE-10" target="20uz0A367yIB0za0_pvE-12">
          <mxGeometry relative="1" as="geometry" />
        </mxCell>
        <mxCell id="20uz0A367yIB0za0_pvE-10" value="" style="ellipse;whiteSpace=wrap;html=1;aspect=fixed;fontSize=20;" vertex="1" parent="3Dn1EAEciPxK2AG-_Tar-1">
          <mxGeometry x="640" y="280" width="40" height="40" as="geometry" />
        </mxCell>
        <mxCell id="20uz0A367yIB0za0_pvE-12" value="" style="ellipse;whiteSpace=wrap;html=1;aspect=fixed;fontSize=20;" vertex="1" parent="3Dn1EAEciPxK2AG-_Tar-1">
          <mxGeometry x="760" y="280" width="40" height="40" as="geometry" />
        </mxCell>
        <mxCell id="20uz0A367yIB0za0_pvE-29" value="&lt;font style=&quot;font-size: 20px&quot;&gt;包类型1参数配置&lt;/font&gt;" style="rounded=0;whiteSpace=wrap;html=1;fontSize=12;" vertex="1" parent="3Dn1EAEciPxK2AG-_Tar-1">
          <mxGeometry x="900" y="270" width="120" height="60" as="geometry" />
        </mxCell>
        <mxCell id="20uz0A367yIB0za0_pvE-31" value="" style="edgeStyle=orthogonalEdgeStyle;rounded=0;orthogonalLoop=1;jettySize=auto;html=1;fontSize=20;" edge="1" parent="3Dn1EAEciPxK2AG-_Tar-1" source="20uz0A367yIB0za0_pvE-32" target="20uz0A367yIB0za0_pvE-34">
          <mxGeometry relative="1" as="geometry" />
        </mxCell>
        <mxCell id="20uz0A367yIB0za0_pvE-32" value="&lt;font style=&quot;font-size: 20px&quot;&gt;包类型2&lt;/font&gt;" style="rounded=0;whiteSpace=wrap;html=1;fontSize=12;" vertex="1" parent="3Dn1EAEciPxK2AG-_Tar-1">
          <mxGeometry x="70" y="400" width="120" height="60" as="geometry" />
        </mxCell>
        <mxCell id="20uz0A367yIB0za0_pvE-33" value="" style="edgeStyle=orthogonalEdgeStyle;rounded=0;orthogonalLoop=1;jettySize=auto;html=1;fontSize=20;" edge="1" parent="3Dn1EAEciPxK2AG-_Tar-1" source="20uz0A367yIB0za0_pvE-34" target="20uz0A367yIB0za0_pvE-46">
          <mxGeometry relative="1" as="geometry" />
        </mxCell>
        <mxCell id="20uz0A367yIB0za0_pvE-34" value="" style="rounded=0;whiteSpace=wrap;html=1;fontSize=12;fillColor=#cdeb8b;strokeColor=#36393d;" vertex="1" parent="3Dn1EAEciPxK2AG-_Tar-1">
          <mxGeometry x="270" y="400" width="550" height="60" as="geometry" />
        </mxCell>
        <mxCell id="20uz0A367yIB0za0_pvE-35" value="" style="edgeStyle=orthogonalEdgeStyle;rounded=0;orthogonalLoop=1;jettySize=auto;html=1;fontSize=20;" edge="1" parent="3Dn1EAEciPxK2AG-_Tar-1" source="20uz0A367yIB0za0_pvE-36" target="20uz0A367yIB0za0_pvE-38">
          <mxGeometry relative="1" as="geometry" />
        </mxCell>
        <mxCell id="20uz0A367yIB0za0_pvE-36" value="" style="ellipse;whiteSpace=wrap;html=1;aspect=fixed;fontSize=20;" vertex="1" parent="3Dn1EAEciPxK2AG-_Tar-1">
          <mxGeometry x="280" y="410" width="40" height="40" as="geometry" />
        </mxCell>
        <mxCell id="20uz0A367yIB0za0_pvE-37" value="" style="edgeStyle=orthogonalEdgeStyle;rounded=0;orthogonalLoop=1;jettySize=auto;html=1;fontSize=20;" edge="1" parent="3Dn1EAEciPxK2AG-_Tar-1" source="20uz0A367yIB0za0_pvE-38" target="20uz0A367yIB0za0_pvE-40">
          <mxGeometry relative="1" as="geometry" />
        </mxCell>
        <mxCell id="20uz0A367yIB0za0_pvE-38" value="" style="ellipse;whiteSpace=wrap;html=1;aspect=fixed;fontSize=20;" vertex="1" parent="3Dn1EAEciPxK2AG-_Tar-1">
          <mxGeometry x="400" y="410" width="40" height="40" as="geometry" />
        </mxCell>
        <mxCell id="20uz0A367yIB0za0_pvE-39" value="" style="edgeStyle=orthogonalEdgeStyle;rounded=0;orthogonalLoop=1;jettySize=auto;html=1;fontSize=20;" edge="1" parent="3Dn1EAEciPxK2AG-_Tar-1" source="20uz0A367yIB0za0_pvE-40" target="20uz0A367yIB0za0_pvE-42">
          <mxGeometry relative="1" as="geometry" />
        </mxCell>
        <mxCell id="20uz0A367yIB0za0_pvE-40" value="" style="ellipse;whiteSpace=wrap;html=1;aspect=fixed;fontSize=20;" vertex="1" parent="3Dn1EAEciPxK2AG-_Tar-1">
          <mxGeometry x="520" y="410" width="40" height="40" as="geometry" />
        </mxCell>
        <mxCell id="20uz0A367yIB0za0_pvE-41" value="" style="edgeStyle=orthogonalEdgeStyle;rounded=0;orthogonalLoop=1;jettySize=auto;html=1;fontSize=20;" edge="1" parent="3Dn1EAEciPxK2AG-_Tar-1" source="20uz0A367yIB0za0_pvE-42" target="20uz0A367yIB0za0_pvE-43">
          <mxGeometry relative="1" as="geometry" />
        </mxCell>
        <mxCell id="20uz0A367yIB0za0_pvE-42" value="" style="ellipse;whiteSpace=wrap;html=1;aspect=fixed;fontSize=20;" vertex="1" parent="3Dn1EAEciPxK2AG-_Tar-1">
          <mxGeometry x="640" y="410" width="40" height="40" as="geometry" />
        </mxCell>
        <mxCell id="20uz0A367yIB0za0_pvE-43" value="" style="ellipse;whiteSpace=wrap;html=1;aspect=fixed;fontSize=20;" vertex="1" parent="3Dn1EAEciPxK2AG-_Tar-1">
          <mxGeometry x="760" y="410" width="40" height="40" as="geometry" />
        </mxCell>
        <mxCell id="20uz0A367yIB0za0_pvE-47" style="edgeStyle=orthogonalEdgeStyle;rounded=0;orthogonalLoop=1;jettySize=auto;html=1;entryX=0;entryY=0.5;entryDx=0;entryDy=0;fontSize=20;" edge="1" parent="3Dn1EAEciPxK2AG-_Tar-1" source="20uz0A367yIB0za0_pvE-45" target="20uz0A367yIB0za0_pvE-0">
          <mxGeometry relative="1" as="geometry" />
        </mxCell>
        <mxCell id="20uz0A367yIB0za0_pvE-48" style="edgeStyle=orthogonalEdgeStyle;rounded=0;orthogonalLoop=1;jettySize=auto;html=1;entryX=0;entryY=0.5;entryDx=0;entryDy=0;fontSize=20;" edge="1" parent="3Dn1EAEciPxK2AG-_Tar-1" source="20uz0A367yIB0za0_pvE-45" target="20uz0A367yIB0za0_pvE-32">
          <mxGeometry relative="1" as="geometry" />
        </mxCell>
        <mxCell id="20uz0A367yIB0za0_pvE-63" style="edgeStyle=orthogonalEdgeStyle;rounded=0;orthogonalLoop=1;jettySize=auto;html=1;entryX=0;entryY=0.5;entryDx=0;entryDy=0;fontSize=20;" edge="1" parent="3Dn1EAEciPxK2AG-_Tar-1" source="20uz0A367yIB0za0_pvE-45" target="20uz0A367yIB0za0_pvE-50">
          <mxGeometry relative="1" as="geometry" />
        </mxCell>
        <mxCell id="20uz0A367yIB0za0_pvE-45" value="&lt;font style=&quot;font-size: 20px&quot;&gt;应用&lt;/font&gt;" style="rounded=0;whiteSpace=wrap;html=1;fontSize=12;" vertex="1" parent="3Dn1EAEciPxK2AG-_Tar-1">
          <mxGeometry x="-170" y="400" width="120" height="60" as="geometry" />
        </mxCell>
        <mxCell id="20uz0A367yIB0za0_pvE-46" value="&lt;font style=&quot;font-size: 20px&quot;&gt;包类型2参数配置&lt;/font&gt;" style="rounded=0;whiteSpace=wrap;html=1;fontSize=12;" vertex="1" parent="3Dn1EAEciPxK2AG-_Tar-1">
          <mxGeometry x="900" y="400" width="120" height="60" as="geometry" />
        </mxCell>
        <mxCell id="20uz0A367yIB0za0_pvE-49" value="" style="edgeStyle=orthogonalEdgeStyle;rounded=0;orthogonalLoop=1;jettySize=auto;html=1;fontSize=20;" edge="1" parent="3Dn1EAEciPxK2AG-_Tar-1" source="20uz0A367yIB0za0_pvE-50" target="20uz0A367yIB0za0_pvE-52">
          <mxGeometry relative="1" as="geometry" />
        </mxCell>
        <mxCell id="20uz0A367yIB0za0_pvE-50" value="&lt;font style=&quot;font-size: 20px&quot;&gt;包类型3&lt;/font&gt;" style="rounded=0;whiteSpace=wrap;html=1;fontSize=12;" vertex="1" parent="3Dn1EAEciPxK2AG-_Tar-1">
          <mxGeometry x="70" y="525" width="120" height="60" as="geometry" />
        </mxCell>
        <mxCell id="20uz0A367yIB0za0_pvE-51" value="" style="edgeStyle=orthogonalEdgeStyle;rounded=0;orthogonalLoop=1;jettySize=auto;html=1;fontSize=20;" edge="1" parent="3Dn1EAEciPxK2AG-_Tar-1" source="20uz0A367yIB0za0_pvE-52" target="20uz0A367yIB0za0_pvE-62">
          <mxGeometry relative="1" as="geometry" />
        </mxCell>
        <mxCell id="20uz0A367yIB0za0_pvE-52" value="" style="rounded=0;whiteSpace=wrap;html=1;fontSize=12;fillColor=#ffcc99;strokeColor=#36393d;" vertex="1" parent="3Dn1EAEciPxK2AG-_Tar-1">
          <mxGeometry x="270" y="525" width="550" height="60" as="geometry" />
        </mxCell>
        <mxCell id="20uz0A367yIB0za0_pvE-53" value="" style="edgeStyle=orthogonalEdgeStyle;rounded=0;orthogonalLoop=1;jettySize=auto;html=1;fontSize=20;" edge="1" parent="3Dn1EAEciPxK2AG-_Tar-1" source="20uz0A367yIB0za0_pvE-54" target="20uz0A367yIB0za0_pvE-56">
          <mxGeometry relative="1" as="geometry" />
        </mxCell>
        <mxCell id="20uz0A367yIB0za0_pvE-54" value="" style="ellipse;whiteSpace=wrap;html=1;aspect=fixed;fontSize=20;" vertex="1" parent="3Dn1EAEciPxK2AG-_Tar-1">
          <mxGeometry x="280" y="535" width="40" height="40" as="geometry" />
        </mxCell>
        <mxCell id="20uz0A367yIB0za0_pvE-55" value="" style="edgeStyle=orthogonalEdgeStyle;rounded=0;orthogonalLoop=1;jettySize=auto;html=1;fontSize=20;" edge="1" parent="3Dn1EAEciPxK2AG-_Tar-1" source="20uz0A367yIB0za0_pvE-56" target="20uz0A367yIB0za0_pvE-58">
          <mxGeometry relative="1" as="geometry" />
        </mxCell>
        <mxCell id="20uz0A367yIB0za0_pvE-56" value="" style="ellipse;whiteSpace=wrap;html=1;aspect=fixed;fontSize=20;" vertex="1" parent="3Dn1EAEciPxK2AG-_Tar-1">
          <mxGeometry x="400" y="535" width="40" height="40" as="geometry" />
        </mxCell>
        <mxCell id="20uz0A367yIB0za0_pvE-57" value="" style="edgeStyle=orthogonalEdgeStyle;rounded=0;orthogonalLoop=1;jettySize=auto;html=1;fontSize=20;" edge="1" parent="3Dn1EAEciPxK2AG-_Tar-1" source="20uz0A367yIB0za0_pvE-58" target="20uz0A367yIB0za0_pvE-60">
          <mxGeometry relative="1" as="geometry" />
        </mxCell>
        <mxCell id="20uz0A367yIB0za0_pvE-58" value="" style="ellipse;whiteSpace=wrap;html=1;aspect=fixed;fontSize=20;" vertex="1" parent="3Dn1EAEciPxK2AG-_Tar-1">
          <mxGeometry x="520" y="535" width="40" height="40" as="geometry" />
        </mxCell>
        <mxCell id="20uz0A367yIB0za0_pvE-59" value="" style="edgeStyle=orthogonalEdgeStyle;rounded=0;orthogonalLoop=1;jettySize=auto;html=1;fontSize=20;" edge="1" parent="3Dn1EAEciPxK2AG-_Tar-1" source="20uz0A367yIB0za0_pvE-60" target="20uz0A367yIB0za0_pvE-61">
          <mxGeometry relative="1" as="geometry" />
        </mxCell>
        <mxCell id="20uz0A367yIB0za0_pvE-60" value="" style="ellipse;whiteSpace=wrap;html=1;aspect=fixed;fontSize=20;" vertex="1" parent="3Dn1EAEciPxK2AG-_Tar-1">
          <mxGeometry x="640" y="535" width="40" height="40" as="geometry" />
        </mxCell>
        <mxCell id="20uz0A367yIB0za0_pvE-61" value="" style="ellipse;whiteSpace=wrap;html=1;aspect=fixed;fontSize=20;" vertex="1" parent="3Dn1EAEciPxK2AG-_Tar-1">
          <mxGeometry x="760" y="535" width="40" height="40" as="geometry" />
        </mxCell>
        <mxCell id="20uz0A367yIB0za0_pvE-62" value="&lt;font style=&quot;font-size: 20px&quot;&gt;包类型3参数配置&lt;/font&gt;" style="rounded=0;whiteSpace=wrap;html=1;fontSize=12;" vertex="1" parent="3Dn1EAEciPxK2AG-_Tar-1">
          <mxGeometry x="900" y="525" width="120" height="60" as="geometry" />
        </mxCell>
      </root>
    </mxGraphModel>
  </diagram>
  <diagram id="hfxft0zdKcSt8eDzF3_K" name="Page-4">
    <mxGraphModel dx="2125" dy="2010" grid="1" gridSize="10" guides="1" tooltips="1" connect="1" arrows="1" fold="1" page="1" pageScale="1" pageWidth="827" pageHeight="1169" math="0" shadow="0">
      <root>
        <mxCell id="JWIEgKZcE3tuxmxvmTAX-0" />
        <mxCell id="JWIEgKZcE3tuxmxvmTAX-1" parent="JWIEgKZcE3tuxmxvmTAX-0" />
        <mxCell id="JWIEgKZcE3tuxmxvmTAX-25" value="" style="rounded=0;whiteSpace=wrap;html=1;fontSize=20;align=center;dashed=1;" vertex="1" parent="JWIEgKZcE3tuxmxvmTAX-1">
          <mxGeometry x="600" y="80" width="240" height="480" as="geometry" />
        </mxCell>
        <mxCell id="JWIEgKZcE3tuxmxvmTAX-8" style="edgeStyle=orthogonalEdgeStyle;rounded=0;orthogonalLoop=1;jettySize=auto;html=1;entryX=0;entryY=0.5;entryDx=0;entryDy=0;fontSize=20;" edge="1" parent="JWIEgKZcE3tuxmxvmTAX-1" source="JWIEgKZcE3tuxmxvmTAX-2" target="JWIEgKZcE3tuxmxvmTAX-6">
          <mxGeometry relative="1" as="geometry" />
        </mxCell>
        <mxCell id="JWIEgKZcE3tuxmxvmTAX-9" style="edgeStyle=orthogonalEdgeStyle;rounded=0;orthogonalLoop=1;jettySize=auto;html=1;entryX=0;entryY=0.5;entryDx=0;entryDy=0;fontSize=20;" edge="1" parent="JWIEgKZcE3tuxmxvmTAX-1" source="JWIEgKZcE3tuxmxvmTAX-2" target="JWIEgKZcE3tuxmxvmTAX-3">
          <mxGeometry relative="1" as="geometry">
            <Array as="points">
              <mxPoint x="50" y="330" />
              <mxPoint x="50" y="230" />
            </Array>
          </mxGeometry>
        </mxCell>
        <mxCell id="JWIEgKZcE3tuxmxvmTAX-10" style="edgeStyle=orthogonalEdgeStyle;rounded=0;orthogonalLoop=1;jettySize=auto;html=1;entryX=0;entryY=0.5;entryDx=0;entryDy=0;fontSize=20;" edge="1" parent="JWIEgKZcE3tuxmxvmTAX-1" source="JWIEgKZcE3tuxmxvmTAX-2" target="JWIEgKZcE3tuxmxvmTAX-4">
          <mxGeometry relative="1" as="geometry">
            <Array as="points">
              <mxPoint x="50" y="330" />
              <mxPoint x="50" y="430" />
            </Array>
          </mxGeometry>
        </mxCell>
        <mxCell id="JWIEgKZcE3tuxmxvmTAX-2" value="Actor" style="shape=umlActor;verticalLabelPosition=bottom;verticalAlign=top;html=1;outlineConnect=0;fontSize=20;" vertex="1" parent="JWIEgKZcE3tuxmxvmTAX-1">
          <mxGeometry x="-200" y="300" width="30" height="60" as="geometry" />
        </mxCell>
        <mxCell id="JWIEgKZcE3tuxmxvmTAX-15" style="edgeStyle=orthogonalEdgeStyle;rounded=0;orthogonalLoop=1;jettySize=auto;html=1;entryX=0;entryY=0.5;entryDx=0;entryDy=0;fontSize=12;" edge="1" parent="JWIEgKZcE3tuxmxvmTAX-1" source="JWIEgKZcE3tuxmxvmTAX-3" target="JWIEgKZcE3tuxmxvmTAX-13">
          <mxGeometry relative="1" as="geometry" />
        </mxCell>
        <mxCell id="JWIEgKZcE3tuxmxvmTAX-3" value="Mas WebUI" style="rounded=0;whiteSpace=wrap;html=1;fontSize=20;" vertex="1" parent="JWIEgKZcE3tuxmxvmTAX-1">
          <mxGeometry x="120" y="200" width="120" height="60" as="geometry" />
        </mxCell>
        <mxCell id="JWIEgKZcE3tuxmxvmTAX-16" style="edgeStyle=orthogonalEdgeStyle;rounded=0;orthogonalLoop=1;jettySize=auto;html=1;entryX=0;entryY=0.5;entryDx=0;entryDy=0;fontSize=12;" edge="1" parent="JWIEgKZcE3tuxmxvmTAX-1" source="JWIEgKZcE3tuxmxvmTAX-4" target="JWIEgKZcE3tuxmxvmTAX-13">
          <mxGeometry relative="1" as="geometry" />
        </mxCell>
        <mxCell id="JWIEgKZcE3tuxmxvmTAX-4" value="Mas cli" style="rounded=0;whiteSpace=wrap;html=1;fontSize=20;" vertex="1" parent="JWIEgKZcE3tuxmxvmTAX-1">
          <mxGeometry x="120" y="400" width="120" height="60" as="geometry" />
        </mxCell>
        <mxCell id="JWIEgKZcE3tuxmxvmTAX-14" value="" style="edgeStyle=orthogonalEdgeStyle;rounded=0;orthogonalLoop=1;jettySize=auto;html=1;fontSize=12;" edge="1" parent="JWIEgKZcE3tuxmxvmTAX-1" source="JWIEgKZcE3tuxmxvmTAX-6" target="JWIEgKZcE3tuxmxvmTAX-13">
          <mxGeometry relative="1" as="geometry" />
        </mxCell>
        <mxCell id="JWIEgKZcE3tuxmxvmTAX-6" value="Mas api" style="rounded=0;whiteSpace=wrap;html=1;fontSize=20;" vertex="1" parent="JWIEgKZcE3tuxmxvmTAX-1">
          <mxGeometry x="120" y="300" width="120" height="60" as="geometry" />
        </mxCell>
        <mxCell id="JWIEgKZcE3tuxmxvmTAX-11" value="&lt;div style=&quot;text-align: left&quot;&gt;&lt;span style=&quot;font-size: 12px&quot;&gt;仓库: git&lt;/span&gt;&lt;font style=&quot;font-size: 12px&quot;&gt;@xx.com/app.git&lt;/font&gt;&lt;/div&gt;&lt;font style=&quot;font-size: 12px&quot;&gt;&lt;div style=&quot;text-align: left&quot;&gt;&lt;span&gt;分支: master&lt;/span&gt;&lt;/div&gt;&lt;/font&gt;" style="text;html=1;align=center;verticalAlign=middle;resizable=0;points=[];autosize=1;strokeColor=none;fillColor=none;fontSize=20;" vertex="1" parent="JWIEgKZcE3tuxmxvmTAX-1">
          <mxGeometry x="-130" y="280" width="150" height="60" as="geometry" />
        </mxCell>
        <mxCell id="JWIEgKZcE3tuxmxvmTAX-27" style="edgeStyle=orthogonalEdgeStyle;rounded=0;orthogonalLoop=1;jettySize=auto;html=1;entryX=0.004;entryY=0.521;entryDx=0;entryDy=0;entryPerimeter=0;fontSize=20;" edge="1" parent="JWIEgKZcE3tuxmxvmTAX-1" source="JWIEgKZcE3tuxmxvmTAX-13" target="JWIEgKZcE3tuxmxvmTAX-25">
          <mxGeometry relative="1" as="geometry" />
        </mxCell>
        <mxCell id="JWIEgKZcE3tuxmxvmTAX-13" value="dispatcher" style="rounded=0;whiteSpace=wrap;html=1;fontSize=20;" vertex="1" parent="JWIEgKZcE3tuxmxvmTAX-1">
          <mxGeometry x="354" y="300" width="120" height="60" as="geometry" />
        </mxCell>
        <mxCell id="JWIEgKZcE3tuxmxvmTAX-30" style="edgeStyle=orthogonalEdgeStyle;rounded=0;orthogonalLoop=1;jettySize=auto;html=1;fontSize=20;" edge="1" parent="JWIEgKZcE3tuxmxvmTAX-1" source="JWIEgKZcE3tuxmxvmTAX-17" target="JWIEgKZcE3tuxmxvmTAX-29">
          <mxGeometry relative="1" as="geometry" />
        </mxCell>
        <mxCell id="JWIEgKZcE3tuxmxvmTAX-17" value="&lt;font style=&quot;font-size: 20px&quot;&gt;解释执行 App/workflow.yml&lt;/font&gt;" style="rounded=0;whiteSpace=wrap;html=1;fontSize=12;align=center;" vertex="1" parent="JWIEgKZcE3tuxmxvmTAX-1">
          <mxGeometry x="630" y="120" width="180" height="80" as="geometry" />
        </mxCell>
        <mxCell id="JWIEgKZcE3tuxmxvmTAX-18" value="&lt;span style=&quot;font-size: 20px&quot;&gt;runner 01&lt;/span&gt;" style="text;html=1;align=center;verticalAlign=middle;resizable=0;points=[];autosize=1;strokeColor=none;fillColor=none;fontSize=12;" vertex="1" parent="JWIEgKZcE3tuxmxvmTAX-1">
          <mxGeometry x="670" y="100" width="100" height="20" as="geometry" />
        </mxCell>
        <mxCell id="JWIEgKZcE3tuxmxvmTAX-32" style="edgeStyle=orthogonalEdgeStyle;rounded=0;orthogonalLoop=1;jettySize=auto;html=1;fontSize=20;" edge="1" parent="JWIEgKZcE3tuxmxvmTAX-1" source="JWIEgKZcE3tuxmxvmTAX-20" target="JWIEgKZcE3tuxmxvmTAX-31">
          <mxGeometry relative="1" as="geometry" />
        </mxCell>
        <mxCell id="JWIEgKZcE3tuxmxvmTAX-20" value="&lt;font style=&quot;font-size: 20px&quot;&gt;解释执行 App/workflow.yml&lt;/font&gt;" style="rounded=0;whiteSpace=wrap;html=1;fontSize=12;align=center;" vertex="1" parent="JWIEgKZcE3tuxmxvmTAX-1">
          <mxGeometry x="630" y="290" width="180" height="80" as="geometry" />
        </mxCell>
        <mxCell id="JWIEgKZcE3tuxmxvmTAX-22" value="&lt;span style=&quot;font-size: 20px&quot;&gt;runner 02&lt;/span&gt;" style="text;html=1;align=center;verticalAlign=middle;resizable=0;points=[];autosize=1;strokeColor=none;fillColor=none;fontSize=12;" vertex="1" parent="JWIEgKZcE3tuxmxvmTAX-1">
          <mxGeometry x="670" y="270" width="100" height="20" as="geometry" />
        </mxCell>
        <mxCell id="JWIEgKZcE3tuxmxvmTAX-23" value="&lt;font style=&quot;font-size: 20px&quot;&gt;解释执行 App/workflow.yml&lt;/font&gt;" style="rounded=0;whiteSpace=wrap;html=1;fontSize=12;align=center;" vertex="1" parent="JWIEgKZcE3tuxmxvmTAX-1">
          <mxGeometry x="630" y="450" width="180" height="80" as="geometry" />
        </mxCell>
        <mxCell id="JWIEgKZcE3tuxmxvmTAX-24" value="&lt;span style=&quot;font-size: 20px&quot;&gt;runner 03&lt;/span&gt;" style="text;html=1;align=center;verticalAlign=middle;resizable=0;points=[];autosize=1;strokeColor=none;fillColor=none;fontSize=12;" vertex="1" parent="JWIEgKZcE3tuxmxvmTAX-1">
          <mxGeometry x="670" y="430" width="100" height="20" as="geometry" />
        </mxCell>
        <mxCell id="JWIEgKZcE3tuxmxvmTAX-28" value="&lt;span style=&quot;font-size: 20px&quot;&gt;runners&lt;/span&gt;" style="text;html=1;align=center;verticalAlign=middle;resizable=0;points=[];autosize=1;strokeColor=none;fillColor=none;fontSize=12;" vertex="1" parent="JWIEgKZcE3tuxmxvmTAX-1">
          <mxGeometry x="680" y="60" width="80" height="20" as="geometry" />
        </mxCell>
        <mxCell id="JWIEgKZcE3tuxmxvmTAX-29" value="" style="shape=image;verticalLabelPosition=bottom;labelBackgroundColor=#ffffff;verticalAlign=top;aspect=fixed;imageAspect=0;image=data:image/png,iVBORw0KGgoAAAANSUhEUgAAAVoAAAHMCAYAAACUbmAoAAAgAElEQVR4Aey9B3Bc5dXH/U6S950MDAPDwEcm+cIkfOENBIMLYGN4DbYDJgQwJRA6MbYx7r333nvvVe4FN7n3Ittyt3rvvXdLtvz/5n9Wz3q1Wskqu0LSHs1c3d17n3rueX733POc5+5/5d8ugm4qA9UB1QHVAdfpwH+pcF0nXJWtylZ1QHWAOqCgVYten2hUB1QHXKwDCloXC1gtGrVoVAdUBxS0Clq1ZlQHVAdcrAMKWhcLWK0ZtWZUB1QHFLQKWrVmVAdUB1ysAwpaFwtYrRm1ZlQHVAcUtApatWZUB1QHXKwDCloXC1itGbVmVAdUBxS0Clq1ZlQHVAdcrAMKWhcLWK0ZtWZUB1QHFLQKWrVmVAdUB1ysA04HbV5BIbJzC5CWmYPk9CwkpWYgUTeVgeqA6kA90IGk1EykpGchIysXOfm3kVfgHGvcaaBlgzJz8pGYkoHI2CQEhcfALzgStwLDcTMgTDeVgeqA6kCd1wHyyj8kEqGRcYhJSEFqejZy8wtrbPE7BbS5+beRnJaFsOgE3AyMxOmrYdh+OgxrjoRhsWcYFu7TTWWgOqA6UPd1YNmBMGw4HoYDF8Jw1S8cAWExAtz0rNwawbbGoCVkE1PSERgWjUu3wrHpRBjGbQlDr5Vh+GFhGL6aE4YvdFMZqA6oDtQDHfhmfhh+XBKGwevCMG9vGDy9wnAzMByhUfHiDq3uxGaNQJtbUCiuAv+QKJy5FoYF+8LQfVkoPpkejHfGBqL1yEC0GhqAN7gN0U1loDqgOlCHdWBogPCq7ahAvDcxCF/ODsHANWHYdioMNwLCERIZh/TMnGpZtjUCbWZ2nliy52+Q/qH4YmYwWg0LwKv9/dC4jy9e7OmDv/Xwwd+666YyUB1QHagfOtColy+a9fFFiwH+eHtMILotDYXHCc4zhSMiJhF8iq+qZVtt0DK6ICouGd4+4VjmGYr2kwLxSj8/gWsjBaveXFQHVAfquQ406uGDJr190XKQPzrMDcLBC6HwDY5CQnJ6laMRqg3arJx8+ARF4uilUHw2LQCNe/uqYtVzxVKLq35YXHqdavc6Ebiv9vdF7+VBuOwTjrCohCpHIlQLtAzlik9Kw6VbYZiwKUjMbDZGFUBloDqgOtAQdYBu0LbD/LDqYDACQqMl1rYq7oNqgrZQ4szOXgvFv6b44UWFrN5k1JpXHWjAOkBD8pW+Phi8OgA+QRGIS0ytkp+22qD1DY7AqSuhaDPCF2rNqhXTEK0Y7ZPqta0OvNTLBx1m+8ukWHR8cu2AlisoTniH4iVGFjTgO5n2Ta+v6oDqgNGBzyb54YZ/mEQf1IrrgKA9rqDVm4zeZFUH3EgHCNrrClq985o7r+5VF1QHnK8DClo3uqvqAHL+AFKZqkwrowMKWgWtPsKqDqgOuFgHFLQuFnBl7naaRq0i1YGGrQMKWgWtWjOqA6oDLtYBBa2LBayWSsO2VPT66vWtjA4oaBW0as2oDqgOuFgHFLQuFnBl7naaRq0i1YGGrQMKWgWtWjOqA6oDLtYBBa2LBayWSsO2VPT66vWtjA4oaBW0as2oDqgOuFgHFLQuFnBl7naaRq0i1YGGrQMKWgWtWjOqA6oDLtYBl4OWvxFmNv442a3AMH17l4svqlpHDds60utb/66vAW14TIKVh4aLFb028YEv/iZUs3IL5KdrQiPjEBAaBb4i8WaAglYHSv0bKHrN9JrVRAcMaMk/cpA/axMZm4iUtCxk5xYIfB0Bt1zQktL8OXG+SZw/wnjFNxz8WfHTV8Nw4nIYDnmFYtPRYJf9jM3Lffzw5pAAtB4WgDYONh5vNTgAzfnT5r30Vx5qojxVyctf0+BPMbca7C/XpfXQALzKXz/WnzPSx3Y3eMJrP9YPB86H4MjFUJy8EoYz18Jw4WYYrvmFIzg8FkmpmcjOI3CLSv0Cg0PQ0ooloYMjYgWwRy6FY/WRMAz3CEOXJaH4ck6Y/LKCKwfXD/PDsfl8Go7ezMKxW6W3o7eycORGJrZ6pWHSznh8Oyccrw/yl586rwo0NG3VrBv+QB1/677Logh4nE2Va3PkZib6r42Wn5rXnzSqmjxV/+qfvKjj5N6bwwLQYUEY+qwKw6RtYdh2ygLdGwERiIpNQmZOXsWgzc0vRHJaJgLCYuB1MwwbjoWh3+pQ/HtWCD6aGoIPJwfj/YnBLv+dsJEesYhOLcSdu/dwt/geiu7eQ+Edy1Z05x6s2917iEgqxNz9ifjHmCCXt8sdB4exYt8fH4ypOxMQEFuAO8WW68LrM88zEa8N8FfZu4FF547676jPNDjenxSMD6eE4JPpIfhufijGbg7DvvNhuOoXJj9JnpWTb4VtGYs2PTMHIZGx4iZYeiAUHeaH4L0JQXhjmD9e7ueHl3r7uvwRqVF3H4zaGIvYtEIU34NsV0LzcD4gRzavgBxcCs5FeNJtFBTdk/NZ+Xex5GASXh+oA96RYtTkWPN+fuiyMAJ7vDOQU1Bsvfndg+XazD+QhNdU7i4fFzW5hprX+dYzDZDGvX3RfKAf2owMxAeTgjFgdSh2n6UrIUwsWxqu9NmWAi2dufTJevuEY5lnKL6eGYSWg/3FB0q/3EeTQtBtUSTGeMRirEcsei6JRLvRQXipp3N9pLagvUfQFgP/mRuO98YHy/bP8cH4aHIIhq6PwbFb2bhddA8c9P4x+ei6MAIv9rTcDMTM7+kj7SuvjbZp6Ou1dYewHXxcZl5u/GzSN+ntK4/LL/f1s5zrYTlnq9CStodN/pLHDpZjm9++XtsyzGdpC8vq5Ytmffzwan8/8ZVKu8rxj1ra6it5TP/ZP35u0sey2fbX1GW7Z33fzwnHzch8eaLIyL0L7+BchCbctt4EFbTOH8S210A///Ly5ZilMfHVzDD0Wx4l/Bu2Ngbfzw7D64P9ZUw16+uLtiMD0Gt5MA5dCMXNwAhxwZYCLSe/UtKz4RcShR2nQvHtrEAZyByszfr6YcCqaBy8likDjI/ytDSjUgqx7Xwa+iyLkjTOUgh70LK+d0YElrEYCKsfF0YgOL4A/CsoLMb0nQkCIraFQOm7LApjPOIw2iMO74wu61p4pa8fvpkVJufHbozDx5NCBEzMz77TkmPeURti5UZDsH47OxyTtsZjgWcSFuxPkhsP87E9tjIgxL6bbSl7xPpYfD4tVCaOvpwRitEesVjomYR5exPl86dTQkTetvltP/NGx/wj1sVg7p5ELDqQhBm7EjBwVTTeHRNkbbPJw7azPWz3mI1xco1eG+Qv7hXmmbEzAVO2x+P9scGl2mzyc8/rwP6O2RInVmxMaiE2nEoVme+6kC7HqAcK2l8eBLbXTT8793pwLL01LABz9ibiYnAukjKLhH+5t4txNSwPiw8k4ZPJFm4w7WuD/DBsbRCu+IbJBBmtWqtFm5N3GzEJKTKLNnJtIJr395WBRotm0JoY8cvRL8qBRevRPDbSb0pLsv+q6ApBUZWLX1nQ8i7TfkKwTIwRtPTjEn7NS/yFtBQvBeUiJesOkrPuoNuyyFIWK9vUamgAlhxOlvNpOXcxZnOctR8sf8eFdCRl3kFCRpFMvA1YHQ3vkFxk5t0VC491pmXfwZHrWeAEHoFIYXMj6JcfS5b6Y9OKsPhwMoauixH3By+W8TOnZt/BSd9sdF8aKVayrawIa94xCcWzftnSjsKie2LF590ulpud5+VMuUYtB/pbocl8fORPzLgDlk/XS/810djulS558guLpc+8SdrWZ/+ZoB2yIQaXQ3IxelMs3hkVhDeGBkg59M8qaJ07qO3lr99/WflyHDMCauWxFPBpjkYfn7KtDCy+J+603Zcy8NHEYDF4OPbeHOqHXadDcDMgHGmZOfdBy1CukIg4bD8Zgo8n3Q/XeW9sEE77ZgtUxGx08I+P7uf8c/D59NAKB21llaYqoP1wQrDMfrPj9qAl9AKiC0Q4hELf1dGWx3+bSQveqdaeTBXrjGVM3hFfyiI+cDXTOhG3yzsDgXEFYjnTuiO8mYd/nBw6eDUTH4y3hLzxAhH068+kSv0FRcUCU1rfhBz9zwQgLxr/6B65EpqLf00JEUhTViyDfZi/PxHJNndR3tguheSU8lGHJd5G18WRVqtaHnUG+AuQCcPkzDs4fisLhLMoyj0gLecO+i6vGLT0QX0wMRj/mc2biJ9cX7qTCGwF7S8LgcqOJ01X/etEY4luS0LWjFXLiC39n4YXJ4VbDQmwGKg9fTB4dQCu+4cjJj4Z/+V93Rfcrtz0x62AMKw5GIxWQ0ussu4+GLc5DvHpFlO5dNH3v3EgM834LXFSSU0vrEPQjrzvOiCAuPHRuPOCCITE35bGZOXdxYQtFovUQMoZoCVQeCejVXotLA/D1sWIL7jfymjwTpZdUCzAFXCtsFj2rN8WtMxPK/ZGRB4YUdF1YST6r4zGPu8McCKPoOXTwaC1MRaruMQ/3HFBOBIziqT+hPQizN2XiB/mhIPuh66LIrHnksl/T0D+zshAsdrtQcuyWQ4nEaftSsCI9TEYtDoa7UYFVXhzZD/4VMO7ND/z2ipoqz9wazo2NH/typ5jeP/lDBl/FYG2uPgeLgXnoP14iyuOY+Wf4/xkUoxc/a+9h06C2+GTXrjhH4rFuzm5ZekMgbflTJpYLvex6vgTB/KmU6kuA+2nU0Px+pAAyzY0AG8OD0CnhRE4cStLLEwKgRDrOD9cHtnZUWdZtAQty6cF2nFBhMw0UuFp7X02LRQnfLJFKEy34EAS3hgcIFCyBS1vRrGpRei8MEImopifAONTwGm/bLmQTLPw0P0ZfObf7Z0h1nJOwV14nE6Vsg30eJ6+3QuBudI+RgT0oL+8j2XijiFXfNpgudwzaoMTW69wgUHJxJ6BZ1UGsIK2dgd7Va6NpnXuteEYE2vWMfasR8mH7Py7+G5mmNVwebmPD676huHKrcD7oD1yykuW1S7YdX/CiKDd7ZVeoclsamJFTMs8Nb3Y9hYtyw6IKcDNiHzrdisyH+GJt+UxnNYiO7lwf5L4JQkPZ4OWdRCI9NcYOHHPkLfVx1KsoF11PAVvDS0LWt6ITvpklwns52Tc2uMpoGuBQORCAHn8oMXeyxfpOXfE2o1LK5IbCyFKS57nuGf+zWfSBKQE/RzPRJGBvUVLa3rKTotbxLS/utdJQVtzHa+u7DVf7cqeoOVcinERGt7Z73mejOgwO9zKPxqsjKm96hOE/9p3+BS4HTl1QSzapXuD0ayvpTME3vJDyeLsJezK++M5WlNM6wrQsl7Wwcdr2Uqc0aY9nKjiJFjb4aXdC86yaM1iiXWnUsRatlV2QmuxZ5I0haBbdcIxaOmX3e6VJoC0BR0vJG8Q4j64B2w6lyoTdATlu+ODLL7jkrvl0RtZ2OaVJpEejPYwm290vhW0ey9nSCyxPWjpw+20MFwsWdv2V+ezgrZ2B3t1rpHmcc414vgMiisQI8jwxtGefOK8yxfT7s9TvdLPR1wHYtGmZ+WAW2JqBvxCIrHmUDDeLPHR8mL1XRkFDlICrrw/nmNjui2JtNK8JhfakUV7PSIPF4NzZONn1snO8XF+3r4ktOhviWUz9RJmzgbtqhPJZUDL+hbvrxxoCUZaovagnb8vCfQv06IlaGkRE5SfzwqzgpZ3S8KaLoScfJut4K64TszN4MC1DOtyZFvXAf3YdBuwXCOj6u4VtDWXYXVlr/lqV/acDFt6NMk6DstjIMfnjosZeLtkLonuvQ8mWHy0QeExNlEHOXmyImzv2RB8O8Piw+NFZajUzgsZYMwYwWZr2PIz4ZBbUIydXuloYRNeVBOFsActHc0fjguWGFS+wOTdUUG4EZln9WvSR/q2XYysI9D2Ky/q4FTlog5WHXcM2kUuAu0Hk4OtF5guhLWnU7DgUKLDbf7BRMw7mIi+q6PEvWFv0VpBW87ihqpcLwVt7Q72qlwbTevca8Nx1HZkICKTCx1OiJkn7cTMIvRebpkfIXvoNpi0NQjX/cPk7V7WOFq+cSYqLhmXfcIwZXMQXi5xH5DMjJs8cDVLgEpymz9+pm/U80qmpGFaZ1xoe9CynnYjgyyz6fSL9vXDoHUxMkvPjkqM69Y4meU39TsCLeNIeYeytShbDw/EhtOWECz2rKLwrtoCLWN7KUveuOjbpcgZTvb93HDpIyfRymwOVq85tGidcI0UtM7Rc6Oruq+78rRA0xefTgtFeFKh+GttECihn4y4GrYhVrjE9NzeGuaL/ecscbSpGVn3LVrzMhmuDNtzNgTfz+SjuCUTM/JtNbP3JcI7OA+J6UVIyijCrYh8DPOIQfMB9yeInKE0jkBruzKMdxlatReCcgRC9I1ywQCX5pr62eamvX3hG5kvdyLCes3JFOuMPEFG6P4wNxy3ovKknLoEWraf/qHAuNvSfi66GLs1ViIdeM5s7EPLAf5oOywQbWxeWagWbd0dvEZHdV9/rhEjjAjbrefTZGKe/ItNLcTuS+n4ek6YcIXXk+OySU8fDF0bYFkZFhErb/KyWrTm/bN8ie3NwHAs3ReMd0ZxHb9FGCyAg5cD+9UBfhJexc88xnPOVJoHgZbn2fHuSyLFyuYdhgH9E7fGyUw8z0uHe/ni4NUsa4gTFxh8Mydc3nFLP+j744JlEs0axF+HLFq2n/KdvCveOtHFGF6GuXHNNa16vkGo/cQQ7PHOFDnQhTN2S5y6DpwQ+eJMfdaynMuHX0Kewr+SMcn3hLQY7C9PnMJAmxhzQvbrGf44ey0UPkF810GmvAzcClq++MDyHtpM8JcULvuGY/aOIHw4zg8v97a8g7G2Ovgg0Jp2vDs6CPuv3A8mPuufgy9mhAqgmIZC4ItnaA3Sz0vLl76WXZfS5V22DN6PTimUx3LCuq5ZtLS6GerF5bN0IXAy7Fp4HuZ6JmHU5jjM3JuIcwG5yM4vlvPszz9GB8nNTy3a+j+4jZ7rvm5fSwPhFv198e0Mf4vLIDAC0XFJyMzOLfv2Llq12bn5SExJR0hErFi2m44Ho+t8f7Qd7oumvZ1vvTpSosqCllEFfVZEyYorQpIhUvM9E+XdACyXAqA/UVZv5VviVGVC755lySxXcm05n4bVx1Msk051zKJlHwjMj6eG4Lx/jrxfgTcE+41+cr6L4OvZYeK7NfnUR1u3B6gj3ddj9euacXzyvTDtx/lh+NpAnLgcCt8gvvw7EemZ2daftill0dKqJWyzcvKQlJqOsKg43AqKwLnroVi4JwgDlgeg82x/fDnFH59P8cMnE5zrm7VVsk4LwrH1XBqOXs/CkWtZaDUooIx7ghbf2yMCMXtPAo7dsKTjC8D56kZTFtO8MSQAq4+mgBYv3ydAKDFSgW/d+XRqiLyZ7PC1LDBOlSFqdEswP/NO3RkPnjt0NVOsYx4zZZv9wJXR1vqHe8RY3s1aAsmRm2LFf3zgSiYmbIuzWtsmL61usxSXfR2zJVZcArxJmDT01b4/IRjLDyfLogdaruwHX27DRRBrjqXg3zNCrX4i5mP+V/r4SbtZLt+61X6Sc17YzpVlXG7N68KyB6yJloUTvEGaNuteZdEQdaB5X1/8e7Ifvprqj++m+ePHOQEYvSEQO0+HSCCBf0iUWLJpGVnIySso/8XftrBNTstAVFyS/KQNY2z5Y2TePmE46BWCA14h2OjC3wwj7F4d4I8Wgyy+EEeAMxdSfCZMV5LWgNKc557gaTcmSJa8Eq58US/z8bjkH2jJz9VWtvl4rvlAf9n42fac+cyXrZi6uVKMdzlzzlr2QH+80t/yUhZzzuz5GkpGGLAMfraFrElDiBG4XHr88ZQQ6ccnU0JkkpIRCI4gx3LYdpZLWTqSiym/qvvKtLmqZWr6+3qjsqibsuBvhnmeD8HhCyE4eTlEeGh+pJGGaXxSqliytpAt9T5afrHdjGVL85fWbWxCMiJjExAaFS/gvcFfwb0UWgoqdV05CB7bra6311H7TPt54zGfHaXTY3VzoOp1qd/X5bOJlkUIvsGRCImMQ1h0vLgJCNjU9ExkZOWUsmQNU8u4DswJ7glbkpmuBBZA6KakZwp4+Uaa496ceKrfglPF1+unOqA6UFkdMD83zjksRhQwRpZc5KQX57cYUGDLUPO5QtCaRAQuCyB0WRh/4ZHmsoJWFbSyCqrpVFcagg4Y0NKSJQu5kYvlAdYwtFKgNYnNnuBV0OrAaQgDR/ugelwVHTCgjYhJRF5BaXer4aOjvYJWZ8qtE3dVUThNq4ByRx2wBa0joJZ3TEGroFXQqg6oDlRSBxS0lRSUO96Ftc9qfaoOOEcHFLQKWrVKVAdUB1ysAwpaFwtYLQLnWAQqR5VjfdYBBa2CVq0Z1QHVARfrgILWxQKuz3dhbbtakaoDztEBBa2CVq0Z1QHVARfrgILWxQJWi8A5FoHKUeVYn3VAQaugVWtGdUB1wMU6oKB1sYDr811Y265WpOqAc3RAQaugVWtGdUB1wMU6oKB1sYDVInCORaByVDnWZx1Q0Cpo1ZpRHVAdcLEOKGhdLOD6fBfWtqsVqTrgHB1Q0Cpo1ZpRHVAdcLEOKGhdLGC1CJxjEagcVY71WQcUtApatWZUB1QHXKwDCloXC7g+34W17WpFqg44RwcUtApatWZUB1QHXKwDvwhoT5T83PiLPX2gm8pAdUB1oKHrwL8n++OGfxj444zl/T6Yo+M1+s2ws9dC8eUMf/x7um4qA9UB1YGGrwODVgUIaMOjE5CbX1hp2NYItDcCwnDdP1w3lYHqgOqAW+jAjYBw3AwIQ2hUHLJy8msHtD5BEYiOT9ZNZaA6oDrgFjpAl4FvcETtgtY/NArF9+7hnm4qA9UB1QE30IH8gtsICo+pfdASsvqnElAJqATcQQIEbbCANr72XAcBoVFyF3cHAWsfVQIqAZWAglZ1QCWgElAJuFgCCloXC1iLVwmoBFQCClrVAZWASkAl4GIJKGhdLGAtXiWgElAJKGhVB1QCKgGVgIsloKB1sYC1eJWASkAloKBVHVAJqARUAi6WgILWxQLW4lUCKgGVgIJWdUAloBJQCbhYAgpaFwtYi1cJqARUAgpa1QGVgEpAJeBiCShoXSxgLV4loBJQCShoVQdUAioBlYCLJaCgdbGAtXiVgEpAJaCgVR1QCagEVAIuloCC1sUC1uJVAioBlYCCVnVAJaASUAm4WAIKWhcLWItXCagEVAIKWtUBlYBKQCXgYgkoaO0E7KofjbT/xV+7al3y1dTpksK1UJWASqDSElDQAtafe75z5y6Kiopw584dFBcXO+0HJPPzC7BnnydGj5mA8ROm4NDho5W+QNVJyLazD+wLt7t37zqtL9Vpj+ZRCbi7BBS0JaANCAzCrDnzMWDgUAwaMhxxcfECW2coSFZWNiZMmoYmL7+GV1q2woxZc10CPlqwhGxEZBRGjRmP/gOHov/AIVi0eKlL6nOGbLQMlYA7SEBBCwiczp33wr+/+g4vNWuBl5u/gcDAIKeBNjMrC2PGTcLzLzaT8qdMm+l08Bkr9sDBw/jw48/Q9JWWeKlpc7zYtDl+6PST0/riDoNC+6gScLYEFLQA7t4txukz5/Dxp1/gf19ogkaNX4Gff4A8clckcOMD5b6iv8qA9kFllFe+sWKTkpIxacp0tGrTDn9t1FT68ezzL4HbN//pqKAtT4B6XCVQCxJQ0FYTtAZwtCS5VQTKikBrW05FZZSnC6z7kvdlgWnjl1/D3xq/jFdea4V/fvgp/vpCEwVteYLT4yqBWpSAgraSoDVA5CRTXl4egoKCsW//Aezd54mTp88gLj4eheVMPNmDdvLUGWItc6IqOiYGR44dx/GTp+RzQUFBlSavONG13mMT3mzzrkD24399BX//QEyfOcdq2apFW4sjSqtSCTiQgIK2kqCl5UhgHjx4BB+0/xf+9mIzPP9i05KtGVq2aoOBg4fDPyAQhYVFpSxce9COnzgF/v4BGDpiNF5u8X/iu6X/ltZol6494X35KgoLC0uV4eDaySGC1mPjFvyz/acYO34yMjIyJe/M2fMUtOUJTY+rBGpZAgraSoCW1mxmZiYWLV4mYKQPlH5cRhC89kZrNH21Jf7WmOBthnffa49z57wEduZaWkHbqKlMTnXo9BN69O4vUQivvtYK3DgJx3K5tX77H+IOIEQf9McbwMlTZ3De6yJycnLEjcEwNUZQPF/iq1WL9kFS1PMqAddKQEH7ANASsnQXHDt+Es1ebSkgJFgJy5Wr1mLnrt2YNGUG3m//KRo1eVXOf/bFt4iKirZapAa0hChh3Kz5G3izbTv82LUHlixbiRUr16D/oKF4vVVb8as+/0ITfPr512JBV8ZvyzRmo7ooaF07aLR0lUBVJaCgfQBoaTFmZWejQ8cuAkGGS/Xo1Q+RkVECYLMw4PCRY3j/o38JaOlS2Lx1uywWIABtQcuohuavv4mp02chLj6hZGHBHaSmpmHCpKkCYU5i0UI+evzkAyfaHF1wBa0jqegxlcAvJwEF7QNAy8f3wKBgcRUQgG3feU8mwXjcWJHc5+bmis+1MV0ALzRB9559kZeXL6C0B+1X33bAjZu3rBBlfgI9PDwCH336hTzy87GfCxsIcp6vyp+CtirS0rQqAddLQEFbCdB6HjwsE1W0RjmrHx4RKWC0vTwE4rIVq2RSjKB9q+27yM62+ExtQctzAwcPQ25uXimAEqacROs3YIjVBdGpS3erVWxb14M+K2gfJCE9rxKoXQkoaCsB2k1btolvlaD97MtvkZySUgqSvGS0cHft3isTWYQpV5dlZWWVsmhppdKPy6gDeyuV3wlrhmU1ecXiC+YKL0YfFKtFW7ujQmtTCThZAm4BWj5489H8/lb6UbyilWEEKEHL0CsB7RffIDm5AtD+/R/iOrCANrsUaE20QnmgZVztxMnTwYUHTPv1dz+UCRWrzPVXi7YyUtI0KoHak4B7gPbePfgHBMky29Nnz8nyWluLkjAtbwkuz2t4FScAACAASURBVHFSyoCWPtTgkNAyFimt0eUrV1tdBx989Jk13KqM62DIcPHf2raBn7ngoVffAVbXQa8+A9R1UHtjQWtSCbhMAm4BWlqyDKP65POv8OnnX2HchMngCiwDOkJyz979EgNLq5XhV3ypDCHLvLFxcZb42ReaoFXrd2SBAPOYP5aTnpGBfv0HWyD5QhP0GzgEfD0iz9mCluXz5TWXr1yV8k0ZrOeWjy8+sEYuNMP8hUuqtErMlKUWrZGE7lUCdUMCbgFaAtNj0xaxSuk/fe+DjyXIn7Ak4Di5NWTYKFlAwPOffPaVvGqQ54qL7yE/P18mqeTRv8mr+K5DZwGl5Xwxbt++jU2bt6HN2+9Z4mBfbAa+RYvlOwIt3QpDh48Wy5hlsH1cijtyzHhZ/MA20IK+fuOmtK+qqqKgrarENL1KwLUScAvQEmYhoWHyPgBCjBNSnGgaOGQ4Ro2ZgO9/+FFWefEcYUpLMjMzSyBJUBKEfHHL62/+Xc7Th/rJZ19izLiJslpsyPBRaNvunwJHApKP/IlJSVaL2Vi0XKzAurma7I233sbX33XAsBFjMGLUOPHHcqUZ62e6Pn0HlnEvVFYVFLSVlZSmUwnUjgTcArSEZUHBbYkKoFuAMOPGxQfmjVeELAH3Y9ee4EvACWfbv9y8POz6ea8VtkzL6AAun2XsLL+zzM4/9RAfsK1rgdEHfA8BIdzi9dYYNGQEBgwaJtBl/db80oam+Ne/v0ZkVHSZNti2p6LPvDHMnrvAYsE3aopvO3SqdlkV1aPnVAIqgcpJwC1AS1EQtlxUwPcCdOzcTSDXqPHLAiO+t4AAHj5yrCxO4Oy//R/By7jYU6fPystjaJHSOjUbX+rCpbTR0TEosltkkJOTi7kLFosP+JN/fYXVa9aL33f5yjVy7MWmlnLeavMuRo2dIMt3CUu2uTp/bOuqNeul7Lff/UD8xdUtqzr1ax6VgEqgtATcBrTsNmFDSzM7O1uA6nngMDZu2iq/4RUZFSW+WEKqPCiZ/FzxlZaWLiu5GM0QHhEhk2G3bxc6tBxZJiff+NIXbvTpsiymZ1tovXJJb0ZGhkygMX1N/ixl35a6WD59zOX1qSb1aF6VgEqgchJwK9BSJAQOQUaLsdRWAWBtRWnJb1/Gg1/+beq1BbntMcbymnPVs2NtW3m/n6bM0mf1m0pAJVCbEnA70NamcLUulYBKQCVACShoVQ9UAioBlYCLJaCgdbGAtXiVgEpAJaCgVR1QCagEVAIuloCC1sUC1uJVAioBlYCCVnVAJaASUAm4WAIKWhcLWItXCagEVAIKWtUBlYBKQCXgYgkoaF0sYC1eJaASUAkoaFUHVAIqAZWAiyWgoHWxgLV4lYBKQCWgoFUdUAmoBFQCLpaAgtbFAtbiVQIqAZWAglZ1QCWgElAJuFgCCloXC1iLVwmoBFQCClrVAZWASkAl4GIJKGhdLGAtXiWgElAJKGhVB1QCKgGVgIsloKB1sYC1eJWASkAloKBVHVAJqARUAi6WgILWxQLW4lUCKgGVgIJWdUAloBJQCbhYAgpaFwtYi1cJqARUAgpa1QGVgEpAJeBiCShoXSxgLV4loBJQCShoVQdUAioBlYCLJaCgtRHwvXv3wK1YN5WB6kC91gGO47r05/agLS6+hzt3i3G76A5uF+qmMlAdaDA6UHQHhXfu4m5x8S/OXLcFLe94d+4UC1wLbhchXzeVgepAg9SBgsI7KCwicH85K9ctQUvIUvAKV73BqA64jw4QuHd+IevW7UCrkHWfgaUQ1WttrwMC27u170pwK9DSP66WrA4++8Gn391LJwjb2vbbuhVoOemlg8q9BpVeb73ejnSAk9+MLqqtP7cBLWXKO5kjoesxHYyqA+6lAwWFRRJtpKB1sgTuqjWrNxmNKlAdsNEBuhFry6p1G4uW8XRqtbiX1aLXW693RTpQm75atwEtfTIVCV3P6aBUHXAvHahN94HbgJZC1YGkMlAdUB2w1YE7d+462UnpuDi3Aa2tcPWzDjbVAdUB6kCRgtbxnaG6R3Vg6cBSHVAdsNcBBW11iVpOPnsB63cddKoDqgMK2nKAWd3DOqh0UKkOqA7Y64CCtrpELSefvYD1uw461QHVAQVtOcCs7mEdVDqoVAdUB+x1QEFbXaKWk89ewPpdB53qgOqAgrYcYFb3sLMGVV5BIXLzbyMnrwDZufnWjd95nOedVdcvUY7pH/vi6v6wLqmvRKamzvt7y/lfQg71oU7KjnqXkpaJ9Myceq97v4TMFbTVJWo5+ZxxEanYhGtYRCQ8Nm3G4CFD8WOXLpg4aTKOnTiJhKQUUXxHdRmoODpXV46ZgRsZHYtbvv4ICgmz9MdFNw8CNTY+CZHRcYiIii21RcXEIzk1Q+oX2dmsUa8r8vql25GRlYt9B4/hx54DsWTFeqRlZNfrm/wvIU8FbTnArO7hml5EQiEmLgGzZs/B008/jUcffRSPPfYYHnvscdk//PDD+ODDD3H5yjWBMeFg6szMzsVF7yvw8Quok1YH28r+paZn4ujxE/jLs8+C/XnllVeQlZPnkjbnFRQJRIePnYIOP/XBDz/1Rcdu/dCxW/+SrR+69BqEGXOX4NpNX2mHkac77XltouMSERIWBeqRrV6lZ2Zj84496NxjACbNmI+wyBirzrmTjGrSVwVtdYlaTr6aXAzmTU5Nx5Rp0wVAzz//Avr07YfVa9dh46bNmDZ9Blq9+abA9+133sGNWz6lLNvgkDD89re/xVutWwvQatoWZ+cnTMMjozF+4iTp35NPPintbdq0KTKyXPNISmDw6WDo6Mn4/sfeGDdtLuYuXoV5S1bLNmvBMhDChEi/IWNw4owXcvJuux1I6BqYOX8pOnbth6DQiFL6w5sjLf+f9x/G1Ru+yM2/f3N3to401PIUtOUAs7qHa6oofIz+/e9/j2eeeQZr128QAHEQ5ORZ/LSBQSH48quv8PgTT2DmrNlITcsQ64Np/AOD8Otf/xpvtGqFrOxcgTAHia11ws88RvikZWRZy+cx+7abtDxnNsLSNp9t2fb5bb8z3eWr1/HxJ5/gqd/9Di1atMTSZcsFtE2auBa0WTkE7SR0+LE3AoPDxWrNzqXv2+L/jopNwKp1m/FD176Yt3glImPirTIzMnDUTx6z3Ux/bfOYz5R3ZnaeyNHkMekrs7eUY/GVshxeB14THi8vv8lj6ubePo+kKSiU8qbPWYz/dOmDgOCwUk9LlnJuI6ccfzrPmzRsV0X9NGlt92wT82U5aF95fatvxxW01SVqOflqogBUvovel/Gb3/wGLVq0AH2YZmAYxSRQd+zchU8+/RQDBg4Sfy3TnDx1Gpu2bMWvfvUrNG7cGEePncDps+cQHBouZZh28bHw+o1bcn7dBg9s3bYDJ06dRmBwaKlBy/qSUtJw9fpN3PTxRXxiMgKCQuB58BDWrffAlm3bcerMWcQlJJXKZ+qx37O88RMmoWmzZujavQf8AoJw8dJlPPTQQyjPoqWVS6izz/blVfY767WAdrJAJDg0QoBh5Gn2Pv7BGDt5FoaMmoSLl6+XyL1IoOsbECwTQUxrWy/BRUgHhoQjKSXdKoeEpFT4B4UiJj4JyWkZCAyJgNelazh59gKu3fITXzHBYltWRZ9Zb2pGFvyDw3Dlug9OnrmAsxcug+2KS0h2KB/Jk54lbTt/6arUfcH7ukCUk1qmL+xDRHQcbvgEYMykmfi+cy8cPXkWN30DEBoRLemYlv3wCwwRyzbXgRxYxk3fQJw+f0nad/2Wn7gYCF3bvvFaxsQlwj8oDPFJqYhPSpFyz3pdxrkLV6QM9sm0zzZvff6soC0HmNU9XBNloHKdPX8Bv33oITRp0gRXrl23WhZG8binj5MQDouIkvME7Suvvoq/vfCCgJZ+XcLrrbdai9XI82xXckoaft6zF++//4H4f5999lnZ//nPf0anzj/inNcFGbSsg3m8Ll7C5//+Ap06d8aKlavQ+ccuePHFxpKHj/3PPfccJk6aJJA2dZTXf5a5YeMmbNy0RdwjBM2ly1fx0MMPo2nTZmVcB3QxMO3S5SvgHxDkECbl1WV7nPUa0Hbo0gfBoZGlbjwmLaEye8Ey9B40CqfOXSwBbSE2bNmF/kPH4vK1W2XyJaakYcvOvQLocxcuWx+pj58+j+Fjp2Lrzn3Y7XkE46fORs8BI9Cj/3BxUcxesBzeV29Wqk9sf3xiijy20yrvPXAk+g4eLWUNHD4Oq9ZvEXjayp+P9rTKd+8/jBHjpooPmnX37D8cw8ZMxs/7DgkwWTahS/8ry6b75LvOvaS/dLWsWLNRgEc40mUwYNg4bNiy0yoH5s/IzhX40+3Qa+BI2VhP975DMWXWQpz18gYn05iWsuZE2s97D2HIqInYuecAtu7aJ7KifH7qNVjauHLdZkTGxFnzmGtUn/cK2uoStZx8NVEGKiMf/xs1aoQnnnhCIg2OHDuOsPBIAZFt2UxrlJeDbPLUaRg4aIiA9s9/fgYTJk7GrNlzcfrMOSs0du3eg2bNmuGFF17A9x1+wNz5CySS4aOPP8ETTz6Jd9q1w7Ubt6RclkmLtU3bv+Olxo3Fwn7/gw/Fih4/YSL6DRggcKdFSsuaEya27XP0OSMr2wpyDl7vK9fKBe3W7TvwQokcli1fgZS09AeW76hOyqgyoKW1OHH6PAwcMR60ANl/5uWg79S9P2hx2ftuCcBV6zdj4PDxYjEa2B08ekrASguRVvLS1R7YsecAtu/2xLQ5i9Dhp74YP2WOWJLmGpbXdsppy4694l8eOX4aNm77GZ5HTmDjtt2YMG0uuvQcKLBlW1gWN8KT7eak36gJ07Fu03apf/OOvdLHHv2GyTFa3gzXogW/ffcB6QctWsKb7T159qKUR6v30pUb+LHHQCxb5YHskicM3ix5A2IfeQOYs2gFdu07hJ17D2LR8rXoNXAE+g8dgwve16xwTk3Pwubte9C5+wC5CcyavwxrPLaJbDZs3omhY+hL74VlazysuuJINvXtmIK2HGBW93BNFSAlLQMLFi4SGD7++ON4/Y038FPXbpgxcxa279yFy1eviWVqBjXr4+DiYODjuPHR8rGbg5TpcvMKEB4ZhW+++Ra0YufMnY+4+ETxi9GVQL8wz9HvO2jwEMnDvARt27Z/Fz/qx598Kt9pTXOAsfzde/aWWMTPwOvCJetgqowMHgRaRiV88MGHaNnydWzeslWs+MqUa5+GsjE+2v906S2P0vQFsn5ulFtsQrJYeb0GjJDog+CwSCu0BLTdHgTacaVAe6AEtN37DcOhY6eRlmm5wbAuWs60MvsMGiUTb7bX0b7t/M7zaz22Yf6S1WI50q/MdkuEyeUbUtaoCTPEJUFLlv09fe6SWIa8AVy76Sd9ZB5eNz7+T5m5QCxYc0NhHXzEt/hoe8tjPdvK40a3CFpavMtWbRDfNtsWHZsgQO3ae4iAn1ELzMe6EpPTsNvzsMB58swFYpWzLAtod8uNY/SEGWLZ0+I11+KMl7fcPLr1HSruCuZxJJf6dkxBW12ilpOvpgpAxaJvlP7Tr7/5Bn/5y7Pix3z44Ufw3HPPo337jzBy1Ghcv1k64oD10s9K/26rVq1KQY9KvGXrNrFMv/n2W/G12raTA+rU6TMSCUB3A+tnHotF2xZPPvmURD5woNrm46Dq0LEjeEOYOHmKDLLKDgyWX5FFyzYcPnIMngcOVdoPbNs285ntMaClpbR+8w55pN7jeQTcdu09iGWrPdB3yGgQjAeOnJR+MD/z1gS0tF7pp7WVCR+daY3y0XrHbk+Rs2mroz3z8kbAzbYcpiXoFq9YJ5bouYtXrGCka4I3lb0Hjpa5JgQq/bE85xd43y/Pazlj3hKxtulzpk6Y9vCcI9BevHJdfNq03OmTts3DtjI+edyUWWLd06fMYwa0nHTbtH23fDf18DyfjOhW4FME22HfZ5O2vu0VtOUAs7qHnaEAVC5ajL7+gdiydTumz5yF7j164u9vv43f/e53Ek9L3+k5r4tipZg6ywMtB8r0GTMlmuG9997DnLnzsGr1Guu2cvUaiWAQ326zZvD1C5ABaizaN99qLS4IU4/Zs1z6bpnvq6+/lrZUdmA8CLQsh2mMVWXqrOqe5VhB27mXBN3TAuvaZwi4ZxA+H2NHT5yB/YeOCxhNHcxbE9Cu8dhaapKM5dJ68zx8QuomcNlHU5+jPdtAGRBQhJmX91UcP+2FY6fOyeP9mIkz0XfIGNASpGuDIGdf6J4wk1m25ZryjFz5neerA9pDx06hW58h4j6JSyx9I2C5vDFv2rFbfMT0xfKYAS3lfuDIiVL953m2gy6cTt36yw3BfuLNti/16bOCtrpELSefKy4+FZaTQ2fOeWHxkqUSGkW40c9KF4CpszzQMv/YcePF78vFD5z84mIB243HGIPLSbjLV65aQfv22+/gX599Lr5bU4/ZExIHDh7GI488AgLcPtDdpHO0fxBoHeWpzjHLgLeEd9H/yAmqw8fP4MiJM9hz4KjMtDOsi0AlpJje1MPPNQHtpm0/g64g2zIpI9ZP0NPfWhnQ+vgFYcnK9Rg/ZTYGj5oo8b6M+eWkGC0/7i2gtTyy05fL8jl7b/ryoH11QMvVYrxJeWz9WaxX237yM8vce+CItHH1hq2lQEvXAK+Bbf9NnqmzFyloy+HLgw7rT9lUYmknFY2WBhXUVgE5SHiOx7igYcnSZfjTn/4k/lZGHphBVBFoR48ZK6D94ssvxZLdtn0HbDdOPjFk6+DhI0hMTpW6aNHSiv7n++/jkvcVaz2mvpzcfOzZu18s2k8+/azOg9beR8vHVA52ThrRb0nfLOVv+keZG9AakOXZXEdOQPH8gOGOfbQ1BS3r54QVJ5s69xiIRSvW4cjxMzh17hK8vK/h2KnzIJQIXdM++kZHjpsmFi3dFqYvD9pXB7R0vdDyXLtxOxKSU0vdUNh2Pkns2OMpvt21m3YoaB9ESSecV9DaDFBHSm9RzDxs8NiEYcNH4NDhow4fmwnbc+cvoNFLjQWcIaHh1sFkC1pbUHMQzZu/AH/6059lYi0kLKLUoGB7WL95nOR35jc+WkZB0FfKNKbt/MxyZ82ZK64MTtjRcrZNY9I62rP8iny0LMd2c1RGZY6xDIvrYDIchXdxOSl9qbQAt//sKeFKplzmNaDlYy77y2PmfHRcAuYvXS1hT4yRNZA2k2E1BS3LY0zrD137ySQdQ7bMYgC2gZNPtHT7DR1rdR2wr3z0ZpiW99WyIWlsP8sgGG0jRaoD2mMnz8mk27wlq8pEULAehn4tXrkeP/UeLL5wHjOuA7VonUBVB0UoaCsBWj5WMnTqqaeewr+/+NJqWZqBbRkkuVi0eInM9jdu3ERcCuZ8UMlkGFddRTEOscQ644BlmNhrLVtKHCzjYwk6lseN52nFzl+wCNu275RjtqClS2HylKnWxRHMw/N8J8PLr7wCxtRymTCPmbY8aM+0FYGW50PDIyVWmP5q1vmgMh2dZ76KQMubA4PsOfDHT50DH/8gaz3MyzjZLj0HCXAJDtMO7jmZxMd2xtlyEYErQMuYV7o2GALFfrBes93yCxLXh9VHWxIlsO3n/eIXXbBktfj6zZJZ5mPsL61MhoaZ8C3KzQrakpVhtqFsPOdoMoyLDgh1WtQMEWP7WBbfL0FZ8CbG6ArK6Potf2m3gtYBHZ14SEFbCdASLucvXMT/+8c/4oknnpRFBDdu+sggoLLTbbB+g4fEwvJlLHyrFwFpABMaHoE//OEPsnx39Zq1YmFS4bnReunWo4dYn4ybpVXMYwRNRGS0+Hvps500eYoMCLZFLNo2bSU2l2Fh9A/HJVjCwoJCQtH+o48kUuHV5s0lUoED2bTlQXsDWvbD0YKFk6fPoP1HH6N58+bYt/+AtPNBZTo6zzYxnIsB+HypjCP3AFcqMdaV/s6tO/eKXAzMvK/dkkUMjAllOBSvA0OsaF0uX7NR8ghobSxaxtEyVMxi0d5fhcX2lfbRVjwZxjZcue4rddA9wXZSbgQalxLPXbRCVrsZ0PI6M094ZKy8v4ETToyqMPl4vWkhM7qCE2Y3fAOsNweWO3/JKrGe12/agZT0TDlHaBrQ2sfR0jKmn/mnXoMwecZ8mbzKzMmTNnKl3ajx0yS8i+FpZtGCBbR7JOqiPB/tNPpou+tkWHX4q6B9AGg5CDlIGKe63sNDLFZCiKFVXLbK9xeYt3lxkcB333eQcC4OEAMYLpPl6i2e52QZFy5MmTpNFJ9l07VAS5nxsnwbGF0CXK7LxREM0frwo4/gHxhcGrRt26Jly5ZSPyMe2IZGL74oVizbx+9Xr9+wDljTlgft2W7GBLMMLqKwt1q5iuy555+XiTZa0+zbg8p0dJ79Jii4Iooz8SF2fljmIaAuXL4us/dMd+nqzRLIWGbOGS7Fx3e+8YsrxwaPnCAW8ISpcyQ0rMyChWOnZIUUw5dsl7uyLoKWftZufYZi4/YHg5Y3wimzFghQ+ZYxhj5xRRhn+wk3vhRHXAeyMs3iX6ZsaaUzZI3+ZwKXbSb8O3UfIOFgXP3GdJSPkcHBknbzDWesa+qcxSIHK2h7DpT+Gp1jXvqpl67aYIne6MGyx0kbCWXKm5YzX0hj6rkP2mE4euKsLIc2102uVV6BuHLYToahmXwmTX3da9RBdW4bFeSpqSJw0HN9/8HDR/Fh+/b4/R/+IODk4zsjBpo2exnzFyyUx3ZjwZg6+Z0uA8a0tnrzLbRr9668l8AMDO45eUarlbG2LJuW6tvvtMP8hYsQG2+xmFge05rJsHfeaYeDhw5j7rz5aNO2rbSDL71hyBlD0DgQqzog2FbGAr/7j/fk5mDv3w0Ni5AVZz/+2AXXblRuuaqRg/2efaHFysD5uJIVVPZpCAyuhpo0c75MkBn/JcOLePNjmNLwcVMFeIQWoxdCw6Ml1GrJqvWloHD+4hVZJXXizIWSG8j9XxiwQOsmZs5fhiMnzj7wBiXwyS0AIThk9GSxBBlVwIgJvtJw78FjWLBsrSUUquStWsxj0YV4LFm1QVZbEZ6DRkzAinWbJD7V6ISRg8nDG86M+UsxfNw0MFKA5TAt32Mwfd4S7Dt0vFSbmY8TdifOeol8ueqMrgK6YfYdOlZGNxjZcfj4acxZtBKXr/uUKYsvrqGVPHXOInn6YPmmjfV5r6CtAJrVOeUMZaByUbk5KDnIGdpFS5MvcOExnuMAsFdCfjcDw1E6+/NMYzb7MvndCtp27cTVYNqUnZtnzeeoHZWRgWkL8zsqw/TDvl2VKds+Deuy3ezP87tte0xak86cY1ss2/23mZm2M419ettj989Z6jJ1OEpj0po901jkYYGeeYsWjzmqn/kseUw+0+6SlYIl8jDlm72px5Rryjbl8bzZTB5zjmnZLquMbNpWJq1NOXRN2J83befe9lx9/qygrQ5NK8jjCmUwyl2biscBcx+078oSW1f0TcssDRqVR8OUh4K2AmhW51RDGSgK2oY54BuKfta3fihoq0PTCvLUNwUor718FLx+85b4SRndwJ/HKS+tHlcoqw5UrAMK2gqgWZ1TDUnhjMvC1lfXkPqnfakYDiof58lHQVsdmlaQR5XTecqpslRZNhQdUNBWAM3qnGooiqH9UMipDjhPBxS01aFpBXlUOZ2nnCpLlWVD0QEFbQXQrM6phqIY2g+FnOqA83RAQVsdmlaQR5XTecqpslRZNhQdUNBWAM3qnCoovKNhUJV4r0NDGUDaD70ZPEgHCgqLcOducXVwUuU8bvNSmdtFdxW0ClrVAdUBqw4QtHcVtFW+aVSYoehOsVXAD7rT6Xm1hlQHGr4O3C66g+LiexVyw1kn3caiLb53D7yD6QBSGagOqA5QB+ifvXdPQeusm4m1HLVqdYApZFUHqAO3C2nN1o5/lgByG4uWnbVYtTopprBR2Li7DtSmNet2oBXYFherC0EnRNSF5KY6QPdhbUPWLUFrYMtHB3e/q2v/1bJ1Jx0oqGW/LFlj/tzKdWA6zf3d4mJw1lHjaxU27gQbd+0rDatfwpI1zHFb0FIAnHFkwHJh0V1xjvOxQjeVgepAw9ABwpVb4Z27tRbGZcBqv3dr0BphMMCD8XQMXr5z9y6KdFMZqA7Uax3gOGZUASfA68KfgrYuXAVtg0pAJdCgJaCgbdCXVzunElAJ1AUJKGjrwlXQNqgEVAINWgIK2gZ9ebVzKgGVQF2QgIK2LlwFbYNKQCXQoCWgoG3Ql1c7pxJQCdQFCSho68JV0DaoBFQCDVoCCtoGfXm1cyoBlUBdkICCtuQqMK6ZK8UY4KybykB1oH7rQG29Z7ayEHdr0JoVYVwDre880HceuOt7ABpyv/k+k9r6XbCKoOu2oOUdTwGrcG3IkNG+3ddvvvOgtn4fzBFw3RK0fCzknU4V8b4iqixUFg1dB/iyIL4D4Zd4+4HbgVYhq0Bp6EDR/pWv44Rt0d3iWoetW4GW7oJCtWTVknfTXxdQAFsAbLFsa+/3wuhKcCvQ6o8zln+n10GosnEnHZCfGq/FVyi6DWhpzWpkgcLEnWCifS1f3y0uhNrz17oNaBnioYpXvuKpbFQ27qYDtWnVug1o+XM17qZI2l+Fp+pA+TrAJ1z+dmBt/LkNaBlHp0pXvtKpbFQ27qYD/FXc2lrM4DagpU/G3RRJ+6vXXHWgYh24c+dubRi07hN1oApXscKpfFQ+7qgDXB1aG39uY9G6oxJpnxWeqgMV64CC1sm3GVW4ihVO5aPycUcdUNAqaNWnrCu4VAdcrAMKWgWtDjIXDzJ3tOC0z6WfXBS0CloFrYJWdcDFOqCgVdDqIHPxIGuI1l1eQaHqTRX0RkFbR0Gbm38bWTl5SE5NR1x8ImLi4hGfmIy0jCxk5+ajPis6+5adm4ek5FTExiUgNj4RSSlp0l+ecyWY8gqKkJ1XIDKkHO23nLwCsA31Jb2h7AAAIABJREFUWb6ulB/lExufhJCwSKRlZLv0WrmyH7VdtoK2DoKWyhwdG49jx09i2vQZ6NixE/712efo1bsPVq1eg6vXbyA9s6ySEw6Z2bkCj9pWpMrWxzYmJKXg5OmzGDV6DL76+ht8930HjBs/QfobG5/g0sHL+m/4BODSlRu4dPkGLl6+Xmq76RuIiOhYpKZnKWztLDbKLjwqFnMWrkCnbv3x8/7DTpERb2zUeZZfWT2qb+kUtHUMtLSw/AICMXDwYDz99NP449NP4/nnX8ALL7yA/+8vf8Fjjz+O1q1bY5/nAbFubZUzNT0THps249Dho3VSaTmgaL3OnDUHv//976V/jRs3Brc//vGPeOaZZzBh4iRERMWIVemKwcQ2TJg2B//p0gedewxA1z5DZOvWZwi48fvwsVOxZ/9hxCYku6wdruibq8ukroWGRwtoew8cKaAlIGtSL6/HLb8gnLt4BdRfW32uSbl1La+Cto6BltZe/wED8eijj6LVm29i6vQZ+HnPXngeOITVa9bi62++FUi91rIlzntdlMdto1RBIWH4n//5H7z51lt1DhAcQLyJLFq8BE888QReeKERZs6ajVOnz+D0mbMYP2EimjRtKvCdOm26uBJMv5y5JxjGTp6FH7r2xYx5S7Bh6y54bPvZui1YtgZ9h4wW4O49cEwsW2fWX9/L4jUMCA7DiTNeCI+KqRFkKQuWN3PeUrkeQSERdU5vnXW9FLR1CLSEkX9gMJ588kn871//ip0/7xZXAOHAjUoZFhGJH7v8hCeffApjx40XHy7z8bxfQBB+/etf441Wraz5aDHYWgkmLctKTE4VK4Kf7dNRwZiWx1k299zoskhMTkFKWoa0h8cqo4wsKy4hCW+1bo3HHnsMmzZvtbaR5SckJWPBwkXS9w8++BBXrl4vVS7zc6tMXRWlYV0EbZdeg3D2gjeycvOlfzzOLSU9EweOnES/IWMwYtw0BIdFWus08sjNd9wOc962neaYRX4WeWZk5Yp/kz54HrdNX1HbzTlTJvPTxUF3UUXlmPS8zvTxp2fmWNPb123Scs+NMqEvNiOLeSzHWJfRmdJtsvSvdF62r2w/TT2ZOXmYPmexPGH4B4VZy+V5U3ZD2Cto6xBoqcBeFy/hN7/5DVq0aIGYuIQygzA3vwBHjh1Hn379xNrlJBLzrVy9BrQEf/WrX+HZZ5/FsuUrsG79BnhfvirnjbLy8ezg4SNYsnQZxowdh4mTJkter4vepeqiotNPvN/zII4eP4GIyGic87qIRUuWYnRJvrXrNiA0PKJUPlOP/Z7l+foF4L333kObtn8Xi5XtNuk4oI+fPI2mzZrh9TfewJGjx63nmIaWPm8MtnlM3qrsWQ9B+1OvwTh/6YoFODa+SLYzISkV0+cuwfc/9sbla7csaSiPuESx5HwDQsr0OTu3AH6BITh17iJi4hOl7SwrMTkNZ85fwvVb/khOzcAZL2/s3HMQ23btw76Dx3Dluo8cZ9rK9IP9j09KwcUrN7D3wFFs2bEXu/cfxtkLlxEVG4+cvPsyNeURxLf8AuF5+AS27tyLHbs9ceTEGfgHhZZ6ImL6iOg4nDnvjbDIGJn0OnnmgrT1wOETJcDNBft/1ssbUTHx1n5GxyXI47+Pf7CkY9kHj57C1l37sMfzCC54XxNXjOlnbkGhyOvIibMYOnoyvuvcC1t37gO/041g0pk+1Pe9grYOgZbKRdA+9PDD8mh94uRp60y8UTzuaV3QOiSICQ4Ovpavv47GjZsIaOl2aN68Bf7+9jtYsXKVFU70jy5eslQsXvpECbW/Pvc8/vCHP6D9Rx9j+85dYlGwDpZ5/sJFfPLpp/j22+8wafIUfPrpZ2j0UmP89bnnxH3x5z//GV1++gneV65Z6yhvQLBMwnLvfk8cOHRY+mX6xDy0kHgDob+WID599px1ENPKHzt+Avr2648r165Ln23zlleno+OOQGubjuUSTHMXrcQ3HXvg/MWr1voIs579h8Nj664yIKClv2nbz+g/dAwuXLZY4yyLwBk4fDyWrFwvUBw6ehIGjZyIvoNHo3vfYRg5bhr2HzqO5LSMB4KW14QgXLdpB0aMm4oBw8Zi2JjJ6D90LAaPnIDlazaKBc4+sk+sn9YzgTx+ymyx4nsPGiV19xowApNnLsDx0+flpse03OgSGDhiPHbtPYhlqz3Qe+AodO83DGMmzURcYrJsrH/IqEk4de6S1ENoEo7Dx07B2o3bJO/UWQvRf9g4eTLo3ncoBo2YgPWbd8pEI9vGvhDA7MePPQcKaCknfudkG9tie13q+2cFbR0DbXBoGOh/5eP1Rx9/jPUbPHDLx08e8ctTNiotJ8HmzJ0voH3uueexbr0Htm7fges371tktHqfe+45tGzZUtwO23fswroNHgKwp373O4H1yVNnRMk5WE+dOYs2bdviL395Fk2bNkPHTp3l8X7t+g1YsGgx/vHee/jtb3+L7zv8UGH7ymu37XGGrs2aPUcmxbr81BWR0bEy0NiO3Xv24dln/4pf//o3YrUThNUdiJUBLS3DKbMWoGO3fmKJsi7KmFDq0KUPVm/YUubGQtCu2bAVP/YYKFYr+8Z8tHK79RmKIaMnCQx/3ndIrM/jp72wYfNO9Bo4UgBFy9lWHo4+p2VmC6x79B+OWfOXSXsIdbZr/pJVIDw379iDpJR0CwClzV4yyccbBK3fY6fOg3XzZtFv6BgMGjlBIMkbHdt76Php8U8T4MPHTcW2Xftx6Nhp6RPdDrTWCWDCl9Yn20nZnDx7AX0GjZK+9BsyGus37cDRk+dw4swF7Np7CCPHTxPQsw3G1REYEi75COjvO/fCzj0HcPLsRXhfvVnt6+tIbnXhmIK2DoGWCsEBS0AShrRM//bCC3jvvX+ia7fuAtJjx08gPiFJrCyjQBwgBIh/OT5anmMkAy3Slxo3xnqPjWLFcHDRz0eo9es/QOr7qWs3GTjMQ9C2bft3mWD7oWMna1iZ5MvOxdnzF/Dc88/LBNbho8fLwMe0r6I9286Bd/zkKbz++uvSvs1btln7x/O3fP3wfYcOaNGiJTZv3W61uisqt7xzBrTio/Xylv6zP3z05xafmALCkNAYN2U2QiOiZdDXDLRD0OGnPjhy/Iw8jbAN3CKj47Bw2Rp06j5ArM7y2myOJ6akS5voP6YFSf8y28WyaDmz3afOXhQ/M+VGt8WwMVPwQ9d+OHzstPhzTd0JyanY/rMnaOGuWr/F+lhP0HbrO1TgfOnqTfHnMg/r4VYRaFnWf7r0FtcEYW/qok7TUibsaRn7+AdZyisoFPkbHy0n2XgtWA/jnU2/G8JeQVvHQMsBQsuBj9FDhg5Dk6bN8Mijj+Khhx4Wa48uAT7Knz3nVebxOzA4VPy7rVq1EmU1CkqFX7NuPZ5//nl06twZQSGhFkUvGTw8f+GSNx5+5BEwL61LHrNYtH+XELNNW7bKMVMm9xwUPXv3xmOPPY6Ro8ZUC4AE/UXvK/jww/Z45pm/YMKkyRICRjmYuljPtRs3JfaWbbM9Z9JUds9+0UdL8E2eMR8r1mzEirWbZFu6aoNMzBCytEBpXXHiiGVz8FfXomXIGB+L7QP82S+6DeiioC/zQX0gvCbNmA9atPTLpqRZwqEoD5bFiTxavQLFknjhTt37Y8T4aUjNKB0XzDwMX6P1yPAqc56g5aP+jHlL5aZgK2t+jolPKteiFbfEkNGIjIkvc41i4hKxcNla9Og3TG4qvA7sL9vN6I8OP/UFLVy2/UFyqI/nFbR1DLRUIiq0sTQZwrXr5z0y8fX5v78Q2D7yyCPiZz105KhYg0bxygMtlZkTZb/73e8EpAT4hEmTLNvESRK7OmjwYLFo6SK4cctHBoCxaN9+p52Ekpl6zJ7l0rXxyCOPirVclUd69pGDLSAoBB999LFYxQxrC4+MKjNIWZ/Aoxoz9KatZm9A+22nnmLp8VGfPkLG1Hbs2k/cBZNnzsf5S1et8DH1Vxe0dB2MmTyrzI2K5fLx+usfustjvWljefuM7Fx4HjkhE3m8GcyYu0SsUk6M0RJn3+gvpWwpL05+0ZrljYSr4XjctmxJV5KWn7kZ0K7xYFRIXqk8PF8RaOl3JjSTUi2uC9u6aDzQV8z20MeroHUyeEqK0xd/28xs2yqg/Wej8Nybc1RKzrgTpAcOHka7d98VKH7w4YcSGWDSlQdaQpsRBo8/8QQefvhhCaEidG03hpTR38oJsstXr1lB+/bb7+Czz/8tvl5Tj9mzXVwcQfAzmqAqoCUIUtMz8Mknn0hcLSfdwiOjXW7RsM20aDt3H4Cdew/iln8QOFNOX+fsBcsl0oA+SALF9JN7ttd1oO0mvlXb+hx9ZhvoDjh8/Iw8gnOBxU+9B8vkFie76P+MjrVEqjDtrn0HJT6V1jL7batTjsrneQNawpB6Y5uHn8sF7bmL0o4lqzaIpW1fPidwDx09JU8SqzdsFfAzjVq0zgWugrYSoKUic0BQ+bi3VVae4+Chv2vzlq0SwsVZ/9Dw+3GeFYF29JixArSevXqL2+GWrz9Kb3646eOHoOBQqx/RWLTv/uMfuHDRu1R7zCD5efcegf5nn39eadCyLxzEvfv0xeOPPy6Q9vHzl/7xnG2/nf3ZgNYSR3vZIuv822A85+lzl2QGnzPkV274loLMg0BLt0BFk2EVW7SVAy1lwVhWRhLEJSTLozbhv3ztRvQbOlYmm9Zu3C7hXxbQHhLQrlzn2KK1ly1lX23QnrWAdv6S1Q4jKMSi9TwqS3c3bNlp1W8FrYK2WhKwV97KfjfwmTtvPr797nts3b7TIXgIigsXL8mkESEVHBpuBZMtaG1BTWVm/CuXuHJSiyvIbIHGzxyYzMM928zPFh9tW4H67r37JI/JZ9o7acpUiZDo0at3GQvIUd9ZPiHLdzg8+uhjaN2mjbSHbTRll8lX0j7mLTdNJW5kpl/2cbQ8znIZ57py7SZ817knNm/fI99Nfaz7xOnzEljPySMjJ5OX8czLV28sN+rAGaBlW1ivkQP3lBv9q0dPncOAYePQc8AI+AXSB18IL+9r6NitP4aNnlzm2rAsugZoIXMz8q8+aC1RB4wuYByykZu5lnRtMFqDE2J7Dx6zxvuyXvXRVgs1DjOpRfsAEFgUP1fiRTnx1a7duw6jC/h4Pn3GTIl9fbV5C3kvgFFmWqNc7PBq8+YIj4iywoAD8vTZ87Kkl7A9c+68gJR1csvNK5C43FGjx2L5ilVyzAraNm0lZIwvgGEcrhnkPM9oBZZHtwMjJXjOtMXRnnVxYE2ZOk0m+Bj7yzJ4zJRr2mSbn+cYN+zrH4jM7Jwyg9g27YM+s92OQMt8rPvKDR8JReLM/tWbftY+8RyD7hmGNGr8dKv8mC8n/zau3fLD6AnTXQpaWrFbdu6VcCta0EZWXKRAl8G02Yvk8Z0rrHiOb37jOwlMmBrbyePS5rwCCdniJB0jHxgBwXM1AS3r+rZjD3kyMOBmmYQ+3TP0VY+dNEsWPJh2GNDy3RNc1MHIjwddw/p4XifDHN4Xqn+wJkpAoNy85SPLbxna1b79R2JVEjKcbaebYM68eWJh8jxXdXEwmTq5PJfg44toZs+ZI2DkIxvL5TZ4yFBxH7R68y15KQ1XfrFsTn7Rx8pFDJw04yCwgrZtW/z3f/+3nOOihYCgYMQlJMqKM65ee+ihhyTW1gws0xb7PcukJcv3Gzz++BOybd22A14XLknUwSXvK5Dt8lXcuOUrPmmWwXy+/gES2sWFHBs3bRYw25df2e9W0PbmyrDSq+ZYBn2J6zfvkMmxhcvXyGowtoEblx336D9MYMpZf1rADLm6dtNP4lg5ocaJNa6aMm2ndclwqfIs2mNVmAxjSNbA4eMkJIvRCow6oDUbn5SK3Z5HBLKM/+UbttheAph+UVq1nKg6edZLHusTU9Jwwfs6xk2ZJRYmV6gZcAto+w3Dus0P8tEOLxNHy6gDrqZjXfsPHZO6KCOuJJsyc4HIlE8DJlqCMuL14GQdZTd30QpExSaUeVlSZa9tXU6noK0+Ux3mrOnF5kDfu2+/LBAgTDl5RXgynpaLGPidiwsY9xoVHWu1uFgvJ8wYUfD/PPWUpOMbsghjA8GomDh069FToPnww4/ITD/LZj1//OPTsiCBE1KWQXo/jpYhX+9/8AH+9Oc/ywQa3yrGdvDlMK+82lwe/QnyivrOMunmaNasmYSREdAsgxsn08zGtvA9D6vWrLXCav+BQ7LqjWFutKyrMulm3yYO7InT5wlgOAHGWXrbNOwHwcl4Ty7T5Yw+87D9PMf3IDBci+FIjFJguBL9vVwwwNVkXO11/uIVa9tpXdLSmzB9npRjWxc/c/EArbltP+8v1Q77dPzO68hwLLoICHS+/IYrqfoOGSNtGjl+ukzq0d/M9Aa2XMTAiTMCl3uCn7P/dDNwSS5hyLTcjpw8KyDnggZHk2GxCUmgz5cw5eIH1kO5MBSOxzgZxrhYhoixHi6i4CIPymzOohUICi29ZNu4OPjGNFrelCtXuT1InxzJpy4fU9A6xGX1D9b0YlPZOeF15pwXuvfoibdat5FlqY1efBF0FTACYIPHRrFwqYxMb+rkdz7eL122Qt7x2vnHLvh5j2XGmWl4nrCV8999j9Zt2ool26nzj9iwcbMskTUKTrjQR/v3t9/GO++0w+Gjx7Buwwb88ENHsS45QcY3btHfa0Bk2uFoz3bSTTB02HD80KkzOvzQ0fHWsRP69huA4ydOWWFBS3LchIlyI7h241al6nPUBiMDzsav9tiGkPCyoWRsJwFz4OgpLF65Xtb9c/KJeS3n8uV9BvOXrsb4qXMwc/5SiV7gozsXEazx2CaTVCY9j68pWZZqZGvbNsawsh76U22PO/ps2sbVZmz/tDmL5aZBgG3f4ynLb81N1eQ3efgOhoXL14KhaxOmzsHiFeukvXz3hW3am74B4IQa38kg19XG5cWyCOWjJ89i7abtuOkXKHnZr5MlUQdLV3uIz/fE2QuYvXCFLLDgKjZa4PQF28uAZfLYdR9/MBphzqKV2LR9d5l0po31da+grT5THeZ0hiIY5aMC0sLlOw3CIqJkNReVn8eZxlFdJq9tOtu0tueZxqSzL5PHraBt105eKMM03GzzsTzb8h21yRwzdduWYcoye740x74ttvkqW5ep09GeZchmAxH7dNY0dnI2x2mJGXmYY7Z72/LMcdtj5jPPsSzuzbEH7SVPST5ph+lPOWWY+m3bbOJt7es1ae2P27bJPg3lYEDL0DjjGmAd9jKyLcf2M8uU9FXQJ9v8df2zgtYhLqt/0BUX3Ci2K8our8zSoH1XfKnlpdXjDWu5aFWvZynQrvGQFWpVLaOhp1fQVp+pDnM2FIVR0Lo3PKuixwraB+uKgtYhLqt/sCoKWpfT0ooODArBvPkL5I1dIWH343Xrcru1bQ8e9M6WEXUlIDhcJvTo22V8rrPrqO/lKWirz1SHOeu7Qmj7ax9UKvOGL3MFrUNcVv+gDpqGP2j0Gus1rqoOKGirz1SHOat6ATS9DlrVgYavAwpah7is/kEdNA1/0Og11mtcVR1Q0FafqQ5zVvUCaHodtKoDDV8HFLQOcVn9gzpoGv6g0Wus17iqOqCgrT5THeYsKLyjoS0VrLiqqoJqeoVafdeBgsIi3Llb7JAXzj7oNq9JvF10V0GroFUdUB2w6gBBe1dB69x7Cu9c9f0OrO1XK1J1wHk6UFh0B8XF95wLmnJKcxuLluLkHUwVVWWgOqA6QBbQP3vvnoK2nHtD9Q8X3VGrViGjkFEdKMJtsWZrxz9LYrmNRcvO8imBAlZFU9ioDrivDnBivLYmwYxZ6FagFdgW31PY6oSI3mzdVAcI2dp0GbgtaBW27mvJqBXr3tf+l4IsmeN2Fq25w3C2sfDOXdzW+Fq17tzUunOXGw8nvhhhQHdBbU1+Gc6YvduClgLghOPd4mJ5lCgsskCXF0U3lYHqQP3XAcKV45qAra0wLgNW+71bg9ZWGLzTEbq6qQxUBxqGDhCuv5QFa8sWflbQ2ktEv6sEVAIqASdLQEHrZIFqcSoBlYBKwF4CClp7ieh3lYBKQCXgZAkoaJ0sUC1OJaASUAnYS0BBay8R/a4SUAmoBJwsAQWtkwWqxakEVAIqAXsJKGjtJaLfVQIqAZWAkyWgoHWyQLU4lYBKQCVgLwEFLVeIlawSY4Azt7u6qQxUB+q1DpjFCrX0ull7rpb57taglSW4dy3vPOCSS3dZ+6391GvtLjrA16LyPdRcIVY7r/guw1g54Lag5R2P66D1RxsVOu4CHXfup3kH7S+1JNctQcu17PoCcAWsO4PHHfvOp9aiu7X38zW2tq3bgVYhq4B1R8hony16L7Ctxd8KM7B1K9AW39NfV9ABpzcad9cBwvYOLVtDwVrYuxVo+aJvd1cy7b+CVnXA/Dhj7aHWbUBLa1YnvhQyChnVAaMD8tthtWDNsgq3AS3fsm4ErHsdbKoDqgPyk+O1FGjrNqDlz1ro4NLBpTqgOmB0gE+4nByvjT+3Aa0uSNABZgaY7lUXqAMFtzkppqB16o1GB5cOLtUB1QF7Hbhz565TOVNeYW5j0doLWL/roFMdUB3ghFht/Clob6uyKXBUB9xVBxS0Tr7NuKsiab8VoqoD5euAglZBq1ES+rShOuBiHVDQKmh1kLl4kKmlV76l5y6yUdAqaBW0ClrVARfrgIJWQauDzMWDrKFZbXkFhcjNvw3uG1rfXNUfBW0dBS0VOS0jC6Hhkbh+4xa8r1yFj58/YuISkJmdW6+VnH3LyStAZHQsrt/0waXLV+DjFyB943FXD+Dc/EJkZOUgPZNbdqktIysX2bmub4OrBnRtlBubkITzF6/ill8Q0jKyXX69aqNPrq5DQVsHQZudm49bvv5YsXIVevXug/btP0Kbtm3xxZdfYvSYsdjneQBJKallrAkCKiUtQ8DhasWpbvlsY1xCEnbu2o0hQ4fho48/Rps2bfDll19h7LjxOHn6DFLTM102eC0yyoTnoePYd+AY9h44WmrzPHwCp897IzAkHBnZuWVkXN1+N5R8vEkeO3UeHbv2w8Tp8+AXGILcGlq2LDMzOw/U+7yChunPVdDWMdBm5eThwiVvfPvd9/jjH/+IRo1eRJs2bfH22++gRYuWeOqpp/DyK69g5arVSExORV7BbSsM+H3chIlYtXqty0BVE2AQckkpaZg2YwaefvppPPPMX/BOu3ZyI3mtZUs8+eRTaN26Dbbv2CWwrUld5eVlG0LDo/DDT30FFr0GjkTvQaPQp2Tr0X84evYfgamzFuL0+UvyVFFeWe54nE8c5y5ewcjx07B01QaERkTXSNfkekREgze4sxcuy9NaQ5SrgraOgTY2PhHfff8fPP744/jk08+wbr0HTp05i3NeF7B3v6dYgX959lk0eqkxjhw9Vkoxg4JD8Zvf/AatWrUSH1pdU1gO0k1btskNpOXrr2PR4qU4f+Eibvn4iZXesVNnuZG8994/4XXxkvUG4sx+0HoKDo1Eh5/6YODw8TLADx49hYPHLNueA0exYOlqdOszFENGTcT1W/7Iybt/M3NmW+prWcmpGbh60w8BweFihdakH7weJ89dRN/BozF97mIkpaa75LrXpI3OyKugrUOg5d3d1y8Ajz32GP72wgs4cuw4aOFSGQkpbjGx8RgwcBB+//vfY+CgQUgSq7ZQFN7PPxC//vWv8cYb/yc+SD6KMS/LNcrCzyyH5UbHxotVzM88Zp+O36Xu3Hxr/XRN2OazL9/UY79nWWzPx598gkcffRQbPDbKTYL1sgy2weuit1i4tOSXLltubTPLYn6z2Zddle+si6D9oWs/TJm5wNoGtsNsEVGxAtuO3fphy469SClxZRh5lNfn++ctbZV23y6S/pk8pq9JKelitRu5M29l+2HqycrJR0papmyZJXpSXjk8Tt9zakYWCEq6RXgDsU9vymY7zcbrxjx8vGcbpQ8lOmGbn8dNmTzOvtGHm5yWIZ953jY9P7Ps46fPy1PFtDmLkJCUai2jsvKoD+kUtHUItFTEc+cviFXaokUL0Lq1VUyj5Je8r2DO3HlYs3a9+GSZb/iIkejWrTt+9atfyWP54CFDxed5+MgxGRjMy7LoXli9dp3A+tvvvsN/OvwgefcfOGhNZ9IGh4Zj+YqV2LhpM/wDg7Fn334MGjxE3BrMN3bsOLFGWf+DlJ11E9JTpk7DiFGjEB0TV6o+lhESFoFu3bvj8SeewOw5c0uVyUmrgMBggXxl6iuvPcxL0NLHSPcAB7q9jJnX88gJ9Ow/HHMWrkBcQrKkYbo9nkewa+9Bh66NqNh4HDx6EqfOXRTLjOm5ESSbt+9BYnIart30xeoNWzB/yWosXLZWjnNSie0or832xzlJevHKDWzesUfKYDnrN+2QR3rK2L4/7HNQaCR27D6ARcvXYcHSNVi5bjP2HzqOkPAogaCpg2n5GM8bDOF6/tJVrPHYhuWrPeDlfU3KDo+Kxc/7DsHr0lWkZ+VIu1knXS3MRx97RHQcdu8/jMUr1mHhsjVYv3knvK/etM4fMD3TsA0z5i1B5x4D0H/oWKlr8/bdCA6LLNMP08b6uFfQ1iHQUvk4A//II4/gf//6V/y8Z6/VojWDh3taf8mp6eLv5MDg9uZbb4nvlqClRfz6G/+Hf7z3T6xas9YKtIioaIwcNRqNGjXC7//wB7zVug2aNnsZTz75JFq2fB3zFiyUslkHyyT0P/ywPT77/HP07tMXrdu0QePGjdHk/2/vPIDjqrIGvfwzU0XZRUFNweKCH36bhcWsYQzs7LDgn2SC4ScMw4JNNDbgiHPOOedsnHPOOecc5CRLsiXLypZzNs6cre/It91qWnK3stTHVa+e+r0bzzv3u+ede+7zSy/Jf5QsKSVKlJAPPvhQVq9d56kjs0FAtATWMBN+mI0MAAAgAElEQVSIs+Rcen7vCtsjn/7zn/L000/L+ImTPOChPWPGjtN7Var+qAOZ9rm8wZzJFwhoV6/frH7bXv2HSfKxEzroydu8bVcFAvD1rXdfeKR07jlABo8YpxBxchw0fIxUr9NUcFG069xbGrZoLy3adZMGzdtL9bpN1bLeve/gPReCKA/retGyVZ78bbv0lo7d+0mjlh3V1TF/ycp0r9+0edeeA9KpR3/5pWFLqd2wpealDfin6d+O3fvkwp0J5+KVq9K+Sx9t75wFy6RFu66ap2nrzrJw2WqVw+694VoXsMYCpV0cQ0eOlxp1m8nWHXukR7+h0rhVR2nRvps0btVJQYpfF7AyadKug4diZMjI8dKoZQd15fxUu5G06thDOnTrqy4byvSVcWH9baAtQKBFiY7GJ8j7FSoobMuVK6cLR1u37VBLFOXkcIrtlI5rGzdtkRmzZqvroGzZF2Xt+o2yZet2iY2L9+Tp07evWrsVPvhQJk6eovfXrd8ogwYPlX9n4e1vZRXulAf48A2XL/+OQvmFF8qq5bto8VJZu36DLF22Qn3J999/v/zXRx8r9IMdGKSnLqw5oiyAOQD/9vvv1VL27t+XlSpJsWLFdBKJPZrWJ3c/mDP1eYPWAcbJ1J2xFqvVaSJjJ0739A2ZsGgGsJyV61132L6DukjUb/AIiY1P0udEfX0HjZDvf64rLdt3k8kz5sqeAxFyIPKw7Ajbr9blD9XryfjJM9WCzEyGlBUVHattaNami6zduFUiDh+RyOhYXUhq27m3TgJYyISwUdax46ekbeeeghtk1PipAiTDI6NlR9g+GTl2ivaFiQErlfS4I5hMvv+5jjRs3l6td0C972CUJKakKvhoNz5VrFUnB/L2GzxSKv9cV1p37CFMLuSjn3sORKrlzmTTqkMP2bZzrz533BiHj8TJjLmLpHaDltKuS2+VCQDGJZKZLLzlXhj+NtAWMNBi9RHiVKFCBSlevLhCrkyZMgrfJk2byew58yQxOSXd6x4KySDk9R4fLYthWL1c4x6A2L1nr3z44YeCS2LJsuW6mn7pym8KudQTp6RHz15a3zfffKv5HGjfLv+O/PnPf5FGjZtIdExsmk/zclq+qMPR8vLLL8tjjz2u4VrkCVTpSdurdx/51+efy0cffyxMDmVffFHdHWF796uP2ZVFH5gY3nu/gtSpW1+t+awOQmSS5qNtIN16D9J6gAuw58CniIXHoK9Zr7ms27RN8H/SFtqcVdBWrlZX3RBpPsg0vzT1bdu5Ry2/7n2HSFTM0UzhwjOlPbxmAzlARX848J8CtuWrN0h84rE7z/CaQgx/9MDhYxSK9IH01M2r+7CRE6Ru49baDmSKLLBiK1erp5MC7oNLXhM8csgUtNXqSfe+g7VsVxfnhORUdVf8VKuRTJgyS+XudJMJA7n26j9U3StuknDPvyicDbQFDLRpyn5FDkZGyZBhw+X1N97QCAQsR1wCTzzxpLxWrpxalATdewPnUAZRBwyq4b+OkKeeekp+qVNHYmKPKjQYANy7eOmKbhxgkQoXAq/33HMW7TPPPCNz5y3QAeqt9ORt0aq1totJABB4t8c7re/flF+nbj1t08MPPyx/+ctftJ+VKn0l6zZs0vpdHsrE94gPlw0bgMLdC/ZMXkD7Q/X6+trOq37X3oPuHAPVGiPEi1d6rNkkLz85bc46aOvJuk3bte3esaJYdD36DVFLOGxfeKZ9Q95Yg4SmtencSy1j+uMO5I9O0E5kRnr6B2jxn/rKjTSAnxAtoM3vNNB2U/ngv/XNg7wzAy3W+aq1mwQXBOW558NC3M49B6Rxy47qG8cHyz3KZ/KwqIOcAZF9jzaIbZ4oKIOFRQWiDHitnjZjptSsVVvBxCt0qVJPyaw58zyLCyhtZqBlEerREiXUv/pDlSq66MTCkzsqV6kiDzz4oLz44osStmevDlJA+86776prYPvO3Z5Bc3fw/CYzZ81WNwe+3GB2rKUN8lMSn5ik7hIW+OrWr6+uA6zuufMXpBuopGdQcuZwbQj2TBlpoK2nVhthXrxWA6MqNRroNWCAZcjilTdosgPaKtXqyZ79EfpK793mo/FJ0n/oKAU8Fql3fd7p+Jt+J6ee1IgI2o0lykr9nAVL5cDBQ6ovWJ9ORkATqxzf59H4ZL8bC0jrLVcHWsonWsBfezIHbX1ti28+fkcejlV/clsmif0RBtqcYWu6Ugy0AYLWDRLObqDxN9YJiwi4B76oWFHhhvXJNlaXLiPQYumwo4zYXOJssY5xS3gfwJvruAJ2h+3xAu17UrFiJdl3INxTj6sP8KxavUbbglviXqD11zfvso4dPyE9evXWdlX98Uc5cjQuW1B1ZXufGfDOdcDOJixlVvFPn70gG7fu0Nd4rCtW9b2fAWUEAtrWnXpKXz8+WkBLTK5vmfhGBwwbHRBoaQP5WZybOmu+NGnd6c5k0UAni1YdumskAM+B3Vo8d/zMP9VuLAlJx/5Qt7dcXNl3QdtAF958gUm6e4E2McV/tAyWM7JhUQx/NmVRvlm06ViZrR8G2gBAi9Lx6sfg94UWA4z7Fy9fEUKxSj/3nAb+AyM3YDIDbfsOHeXhhx+RNm3aSnxCkoIUeLuDQcnBb+oCKs518M6778nmrds99bj6SDt7zlyNi61Y6as/tNmlc2fSnz1/wW8617958xeo1c6mBXbI+RvorrysnCkP0BLeRRwtfeYaB7AdP2WWfPdTHQ1HwqKlXa6ee4GWhSYWgnITtLTFyQodIeZ3xZqNGj1Qo14zqd2ghS54IWv6xqSBRUs6f1tlKcv7yD5o693TosXtwYYH+oLcDbTZYmu6zAbae4AWZWdgsCgFZEaOGuOBnhvonBlAGzdtlhdeeEHDsvBbuvveoKUsyuTepcu/yagxYzVk7OtvvpXIQ4c997hPOiCSeuKkLjRpHi/QlixZUl0EpHFlcmZSaHnHR9u4STO/7XVtIz3gxEfMIhhuEQaZ933KnzVnrlAfW3PZDefScFZL7c6rscsX7JlyHGj9xdHuC4+S9l376K6xXXvDNcjf1UH7ABcr5PGJKelkQbmEhNVr0ibXQIsMkcGZ8xfVl8pvDupmEW/MhGnqApkyc55O1uhKn0G/StWaDWTB0pW6qEV6+uPyJR07IRFRMZ6Ih+yCFst99vwlqsuuLuqjLSwy4uPuPWC4RmVwnbYTd6w+2v62MywdNbPww0AbIGj79Ouvr87lXn9dWH3ntdYNdJSSiAPghr+ViICEpLuug8MxsZ7Xf/y6pHfKvHP3HoUX3xiYMzdtIHKfwcDgJSrhlzp1dVss14AKFi3fWbjvvvt04Soy6rAunHEfNwbbZ9nFRWgYkQyuPtde7zN5doftlZdeflkniFVr1qXzL1Pf0fhEadWmrRQrXlyqV6+h/lvycSQkpci8+Qv1S2YMWq55lx/o37QxM9AyefBaTigSW3FZLXdl00ZiTKv90kQWLV+tMOEe1xOTU3XxDEsZuPmGd+WE64DJkw0Ek6bP0SgBflM/suDvGXMW6SIeIWS8FeGvXbpynS6e0W5cDsiOPCxOMVkQvfDHqINu6q8mZtffM83MdUC0AiFcsXFJd2CbBlPqGjFusvxI1MHU2TpJ0w7K37Zrr8YWs3BHOBrXi9phUQdZmDUyy5IdBUHpsDbfePMt9afyVatx4yfIxs1b1LpbtnylsOMLi++JJ5/UqAQsQ1cnGxIIkWJ7btOmzWTtug0CfCmXo2ev3lKyZCn5P//4hwweMkzvb9i0WT/iwoYHoguGjxipA9cD2vLl1TVAxEKDBg1l0eIlCuCp02bo5gUW0L6vXCVTa5b2ORi0addOJ4nSpUvL5CnTNJYXS5dND7g3SpYqJc+WLq273hxMOXOPyYXNFoSjuXuu74GekQMr3iyA+bNouX8g4pAGzZOG19q0t4M0KABYwqtwEWzZvls/FciOJ3ZPEdQPhP/gOhg8QlfxsZZ9242PdqD6aHvKrr2ZL4YBSUDLR3AI6ufjLnxljNjajVt3CnG0tRq0UB+qW/VnosZFwsRBPC+bCQ5GRSuo2SVGTDA7y1wcLXUQ70tkg+9bh5PxvUDLNyI69+gvm7bukoNRMeqPnTRtjro1OvcYoL5q5Oz0gi+AsYEDF8fyVetl/8EoOX4qvdvG1V1YzwbazKiZhXvZVQSsSzYEfPTxJ7rzil1ijz/+uPotCb8ixIvdWbgY+Nyg98Blt1ifvv2kzPPPCyFTRCYAV2cBkr5Dp84aecB9LNFSpUp5vgjWum07De2iTAdaNiy8+eabUqVqVQU0FjE7wmgL8P3iy4pqibqBk1n/KRfLtFqNGgp1VwbfdcAyZocaMcCEtbFV2JVF2T9Xqy4lSjwmfytbVuISkvxaWi59ZmfKiolNUCtu4LAxfwhDIi/ymjpzvtRt0lp3eaUcTwM77UfG/YeMFELAfq7dWBeb6jRuravpbAjo2L2/DB01Id3OMHZMsSMrPCK9y4a6iGUdPnqidO09MB2A/PVB6z9zTmNjiYzgK2NsXGAHFru8gNWseYsl1Ut25MG6ps24NarVaSq1G7YQ/Ln87jdklOyPOKTyJC19pw/0T+N0/bw5sJDVskN3GTNxuhy7M+mRVzcsVKsnK1Zv0Fha2sTBghwTADvYCDMjrXf/iFOeOG22WrW0i9A6vuTlm847T2H720CbBZhmliW7CoBypb3K75NuPXrKT9WqyeeffyGfffYv+ebb7/RbA4v1e7RpM763MgIRAIWfs03b9tKpc1e1Wi//lraRgPvANu1+OwVe3br1pGOnzrrABkRIQx8caAnvwl+6as1a/XoYliXfOcDNwHcQgB5pvduRmQwon0iJsePHqzsCULNp4dvvvpO27drLmnXr1V3i2kFZlE1sbceOndX6Rj6B1ufbFvLxejp30XIdzN71eKclvnXR8jXC17z4ohT5iH8lPavqi5at1lfgkeOmqE8Sy41V9ZXrNmm5BPqn5bmuv2cvWCr4Q33bTdlAZdX6zVqu733vNjlZsGuKPLg42AbLgV80bP9BXdDzLoO/aXNSynENWeO1nTZjYbKIRjQCi2QuD2mXr9kocxYuu2PJp4cibYhPOiaLV6zVV35cSK5dgBYXyf6Dh1TGfC9i7KQZMmrCVJm3eIVe9/clNOpGXmxcmDV/iUyZOd/jevHtf2H9baDNjJpZuJeTioACYmEAT74PwGsg19ygyKgulyajdN73vf/2Li89aCuoP9Y7rfvbO08wf7v8+BKBPwPWXcuoHO5ndC8/rl/RSaBw+RNzq808G0DLRpDwyLtbgHOrvvx43tmp00CbBZhmliU7DyOjvPkBGF/Q8r2FjNqX3ev50b/sttnyp59g0oM2+p7GQKjJz0CbGTWzcK+oKBDuhrSdYe/J++9XkNwEbVGRWSj3w0CbfuLx1QUDbRZgmlkWXwEX1t8MnITEZJm/YKHMX7hIklKO5ZpFW1hlZO2+Cxf0hUWylWs36dZlfpt87srHQJsZNbNwz5TrrnKZLEwWpgNpOmCgzQJMM8tiimVwMR0wHfDVAQNtZtTMwj1fAdtvG3SmA6YDBtoswDSzLDaobFCZDpgO+OqAgTYzambhnq+A7bcNOtMB0wEDbRZgmlkWG1Q2qEwHTAd8dcBAmxk1s3Dv6vWbFtZSBL++5Dtw7LfBNFAduHr9hty8dTsLNAk+S8h8JvHajVsGWgOt6YDpgEcHML5u3TbQBj9tZJKDmSvQmc7SmVVkOlD0deD6jZvy+++/Z0KNnLsVMhYt4rxm7gObbMyiMx24dkOwZjG+8oizEjKgZW4yq7boWylmidozDkQHrt24KbfzirIioQVa5HrdfLVm0ZhVG9I64KzZnHMM3LukkLJoEQc+mes3LQIhkFnf0ph1WNR0wEE2bzyzdwEccqCl67wyXL9pUQhFbRBZf2xiyEwHWKPJq3Cuu4hN+yskQetgi9Dx1WT2cOyeDV7TgcKtA1ixbEzIq1AuX8jyO2RB64Rx+/bvOsvxIAj34KHYYTIwHSjcOoD1ynqMA2xehXE5rvieQx60TiA8CFwKgNcOk4HpQOHXAcZ0HgYWOJT4PRto/YrFLpoETAImgZyTgIE252RpJZkETAImAb8SMND6FYtdNAmYBEwCOScBA23OydJKMgmYBEwCfiVgoPUrFrtoEjAJmARyTgIG2pyTpZVkEjAJmAT8SsBA61csdtEkYBIwCeScBAy0OSdLK8kkYBIwCfiVQMiDloBmNircuv273Lp1W3eJsTXXDpOB6UDh1QHGsm460U0Lef0JmT+yNqRBy4Nw3zvg/w+yPe0mA9OBoqUDd79zwC6x/ANuSIIWcfOBCb5tYAOraA0se572PP3pgANuXn7s29uuDTnQAlmsWATv74HYNRuopgNFVwf4PGp+wDbkQIvvxiBbdAeSQdKe7b10ID9gG1KgxSdrkLWBeK+BaPeLto6wHsPnE/PSYxtSoLX/L6xoDyADpD3fQHWA79Xm5YfAQwa0WLOBPgRLZwPWdKDo60BeWrUhA1qEaoOn6A8ee8b2jAPVAf4bK+Ln8+JfyIDW/m8wG4CBDkBLFxq6wnpNXrkPQga0tiEhNAaPQdKeczA6QKhnXvwLGdAGI3xLa4PVdCA0dODmzVt5wdnQ+V9wbeCExsCx52zPORgdYO0mL/6ZRXvNFDMYxbS0pi9FSQcMtDk8zRQl5bC+GOxMB3JGBwy0BloLR7O3DdOBXNYBA62B1gZZLg8yswpzxioszHI00BpoDbQGWtOBXNYBA62B1gZZLg+ywmyJZdT2y79dk4uXrwrnjNLY9buWvIG2AIL2ytXrcunKVTlx6ozs3X9AVqxaLQsXLZb1GzZJ9JGjcvb8xQwVnLyFScFdX0+ePitJKamSeuKUnL94WXKzH5R9+uwFOXXmnJw87XOcOSfnLlxW+eZmGwrTM/Jt64VLv0l4ZLTMX7xSdobtl7PnLxUqnfPtT178NtAWQNACmo2bt0rLVq3lX59/Ia++9pq89PLL8vbb5aVylaoyYuQohZKvgmBdHDt+UoCW772C+psJ5XD0EWnTtp3UrFVb2rXvIFu2bs9wIsluP4AnoJi/eIWMnjBNRo+fmv6YME2mzZovq9dvkcSU47nWjuz2Iy/ynzl3QTh86zp55pxMn71QfqrdSAYMHS1HE5L/kMY3T6j/NtAWMNCev3hJlq9cJe++95488cQT8lq5/5Svv/lGvq9cRT766GO99j+ffVa6dO0mySmp6UCQfCxVKlf+QTp26pKrFmFODppTp89Kn3795eGHH5biDzwgZcqUkQkTJ6lFn5P1uLIA7bkLl6Rj935SpUYD+aVRK2naurM0bZN2NGrZUa81bN5eho4cL0fiEtPJ2JVTlM/IiEl73qIVMnLsFIlPPJZOn9QQ2LJT+gz8VeYuWi6pJ04baO/hfjLQFjDQJialyAcffiiPPPKI1KhZS1atXiv7ww9KeESUbNuxU4YOGy4vvvSSPPXUUzJv/gKFBoOewXEoOkb+/Oc/y+uvv66g4lpGQOCe95FROt/r3nkyK983n7/fDObde/ZJmTLPy/94+mm13J8tXVrGTZgoFy//lmHb/ZUV6DXazKtuh259pWa95jJt9gLZuWe/7NxzQI/tu/fJyrWbpF2X3lK1ZkOZOXexnD57Ph1oAq0rs3RX7jyzzNIEcu/K1bRnH8yzSKubfHd9iN51URby79FvqFqt+8Ij00023D915rxEH02QlOOn0t3zLoe/SRtM21z+tH75b59LU5jOBtoCBFoUEqgWL15c/la2rIIVhQdIHLxmHz95Wjp07CRPPvmk1KxVS32a5Ltw6YocjDwkf/rTn+S1cuXUj8s18ngrOn9TJlZJbFyCJB87LhcuXvabjrTkJz1nV/+Ro/GajzJol3f5gSo/+fCRfv75F/LvTzwhzVu2kh9//Emee+65DEFLPVmpy7tN5Hegrdu4tWzZEab98sj4t2sqm+Wr10v9pm3V2uXV+PJvaXW7dP7awjV3/7JXWz3X7jxHXBf4hrEEaQv3g+mXq5vnga85JfWknvmdUVmubaShTvIg/7Q8d+VKOq7xbLv1GayTzZ79EapflI0svcsiLb99ZUxa9IZ66KdbOMsoLek5KO/ilat38p3y5PMuvzD+baAtQKBF0TZu2qJW6SuvvCopqSdU+bwVizSRh6Jl7rwFsmTZcs/C2Fdff6OuhX/7t39Ta/jLLytKlao/yvSZszxlkJcFp+49espn//qXAhnrl7wTJ01RJXcDgXP4wUiFer/+A2TP3v0ydtwEqVixkpQr959S7vXXpUqVqjoZ+Bts3m329zeDcOCgwfLII4/Kz9WqybYdu6RW7V/UdeDPoqXtWOxAPiv1uTbQL0DTsVtfqdukjWzbuecPoCBtXGKKuhewasMjD3vqXL95uwwfPVF27Q3/Q74z5y7K0pVrZdT4qRIdG6/3qe9gVLQMGTFOlq5cJ7HxSTJi7GRp37WPtO3cW3r0HSJLV6yVE6cC96szgUYejpXJ0+dK554DpG3nXloedewLj1Iouv66M/JmAYu6u/YepHm69hooYyfNkLB9B/XNiLYi57kLl6nvtV7TtlK5Wl0tu/+QUTJjzkJPn/YeiNSyNmzeoYuHrh7KQA5r1m+Wnv2Gaj3t6Ge/obJ4+RqFO2lceupbsWajumkiDx+RLdt3S++Bw9PydektA4aOkk1bd96pt/BauAbaAgRaFHBX2B558KGH1DWAr9LXaiQNoMHP6KIPUNZ33n1PgDOgfeihh+TNt96WTz79p4yfOMkD2sMxsfLTTz+rn/fREiXkk08/VWA++OCD+ureomUrrY86KHPj5i3qxvjkk0/lq6+/luf/VlbKln1RXn2tnDz9zDPy17/+VcE4Z94CTx1uAGV0dmXTFnzQuEF27Not0UdipfYv/kFLHiIv3njjTXn++Rdk1eo1Adfn2w7KCgS0CUnHpFP3/lKlRn2Jio7V+pAJroZfGrYULF5+e5ePlQrIGjRrp/DiPvVt3LJDqtVpojDBN9yoZQfp0mugNG/XVarXaaI+4VnzFquVS3rvMr3/5h7ABIytO/aQWg1aSLO2XaRrn8HSskN3qVW/uTRp1Um2bA+T8xeveKCIvuzac0Cateki1es01fo79hwg+KNpF9fXb9ou5+68oYyfPFM69OgvNes3l8o/19X7tBso0wb6xWJhvSZtZMacRZ4FM+5hvfYfPFL7VLtBC+1jm049hbcH2jdo+BiJPhLnkR1tY2KqUbeZTJg6W9vfvF036dpnkDRu1Umq1mwgzdt2lTUbtsglH3l7y6ag/22gLUCgRVkSk1Pk/33xhRQrVkyeeeYZadCokaxctUZf1RlkKKYbwE65+B2fmCSbt25X18Err7yill9CUopaENznaNW6jVq7lSp9JVu27ZC4hCR1Hyxeulz+o2RJhfv4CRM1LfWs37hJypd/R8H93HNlZNCQoXIwIkrzECnQqHETuf/++xXwhGVlBgnXVtLgqsCKfuCBB2TIsOEKdyzV2r/U8WvRkmfAoEHy2GOPqVyGDf9V5eDKDOZMWYAWHy2Df+vOMI88uceBrPaGR0qr9t2lccuOaoVy7dKVazJ5xlypXrepLFm5VtN5141VOmzUBKnTqJWCzcl93aZtUrVGA70+cNhoXWADSPFJx2T+ohVSq34Ladm+u/qIyeNdpvfftO3YiVMycNgYBdmUmfO0jNSTp+XY8VOycOkqwQrt1KO/JKakekAbl5AsLdt1kxr1msmUmfM1SuDYidPar0nT5qivGqsz4tARhRkuBV75sZYBHeDGF4tflvagGyvXblTQE6GB+8JdnzprvsIb4EcfiZeU4ye1bbwV9Oo/TO/RbgwF8uBS+HXMJPmxZkMtb/mq9ZJ07ITQJ1w2TFw/VK8v3fsOkaSU4xnKxltOBfFvA20BAy1KHHnosHz55ZcKlWLFi+tq/NNPPy1fffW1jBk7To7GJ6hl4xTKwSHqcLT86c5i2MXLVzwAocxNW7bKW2+/LW+99Zbs2Lk7nd8Vy3jc+Alyf7Fi8vHHn+pAcqB9u3x5hXfnLl01dMzBnvunzpxVi5jX//ET0iIFaItrl78z+SZNnqrw/uLLimoNAZfYe4AWCxiwk4dY4syA5K9ed432OdACxM3bd+mrNn7TtOOKxMYlSb/BIzUqgddzwpnIly3Q1mwodRq3lqPxSZ7Jkj4QQgZMsE5Xrdt0T6sNS/VgVIyERxxW8FEG/mPOycdOSJeeA9QSjTmaoNe4jvWNC6Rbn0EKuLQ8aZPvqbPnZeTYyfJz7caycetO1QvuIwvcGj/WaiS4CXhu7tnyty9ouUffiOCoUr2+RB464vGvUh56g6+X6I62XXrLngMR6UD7U61GwiR0/OQZT7uph6iPVh2660TE5OeeY2E7G2gLGGhRWBSTWNh5CxbKx598Io89/rgukGHlcrAQNm3GTF0NJ61TukPRRzxRB97XUfL+AwdqvgYNG8nhmCPqdgCwZ+/ESoZHRMqDDz4k//jHK3I0PlEHlrNoeV3HH+wGmquPcjt37abQrFO3ngLLN41Ly5k2RR2O0TqKF39AIqIO6zXyZAZal5eBx0E5mdXjXafv3+RzoK1crZ5CqVGLDtK4RQfhjJX7Y62GakXhy8Sn6urKDmix2Lr3G6LAceXRNl7XZ89folBfsHSV9s+3zd6/ycuBHJD/BY5LV+T8pSvqG8UvirvjUEzaZEQ6rHes2S07dqvsfMtzcqV/rnzKvht1ECUs7rl8pPcHWix3wuXIh4y9+8nfWOPjJs+U6nWb6RsB5TmLlphcfLW4ylw95MGyHjBstL5ZbNq2y3PPpSksZwNtAQMtioOCARM3mNiEsHrtOmnTrr3877//XfCpEnc6asxYOXMu7XWOfBmBloHYtVt3dRsQgwu8v/jyy3THRx9/rJYzPthdu8N0EAPad959VzErm60AABAsSURBVD799DP1HfsqNYNx7rz56gL48MMPPf5d33SuT7wuYpU+/PAjushGfjcY7wVa0nkf/uoI5Bpl3AVtXXUDYGly4HsFsvgtx0+ZKUnH0m9YyBZoazWUkeOm6Iq66zPt5RkvWLIyDbRLAgMtMMJiXbFmg0yYOksG/zpOeg8Yrot3uDWqVKuXDrT4UvGXYql71+3k5StXfmcFtDPnLVZ5Tpw2R8HvXRd/s+OOjSIssM2ev1Sh6UD78y+NZceufVqvd7twsQwfM1FBi8Xt7hW2s4G2AIHWKbw/i41ruAOwNn+uVl2tSHaL4Wd1SpcZaNlxxeIV8bnPPltayjz/fPqjTBn5X2XKyD8/+0wOhEekAy0+4z37DnjqcfUBiRUrVytoATUA8B5cLh1nru8O2yulS5dWX/CeffvVso6JjROOLdu2yw9VqgouEqIcWBzDqs+oPO+yg/mb8hxonesAa5DJCN8gr/HAdubcRX+oPyDQjvTvo6VMQIvMvPuUHrQr9X5G/XFtx5rE8q7dsKWwsaJJq47Ssn03jQ4gNviH6ulBizVLWnyc3nVnVk92QDtv0XJ1PfjWBWi59+2PtWX6nIUe0I4YM0kUtLszAu0kA22AnLL/YeEeO0dQSmDKotDe/eGSmJx+Nw73ORgAK1au0kUjFoeAlBswmYEWH+ujj5aQ5i1aKJwZ4P4OB3nuOdcBq/0bNm721OPqoy2Tp0xVC/ubb7/LFLSU26FjZ7XE2Wzx3vvva0QDmzM4ypcvrwAmhrhs2bICuGfOmiOXcnjjAjJ0oPW3GIbVRFQAAGPzAn10/fWAtk5TDVWiT+4eZ6wvQqz8LYblBGh5JhGHYrT8Fm276qs2rg22ydIW+uXPddC0VSdd8T8YGe0XtPSLfiIb+uH0LFjXARAF6kwovpMuZbLIxmIZC2zzFq/QurBoDbQBUjSAZAbaAEB74dJl6dajp7z+xhvSs1cfOX8hLZjdezAzIJYtX6HW5+OPPyFHjt4FLZEA7AwrV66cDj43cBigk6ZM1R1Yn/7zMzlwMEIHprvPmYHB9ZgjR3WgeYMWoE+YODnd4GFgs2OK7xNgKWMxew9W7za7wfvriFHy7rvvyf999VU9Xn31VXn11df0eOmllxTCxYoVV6uWTRe0mXaQ39Xnguxd233ruddv8gGkjOJoWV0n3AgLi28hsGruyqQNM+Yu0ntTZy1I5wag3KjooxqjiguCcCrSc+C7zAnQ8ozYtUbbWKnHCqdedxw5mqhWLav0d3201xT+LHYRmubyuD7x+0DEYVm3cZsuprmyeJYK2lqNPKFqLg/PxJ+Pdve+cN3kQTiWW9RyeZAD7WPbLr5w5wYw0AZAzyCSGGgDAu0VGTl6jFqIL730sixeslRSvQY6yn/gYKRuzcVHS5wslq9T5uiYWF00wyLcum2HDnLuMXjYwkt6oEl4FGFkKD/3AOaCRYvl62++lQGDBus1B1o+ZHPffffJt99+J1u3E5yetsjBa/30GbOkRIkSUqpUKY25pTzXFn/nuPhE/RpZ2N594nssXLREKnzwoZQsWUo6de6iPmF2rbmBj+U+avRYbV9MbPajDjICLX0I2x+hAfN1m7SWHbv3pYP91h1huoLfvc9gIWyK9pEHsLDvH2sWf2hugBYobtiyQ36q3VgXiJJTT3gmIazp2QuWqJ/Z20dL21hEwu9MiNfuveEe2AJuttcS00u7uUd6+gQA2ThAtMLq9Zs9usRzzQi0LK727D9UQ9mWrFirIVru+Z04fVbDz4ilJaIDS5yyDLRBUDSApAbae4AWpUPJAUrFSl+pL/Xvf/+7WorslMK6GzR4iHxf+Qd57LHH5YUXysqUadM1asBBLT4xWb9zgB/2u++/FyxI4mUZGJQ9euw43XRA3iZNm8mo0WNk7Ljx0q17T11kK/viizJtelpQugMtcbTAtHTp5xS2/QcM1BAzXBEsrD30178KGx14xWdQubb4O7tBR1t8j4jIQ1KxUqW0LbjjJ6Szjsk3cfIUBTofniGUjPz+6rjXNco6e+ejMiwSbduVfmeY3j9/Sb/gxWvw4F/Hqm/TbcEFGK069NDAf9wEy1dv0Fd4gu279x0swDm9RXv9jkXbSEaN9++jJf6V12nOyD2jPtBndpyxSQG3BxsIgODKNRt1UQy3ASBLs2jTNgXQH4CK7xn/LbvIWHxjwwEfjWF3GHG8fMUsMflu7C11TZo+VyMYevQborvatt7ZRYerAcuaCWXarAWeOFryIE82QHAPmZBu9brNMmXGPN14QKgWbeatgn7SX9pW7ZcmOqlhTLj+03biabHeG7fqqBOGu1fYzrYYFsAsEUyS7CoAC147d4dJteo1dLfWA3ciDIAd/sv//uij6t9kOyzfq0UZXZ1EILCbjHhZdl0Bx779Bnj8jKQfPmKkvr7jdmB3GKFibFYgaoAP1riNBw60RB1QXpNmzTTN008/o6/47D5jMa5xk6b6FTHvdrj2BHMmThY3BHG7s+bMTQccyp6/YJFujODjM1OnzUh3P5h6KAurvN+QkWnxnPsj0snQlRUZHav+TnZvbdu5Vxd3uAdkNm/frZsCqtVpqh9dAXqtO/bUXVJDRoyXNp17yb6DUWmTydXrCgg2PvDqjly9ZcVvwpoatuigZ367NvieyQegABVbeIm9BZ7sRGOTAtt/+wz6Vf3LLo6WMsjHQti4STO0bTXqNdewNvK3aNdVxkycLodi7u7WcnnYEcfkQcgWkw4bDigLoLKTrEW7bgptB03yYXWvWb9FevYfplYybg52mLHdmcgIXBRs0XV9o78T2RHWurNuH+Y7B+4edbEJhCgG+ofP3N0rbGcDbTAUDSBtdhUA5UJZiTdloalHr95qMWKB8jGZ4b+O1O+1+vuiFAMAH+ba9Rtl9Jhx6lcN27PPY/1xH9iuu3O/d99++r0BLGYs3zNnz3vSMgBceBcLV2vWrZfNW7bp9w74VsKAgYOE131e7ymXdmen77giCGGbO3+BAF3KdOVRNh/TmT1nnvbJuT3c/WDOlEXf8CfyQRleuf3l5xngQuDbBoePxHnA7p4P3w1YtnqDLFy2SsOs2BZLzCf+TtwLWGKk5WAHGK/8UTGxf5AT93mNXr9lR7qYXX9t4hrpz5y/qCAH0IuWrVZ/6f6IQ8LmAzYXrN+8QzczkNaVgzzpK5sGlq1ar/kID9sRti/DL3CRB1/vmg1bdRIAdJTJwbcgNm3dJdGxCR7ZuPYxGSEz8mE9L1y2WtZu2qbXkKtrE2feFJDlhi07PTLzvk9ECBs0tu3aq1Eh3vcK098G2gDgGUySnH74QIFVZUDEK2BOl59ReelBW0F9vhmlteuF92Mn9uzy5tkZaIOhaABpi4riGmjzZgAWFX2xfmSuLwbaAOAZTJKionC8NhI7++5770uFDz6QrdsL766covJMrB+Zw6wgy8dAGwxFA0hbkB92MG3DD4c/N2zvfg3FwnURTH5LW3ihYM8u55+dgTYAeAaTxJQ055XUZGoyLew6YKANhqIBpC3sCmHtN6iZDuS8DhhoA4BnMElMSXNeSU2mJtPCrgMG2mAoGkDawq4Q1n6DmulAzuuAgTYAeAaTxJQ055XUZGoyLew6YKANhqIBpC3sCmHtN6iZDuS8Dty8dTsAemQ/Sch8VObq9ZsWBhXAB3RsMOf8YDaZFkyZXr1+Q24ZaLM/i3iXcP3GLQOtgdZ0wHTAowPXrt+UW7fNovXmZLb/RqBmWRRMy8Keiz2X/NABjK/ff/8922wJpICQcR0gzms3zH2QHwptdRpIC5oO4ErMK/8sIA4Z0NLZm7d+F/wyBe2hW3vsmZgO5K0OXL9xM8+s2ZADLVYt4RwG27xVaoOIybsg6QBvtnnlm3VuhZCyaOk0PhmDrQ38gjTwrS15p495uQDmIBtyFq3ruME27xTbIGKyLig6kF+QDVnQ0nFgSwwdK4/mSjAYFBQYWDtyXhd14evmLbmdRxEGzqDzPoec68C78w64t2//riuQOMjx39hhMjAdKPw6gIuQyAIAm4+MVeSEPGi9wYuVa4fJwHSgqOiA9+jO378NtPkrf6vdJGASCAEJGGhD4CFbF00CJoH8lYCBNn/lb7WbBEwCISABA20IPGTroknAJJC/EjDQ5q/8rXaTgEkgBCRgoA2Bh2xdNAmYBPJXAgba/JW/1W4SMAmEgAQMtCHwkK2LJgGTQP5KwECbv/K32k0CJoEQkICBNgQesnXRJGASyF8JGGjzV/5Wu0nAJBACEjDQhsBDti6aBEwC+SsBA23+yt9qNwmYBEJAAgbaEHjI1kWTgEkgfyVgoM1f+VvtJgGTQAhIANAePpokRxKOyYVLvwX8H8T+t6x8Cf7K1esSER0nkTEJ+v92hYB8rYsmAZOASUCu/HZVDkbHSWziMbl05Wrug/ZQbKJExMRrZSZ/k4BJwCRQ1CXAh+TPX7wsBw4dlbik44LBGaihmmWLNi75uJL95Jlzefr/qhf1h2n9MwmYBAqmBPi/CVNPnlXuJR8/lQegvXZDTp+7IOGHj0pMXLK5DwqmXlirTAImgRySANYs/tmoIwnC2/ypM+cDtmaxerNk0ZIREzo6LlkORsdLyonTcvv27RzqkhVjEjAJmAQKlgRu3rwlyamnJPxwnBxNSpWLlwNfCMsWaC//dk1OnDqrfloof/rsBbl161bBko61xiRgEjAJZFMCuAzgG75ZrNkTp88J/AvUP5st0JL53IVLkphyQiKi4yXqSJo5fePGTfPZZvPBWnaTgEkg/yWAu+D69Rty8sz5O4xL0Lf3C5euBAXZbIMWqp85d1Hik49rQyKPJKh5TUOuXb8hN2/dMujmv75YC0wCJoEAJQBcsWCvXruu7lEMSSxZ3tqTU0/K+YuXgrZmsw1aCiCWjIWxxGMnJDouSeNrMa/5nXrqrJrcZ85fFDtMBqYDpgMFXQdg2fFTZ9OMx5h4NSDhWsrxU/oGH6zLAEbmCGgdbM+ev6g+W6xbFsnYzEBUwv6oWDtMBqYDpgOFQgcOHIrVBS/ezgFsQspxOXH6bLYgm2OgJXAXy5ZIhDPnLmjDiDOjkXFJqXaYDEwHTAcKhQ7EJ6dKQsoJtWBZ7McCP3/xSpbcBc6azTHQugIdcPHRslCGlQt47TAZmA6YDhQWHYBb8AuOYUAGswPMsdD3nOU4Wt+CvH/TMHwZNNIOk4HpgOlAYdMB+JUTgHVczBXQusLtnOYINzmYHEwHQlsHDLR3VgVtIIT2QLDnb88/N3XAQGugDTr4OjcV0so24BVFHTDQGmgNtKYDpgO5rAMG2lwWcFGcna1PZnWaDgSnAwZaA61ZM6YDpgO5rAMG2lwWsM38wc38Ji+TV1HUAQOtgdasGdMB04Fc1gEDbS4LuCjOztYnszpNB4LTAQOtgdasGdMB04Fc1gEDbS4L2Gb+4GZ+k5fJqyjqgIHWQGvWjOmA6UAu64CBNpcFXBRnZ+uTWZ2mA8HpgIHWQGvWjOmA6UAu64CBNpcFbDN/cDO/ycvkVRR14P8DRRSKyQp+nkEAAAAASUVORK5CYII=;" vertex="1" parent="JWIEgKZcE3tuxmxvmTAX-1">
          <mxGeometry x="950" y="-10" width="186" height="247.28" as="geometry" />
        </mxCell>
        <mxCell id="JWIEgKZcE3tuxmxvmTAX-31" value="" style="shape=image;verticalLabelPosition=bottom;labelBackgroundColor=#ffffff;verticalAlign=top;aspect=fixed;imageAspect=0;image=data:image/png,iVBORw0KGgoAAAANSUhEUgAAAV4AAAGOCAYAAADfFWs1AAAgAElEQVR4Aey9B3AcVdb3/by1uxS1W1tQFLzwwgsPux+8LA8Gg8GwwJJzzjnZBpxwzjnnnHPOOecc5BwkK6dRzsGykmXLkv9f/c/4jlujYGk8GoU5U9XVM9190+lzf/f0uef2/NfFS4XQTWWgOqA6oDrgOR34LxW254StslZZqw6oDlAHFLxq8esTj+qA6oCHdUDB62GBq8WjFo/qgOqAglfBq9aO6oDqgId1QMHrYYGrtaPWjuqA6oCCV8Gr1o7qgOqAh3VAwethgau1o9aO6oDqgIJXwavWjuqA6oCHdUDB62GBq7Wj1o7qgOqAglfBq9aO6oDqgId1QMHrYYGrtaPWjuqA6oCCV8Gr1o7qgOqAh3XAreDNL7iMnPwCZF7IRfr5bKRmXEBKRpZuKgPVAdWBOqED5Nb57Dzk5l8CeVZdTyduA29OXgFSM7IQm5iG8Kh4BIXHwD80CudCbLqpDFQHVAdqvQ6QV+RWRHQi4pLSkJ6ZLQCuDvjeNHg5KmRk5SA6IRUBYTHw8Y3CukM2LNhtw/StNkzZrJvKQHVAdaD268CMbTYs2mPD5iM2nAyIQnBknBiSfILPd7Mr4qbAS+imZV5AWFQ8TgdGYe1BG4ausqH9XBt+nWrDdxNs+Ga8bioD1QHVgdqvA99PsOG3aTZ0nm/DuA02bPSx4WxwFMKjE8S4dKfle1PgpT8kJDIOx/1tmLndhnazI/HF6Ai8PTAMr/UJxcs9Q/BijxC82F03lYHqgOpALdaBHiF4qUeIcOvdwWH4ekwEOsy1YfFeG84G2cS4zMzKcZvP12Xw5uYXSGVOBdgwe3skfhofgZd7heDZzkF4sn0gHm8TgAZ/BOB/WuumMlAdUB2oGzrweJtANGofKBx7vW8ofpsSgbk7bfALtiEyJsltPl+XwEsXQ0JKBnyDo7B4TyQ+HxGKxp2C8ETbQIWtDjQ62KoO1HkdoNHYsF0gnuscjC9HhWGzTyT8Q6OFe+6IdnAJvIxgCAyPxckAG34YGyoWrlq3dWNEV8tL75PqQOV1gFyjBfzLhFCc8LchNCoeeRdvPszMJfCmpmfBLyQKE9aHSaUUupW/kar0KivVgbqlA+Rb446BmLwpXCK3uD7hZifaXAJvdFwyfINt+H5MEB5XP26df6xSENQtEOj98uz9atA6AE+0CUCLKcE4FxIlIWYeB29+QSFCbHEy0/dWf/XpaifwbCdQeau8a0IHaPV+NCgIfsFRiIpL9rzFS/AGRcQIeDkK1IQQtEyVu+qA6oCndeDV7oHwDbJJXG+NWLwE75kgm5jfnm68lqcdTnVAdaAmdIDgZUwvF1TUKHgbqsWrFr+GTqkOeIkOvNpNwavK7iXKXhOWjZapFnVZOqDgVejowKM6oDrgYR1Q8HpY4GWNfnpMrSLVAe/SAQWvgletHdUB1QEP64CC18MCV8vGuywbvd96v8vSAQWvgletHdUB1QEP64CC18MCL2v002NqFakOeJcOKHgVvGrtqA6oDnhYBxS8Hha4WjbeZdno/db7XZYOKHgVvGrtqA6oDnhYBxS8HhZ4WaOfHlOrSHXAu3RAwavgVWtHdUB1wMM64HHw8j+GzMa/vTBvJ9OX5HjXiK8Wnt5vb9YBj4GXkOX/qyWnnYctNkn+yt0/NArnQmzyWkgFr/d2RL4YWv/yyXvvvzcCuNrBS+s2O/ei/KNmUHgsTgdG4aifDQfP2LDvlA07jkZiq0+E/IV7ddwA/rncS91C8Cr/575n2dvL3UPwXKdgPNnO/i8Y/HuO6qiL5mmXKyH7VDv7fXmnbxi+GBGJb8fY8PHgcPD3C12D0VD/ZVp1sB73w2oFL6GbmZWDyNgknAmKwt5TUVi0x4b+y21oOTMS30+wyR9c8r/Wqgt2X4+KxIID6dh17gL2+GeX2nafy8ba4+cxakMymk2OBiH8eJtAVfpqUnpC99+dg/HrpGgs98lEdOolXLxcjKLiq8i7VIyIpALM25eOL4ZHCHx1sFIjoD7qQLWBl9DNyMpBWFSC/JXxyv029FgUiW/HReDTkRH4aFgEPhgSXu2dq82MGIQmFuBK0VXp3NxfvmLfCq9chWMruoqUC4WYvTsdnwwJ10ffagCvge6Q1UmISrkksue9yLlYhIycKw4A857sD8zBN6Mi8UQb/S+++ggeb29TtYH3Qk4+bHFJOO5vw/zdkWg+LQLvDQ7Hy71C8HSnIDS89lhf3Teg7cwYhCUVoPgqcPUqEBh7EUdCch3bsdBcRCQXSKfnNfmXirHKJxOv9AhR+LoZvnTl0NJNz7ki9yMrr0juw4K96Zi4OQXrjp1HfEahY5AkfF/sFqL/Pu3m+1DdfU7zv/FTSrWAN+/iJSSmZOJMUDQW7Y5Ek4lheKlHiMCWPtcPBoWj+ZRo9F2UgAFLEtBhVizeHxiGJ6rBr0fwhlvA221BPN4bFC7b+4PC8cHgcHSYE4uNJ7NQUFgscI5Ju4QeC+PF2qIS0VJ7vA3/ljlQtrL+ht56Df2TzteUSN/mWp5/BIjF/3THIDzTMUjaL24Xp7+5l7z/KFm+KY9lMe0zHYIkL5ZTkeLTpcMy2Bbei8adgmRP2TvX2eRjL8vedmOBmjwIU+Zzo3KZ1/NdgrHqaKaANbegCJtOZuGzYRHiW2c7/t0lGCPXJSP1gh3MtIabTYlW14+Ct0KdNnpal/ZuBy//OTgrOw/BkXHYdjQSv08OEzCw8z7ZPhAtp8Vg3Yksefxnx6IVmpxVKODrsSBernWnAK3gpUXbdHxUqZtI6Hw+PAL+sRelPpcKr2LRvgxHXejzbT45Gv2WJKL/kkQZOJwhRfhwkojXDFiaiO/H2GSgYVvY9p/H2dBnUYKc/3JkpEDym1E2DFqeiMlbUjFla6p85+M187LKgGV9NTISva+l/2mc3Tf+xYgI9FwYL+mZx6BlifhujA1Pdwgqkb5EXm0C8OnQCHSfH4/xG1IwdVsqxq5PBmX/MV0/7UqWzboTtr0WJkjbme75bsF4rXeoDJgj1yRj1NpkfD0istwyTflv9ApF6oVCcflwMGw9I6bEUwXL4gB9Lipf7gPdQmM2J0v5Jg/dVzywqnzqhnzcDt68gssSMnbsnA2jVoXh310CZeKMnbfl1BicjswHwSaP/gCucrsKsYLi0i+j37IENOoQ5LbJtsqAl2BjxMOaY+cddVl15Dye7xosMKE1tvF4FtKyryA9+wp6LI4XcFonBJ/rHIwha5LkmszcIkzdngZasuwIBMqsXWnyGM08xmxOkQHIJzgX53OLxOdcWHQVF/KLcDgoF21nxQo8mY7pKbvRG5IlPX2h8/eno83MWPGDJmYWOvzUfHSn66T7wnixHq2dkHkRyP2XJmCffzYSMi7jcuFVuRec3GI+u/2yRf6v9Qx1QJTpaNXGpl0WFwF9s21mx2LRwQzYUi6Ja+Z87hUMXZnkSGMt1/qdFu+Sg5lYcigTo9Yn4/U+18vhdSyLbT0dnue4D5O2pyh41eK9oW5Z9awufHc7eHPzCyROd8exSHw/Ktjx+Ppmn1CsPXoeBYVEbdkfWjiBcRfx83hbCUvoZgRZWfC+6gTe1UfPi2XHshn6tNc32+F7HLgq0RF6ZurGx+TRG1PkGrZu/t50B3gJ9oX705FbUIwrxVcliiIg9qIAMyHzMpLOFwpomI6z+z4hufhudKQ8vhPuBP/kbSng4zkHqb0B2SInPjEkZl5GStb19BzQguMv4nd5RLeD2wBt2OokKYvXcPALSyzA8fBc8YHTt83jrE/PxQkOq5l1pwWenV+E4mK7D3zL6SxpC+vCLftiEYavvjF4+eRAi5bbv7sGi2vFyI971vPNvqEIiLE/eXAw6rb4usvHeq1+rxuWnd6nsu+TW8F70jcQp/yC4B9iw4aDEXi99/UZ6Q6zYxGZfEk6d9nYtXdiWn2Tt6Y4gH2zN64i8LKjcyPYPh0WgYA4e4fPKyjGrJ1paNTebrG6C7wMlyLcEs8XSthUnyUJaDUlBm1nxGLRgQyxeCkbQo6QpIVaFnj5uE5rc8DyRLSaGoN2M2Ox7HAmMnOvoLj4KggsWsj037J9hOe3YyLFaiXYGUUwc2cafp0QJZEDhPSi/Rn29FeBkxF5+GqEHfzO4OXAwegPDpBjNiaL+6PbvDiJBKnMvTIy5975erZ33KYUeaqgnDigvNUvzG264Fye/i59D1QmnpGJW8G7acd+bNtzCH7BkVi1NwJPtbveCPoTaaHd6MOOvd8/x22dzRm8bWbE4oXuIfatRwhe7BGCr8fYsOVkljw204JjlEPHObGOR1x3gpf507JvPTNWfN4EEH3MnOhbezxLXC88zxjXN/qElgleugbojjADAye2PhwcLn5ygpVSXuaTidd7hwp4+fi+YH+6yJ95bzuTBVr4hKqj/IHh2HrqgtweWr8DViSicccgucZq8ZqnkuZTo/Fs5yC7VX6TK8/MhF/7WbEIji+QgYPl9Fte+slCwXC9T6ks6q4sqgG8hwW8K3eHl4Dn1C2pjsfpiuBLMJ0KyyuR9mYUzApeAsmWfAnnoi86Nv/oixL1QNgQWtyv9MmUGXhjlbkNvAXFYpHSzcBIBJM/94Tb0NVJdvAWX8WGk1l4d0BYKfDycZ8hcc92skPRyIYQHrEmyT54AKA74L0BdmuRYA9PLJD2MXLjD4F2oLhLnmxr3z/dPggTNqYg/3KxDAwLDmQ44GwFL58Gpu9MLeGDNnVwdc/60eo+EZ4nLhDG8dLfriF9dRcsruqCt6RzK3g37zyAbXsOwzcoAmv2RaBxp+sz5ENWJIKTPwRreR+eulRYjI0nsqoFvCyX5RNestFHaakM67dwfwbe6R9W4jHYXeClj5dw33QqS9wbJZTsjwCJemB9eA3BS3A6uxp4jvGtZnmzyYPukr6LE8CJPeZBq5YherSG3+gX6vADE2qcXFt9NBOrjpTcTkfmSTwzrc19Adl4/xq4reDlRFrb2defBkz5ruw54NDq/nVSFI6H5ToWUGw9kyXLhwlkV/LVNArs2q4DbgXv+excpJ/PRnBELDYcisAbfa77eJtNjoJfdL5AxcK6El+NX6/rwniHNXizAixh8V6beOKEErcTEXlSH8KY/lf6OV/oEuxwMZiy3Q3eNcfPlwZv6wD0XhgvA8ONwEtwlgVehqtl5JQEL90Mn4yIQNqFK468Cy4Xy+RY7sUiWDe6MOgfpkvoQFAOPiC4nSbX6EduMT2mUnG7Rn7l7Vm3JuPt0GWZHBS2nb2AT4faVzSaJ4Ly0utxBWxd1QG3gvfipULk5l+CLS4Re05GosXkYEcH5UTPjB1pMoFE0FktTX7nMc60Hw7KkWgCd3U6Z/C2nBItvkv6L/nOAANfQp+z6e8PLuki4Y2tLHjHVDKqwdPgfWdQmMTPUsaE26JD6Zi8I6XMjeFbE7enoOuiOLzQzR6VYrV43QFesXTbBOCHsTZxLxC6HGx2+Nqhq5auArWuArWy9XY7eLlqLSElQ16KM3NzOBp3tCsRLSeGEC08kIGs/CK7pXnN3iX0aIXRx/dK71C3uRkoBCt4WU6z8VGSP+vDx/OmU6IF+DxHV8OMHaliTVoF6AzeQatLT/ow5nfc5hQJF2OzKgon8yR46WrgoJeUWSgRFbRqm0+LkTYScKU2szrPsrrO3eCl3L8dFSlPHYzCIHh3+V2QVWy8L+4adK33UL8rzGuTDrgdvOaNZFy5tutEJFpNCcETbe2diR2KEQWDViXicHAuEjIKZXloRNIlDF6TiOe6Xo/7dZeQnMFrXbnGTt64Q5D4M2lxcTtjy8dnwyNKdH4+1u8+a4/jJaDXHMuUyS0+KjMPxqdyNdix8FyZPKtV4L22KOFoaJ5MmvGpYtzmZIergveEG9vCV2O+3jMUr/WwvyaT7WL73AVelkPofjMyEsfCcqU+tMD3+mfjm9GRUicOFCW2MsLO3KUbmo/CuKZ0wO3gpbshJ+8i4pLSwBedL90djg8HBuGJa+8QYOdjx2JHf6ZTEF7qFSKdkcd4zt2CqAi8LIvlfj4i0r5A4JrVO317qoRqmfoQFgv3ZUj8Kx/XGWv825RoWe3G10i+0y9Mwq/MAofaBl62seeSeDAigYMLV6ExhI4ryRg7+2ynYLw3MBzz92XIYghGdkzamuJ2VwPlyPjgI6H2AYp1OReTj87z4vBevzC82y9M3sfLd/Ka7Y1rIXHu1gvNz/19TWVaeZlWC3jtVm82ouLs7+GdvTUcnw3li1zKfxFLdd20G4GX5RJASw9niAVGsPrHXMSvU6IdK6s4SLSZGSOhaMYyTpL3S5zH8iOZOBicIyvCrAtEao2r4ZpFy5jbg0G58iIgPtqHJBRgyo409F2eiBHrk7HbP0dcLZxcOxedj+9H22RwdKfF+2LXYGy/9uRAvz7L4qo9/5h8+EaVve0JyCk12VlduqL5Vh4cKqubk1W1gNc+yVaAtMwsRMYkwj80WqIc2s8Iwdt9AvF0++qxbstShsqAl5bYd2NtsvyW4GWEw9JDGXi1V4hY4LR8n+0SjHl702VVFeHL67jxO1eC7fTNxsj1yQLv2mbxUi5sw5v9QrEvIAcMCaPLxLqZdnPQ4Xsg+EIjs7DBXa4GujESMq8vb6ac+DGytO6lbsVAdNqlMiNAyrrXeuzmYKDy85z8qg28tHrpciB8o+KSERAWI3/5M2dbGLrNDcHvE4Lx3YhgfD08GF8Nu76YwN03n2/7Ymzubt9s2T4ZHF7KnUEoMYxs6OpEuWaXbzZm7krDJ0OvX8tr+FauiZtSJY6WMa/cDgTmYMG+dHw9OhK/To7GzrPZ2OOXjV6LEgRebA/T9l4cL6vjdp3NxuBViY5oD2t7OfHHF9Ww/GFrkvBKTzv46SroNDfWnt43GxO32F8cw3xNel7z64RobDiRJeWPXJ8kCyCcr3m1d6i8CW3vuWyZzGQbTkXY27HkQAaaTYp2vKfB1J0D0+aTWSIb5v/lqEiX3EKU8aqj56WNlNGNNsqCK/j4xGHaqfvr91xlUXdlUW3gpdVL+Gbn5iPj/AXEJ6UhIjpBYnzp+z0VYMOu4xHYdjQCm30iHD5gdysTZ+3pS+bEHbeKQpV4zlz3XJfgUq9nZN0Isjf6hoKvdiSAaEWKdciJo3aBYDrmYZbzmvbwGlrN5eXL6yT9tXryZfGc3CqVvmuw5ENr1Jwze5Zhyueb0Qhjc866Z75cKv3xsHB8NSoSn4+IwGt9QqX8svJlm6Xu18pmOdb8KvudbgtTP4ecr7W3vN8st7L563Vl32+VS+2TS7WC18CXlu/5CzlIy8hCYko6YhJS5A1m4dEJOBcShTOB9CfWPuGUp7AEkXUr77rafNzUnzA032tzfbVudad/6L268b2qdvAa+PJ1kbR+s7JzBcK0ggniwPBo/Xv3MqxXVd4bK6/KSGVUV3XAI+AlfA2AucCCEKYVTBAHhccoeBW86k5QHfAqHfAoeA2AzZ4+4KAIBW9dHbW13mpxqg64pgM1DN5CBa9aOl5l6SioXANVfZObglfBp+BTHVAd8LAOKHg9LPD6NnJre9SCUx2oug4oeBW8au2oDqgOeFgHFLweFrhaB1W3DlRmKrP6pgMKXgWvWjuqA6oDHtYBBa+HBV7fRm5tj1qjqgNV1wEFr4JXrR3VAdUBD+uAgtfDAlfroOrWgcpMZVbfdEDBq+BVa0d1QHXAwzqg4PWwwOvbyK3tUWtUdaDqOqDgVfCqtaM6oDrgYR1Q8HpY4GodVN06UJmpzOqbDih4Fbxq7agOqA54WAcUvB4WeH0bubU9ao2qDlRdBxS8Cl61dlQHVAc8rAMKXg8LXK2DqlsHKjOVWX3TAQWvgletHdUB1QEP64CC18MCr28jt7ZHrVHVgarrgIJXwavWjuqA6oCHdaBWgPdskA1PtgnA47qpDFQHVAe8QAde6xEI3yAbwqMT5B/YzR8Au7L/r6omyi+w/9mlb7AN340JxtejdFMZqA6oDtR/Hfh9cjD8gu3gzbt4+abg6zJ4/UJs8A2O0k1loDqgOuAVOuAXEoVzITaE2uJxISe/ZsDLCsQlpemmMlAdUB3wCh2ISUxFUHhMzYLXPzQKxcVXcfWqbioD1QHVgfqvA4VXriAiOgGhUTVo8RK8VDb9qARUAioBb5DAlStFiIhR8HrDvdY2qgRUArVEAgreWnIjtBoqAZWA90hAwes991pbqhJQCdQSCSh4a8mN0GqoBFQC3iMBBa/33GttqUpAJVBLJKDgrSU3QquhElAJeI8EFLzec6+1pSoBlUAtkYCCt5bcCK2GSkAl4D0SUPB6z73WlqoEVAK1RAIK3lpyI7QaKgGVgPdIQMHrPfdaW6oSUAnUEgkoeGvJjdBqqARUAt4jAQWv99xrbalKQCVQSySg4K0lN0KroRJQCXiPBBS83nOvtaUqAZVALZGAgreW3AithkpAJeA9ElDwes+91paqBFQCtUQCCt5aciO0GioBlYD3SEDB6z33WluqElAJ1BIJKHhryY3QaqgEVALeIwEF7w3udXX9CafzP8neoBo3fdq5vOpq101XVDNQCXiBBBS8ZdxkA6mioiIUFhbiypUrKC4udts/ITOvXbv3ol//wRgwcChWrV7rtrydm8OyWP/UtDScOesHnyPHEBIahvT0dLe3y7ls/a0SUAmULQEFbxlyIXhjYmIxbcZsdOrSHV2790JAYJDAt4zLq3yIQJ84eRqefPrfaPTsi+jSrZfb8jaVYRsI3eCQUEyaPA0/NvkVH332Fd7/6HN89uW3+KnJbxgzbqJb22XK1r1KQCVQsQQUvGXIh8A65x+A31q0xhNPPYtGz76AffsPgMB0x+dKURHGjp+ERx9vhAYNn0H7Tl3dDl5aufsPHMIPvzTDs8+/jAYNn8b/NGyE/5E9vz+NZ/79En5p1lysYLuV747WaR4qAZXAjSSg4C1DQgSvr985/Nz0dzz86BMCx1179sqjeRmXOw4ZFwX3FX0odCt423XsUgq8N8qjovyZ9uChw/j6u5+k7o889iSefu4/6NqjDwYPHYnmrdrikQZPgccJ4FZtOiDSFoXi4orrXVGZek4loBKovAQUvGXIyhXwEnZMZ7aKwFkReJnO5FVRHmVUWw4xzcWCAgwdMQpPNX5erGq6GYKDQ5CXl4f8ixdx/nwW1m/cLDD+f489iVdeewfLlq8C66UflYBKoPoloOAtQ8aVBS8hR/dDQUEBomNisGXbDmzYtAV79x9EVHQMLl++LOedAeoM3rYdu4g1zYm85JQUcRHs3L0Xtqgo5Ofnl5lHGdWWQywrLDwCTX5rgUcffwoNnmyMAwcPSV1MGrYvKTkZ7Tt3A8FLF8SAQUMFzOYa3asEVALVJwEFbxmyrQx4Cbj8/Is4euwEPv/qe4EXfbaEHff0q7Zu2wEnTp7CpUuXUGxxPziD9492HREVFY3hI8fguRdflfTMg24AWqt79x0QKFbGFcB6HT9xCs1+b4n/vPqmTKRFR8eUcGUwH1q9Y8ZPEncDy+rVd4AcK0McekgloBJwswQUvGUI9EbgJdwI0yXLVuCZ518Wf6lMVj33H/z7P69KpAJ/04/62pvvYeOmLWK5mqKs4OV1X37zA3r26Y+GT/8bzzz3H8mT3wlE+mEJ0O07dqLg0iWTRbl71o31p/V86fJlsaSLnELheD41NU3KpMX7+JONMWrM+Bv6sMstVE+oBFQCVZKAgrcMcVUEXgO2M2d9JSrgkQZP4vGnnsV3P/wi4Wfr1m/CuAmTxdJkRATh+9EnX+LsWT8UFRVLaVbw8nyjxs/jxVfelMm8SVOmYe78RejZu79A+9HHnhT4fvjJlxLixvIr8+F11s2ahlA+dvwknn/5dXE1vPP+J9iydbvbojasZel3lYBKoLQEFLylZSIWY3lRDYRZQcEl/NG24zVLt5FANzwiUixGhnFxowviux+b2K3WBk9i6rRZyM7OERheB+9TAj5OgnXr2UfAyrSFV64gK+sCpkybiRdeet3uDmjwFFatWYfCwisuL7Zg3Vl2YGAQWv7RXtwjTz3zPAYOHo6cHHvdyhCHHlIJqATcLAEFbxkCrcji5bnYuHhxJ5gwrSXLVgpsrRbmxYsXMX7iFDz97IsC1ya/tkB8QoJA3QHeBnbwvvvBJzhy9LhjEs3kEx+fgN9a/CG+XlrWffsPlok8nnflw7rbbFFo1aY9mN8TjZ7D7y3b4Kyvn8swd6UemkYl4O0SUPCWoQE3Au/BQz548pl/iyXKx/WQ0PASk1fMkpbr6rXr8frb7wt4//PKm6BVTHeDA7zXfLg//NQU2dnZpeBHl8CwEWMckP/uhybIy8svVVYZTShxiKBm9AWhS8uafmUu3KBv+bDPUXUxlJCW/lAJVL8EFLxlyPhG4N20ZZtYi2biKzEpuRQ0CTpGI3CZLiew+EgfEhIqkLOCl6FctEBZpvOH8J4zb4HD3fDGOx8gJye3zGud01p/E7wREZHo2qO3uEc4acelw+s3bKpyXtZ89btKQCXgmgS8FrwM7yLszGYV343Au3nrNjRs9Jwj4qBC8H56DbyNn5eX0xDIVvASghWBd/rMORIpQch/8vk3yM3NqxIsWV5YWDg6d+spMb20dpkP443pDnHVbWGVl35XCagEqiYBrwSvWICRNhw87CNLa519nDcC77HjJxyuBk5+lfUCHb6PYc26DXjj7Q/E4n3nvY/lUZ+hXdfBa1+2y/cp0JJ1hiBdDUOGjZSoB4K36W8tJSyN9avMh/mFXoPuE42elYHi+5+aygINLu7Qj0pAJVAzEvBK8BJci5etEB/np198h7YdOgvQDPgIzUOHj0hIGN/VQDeBeUkO02ZkZuLFV94QkDEiYcrUGRI3a9LzVjKCYfiIMRKbS1cD349Ay5jpreDlOUKZL7ShdWo+zIsr0H5p9vu1ybWnMGTYKIkftpZjrnfeMy++/rFT1x6ydHKv4EEAACAASURBVJiW7g8/NQPD4OjCqEweznnqb5WASsA9EvBa8G7cvMXhp33+pdewect2ARLBmJSUjBGjxzoiEugPPXX6jICRwGJIV98Bgx0rzD769Ctwwo2wY3pak9u278QHH38hPlXG6i5cvFRWnzG9M3jptmB4F9+IxvScgEtOSZXXNnJBBq1duiToM+agcCNo8ryxdDkwEO6ff/UdTp/xlbqzjFLbtbhf96iV5qISUAlUJAHvBO/Vq4hPSBRLk1Ak1Gh1duzSHf0HDJEQK8KYIVeE3oBBw5CcnOIAHqEVFhGBl197B482sL8P4YOPP5eVYFOnzUS/gUPw3oefSuQA8+byXYKQ6fi5Dl77smCWxY1RBow66NNvEBh+xmPMn3kwrIzvcagMdDMzz8u7Fwhd1p/g5Yo4vq2MscV0N1i3H5s0k+XKUdHRFemKnlMJqATcJAGvBC/hRf/pvv0Hr60+e0osU75Qhkt1GWpFYBHK3/3UVN59YHUDUPZMf/DgYYGvgTfTNv73S3jyGftbwXj8+x+byWIKLjE2H+bF1W18Ry7h2LptR3ldI8tnbC3zoWvA1OGjT7+Uf49gmTf6sG2MM2Z8rqS/tvKtou/2waEVAoKCb5S9nlcJqATcIAGvBC/lRkARhqdPn5VVaIQegWtiXAnPNu07iU/UCk0jc5P+5MnTsrDh5dfflqgByefJxnjz3Y9kAQVjd+l64PXmQ8uXy4JpZX/4yRcYM3aivDthxao1En7GJcjMh7G//HeKwMDgUj5kk5fznuXQTdG77wC8+c6Hldreee8j9OjVDxGRNufs9LdKQCVQDRLwWvBSloQUrU++p5ZvB9uxcw+WLlsp/t6IyMhKvZKR6RmWlZWVJUt+g0PC5KXinIAjsI17wXrvDLRzc3PBja+V5LHLlwsluoFuENaHLgO+P9fZ2rbmVdZ3lsk6ZefkVGrLyc2VcqgM+lEJqASqXwJeDV6Kl8DjRlgRcNatsq9hvJ7+eh7Mz+Rd1m00acx1pi78beoi312c9LLmb/KsaF9RXcuqvx5TCagEXJeA14PXddFpSpWASkAl4JoEFLyuyU1TqQRUAioBlyWg4HVZdJpQJaASUAm4JgEFr2ty01QqAZWASsBlCSh4XRadJlQJqARUAq5JQMHrmtw0lUpAJaAScFkCCl6XRacJVQIqAZWAaxJQ8LomN02lElAJqARcloCC12XRaUKVgEpAJeCaBBS8rslNU6kEVAIqAZcloOB1WXSaUCWgElAJuCYBBa9rctNUKgGVgErAZQkoeF0WnSZUCagEVAKuSUDB65rcNJVKQCWgEnBZAgpel0WnCVUCKgGVgGsSUPC6JjdNpRJQCagEXJaAgtdl0WlClYBKQCXgmgQUvK7JTVOpBFQCKgGXJaDgdVl0mlAloBJQCbgmAQWva3LTVCoBlYBKwGUJKHhdFp0mVAmoBFQCrklAweua3DSVSkAloBJwWQIKXpdFpwlVAioBlYBrElDwuiY3TaUSUAmoBFyWgILXZdFpQpWASkAl4JoEFLyuyU1TqQRUAioBlyWg4HVZdJpQJaASUAm4JgEFbxlyKy6+isKiIly+UoRLhVd0UxmoDtR5HbD35ytFxbh6tYxO7+FDCl6LwAncy4VXUHD5Ci5eKtRNZaA6UM90oOByofRvGlY1CWAFLwAOgBwJFbg62OiA6z06cOnyFRQVFVlML899VfACKLxSrJZNPbNsFKDeA9Cbude0gK8UF3uOuNdK8nrw0tK9mRunabWDqw7UbR0gfIuKPAtfrwZv8VWoe0EtXR14VQdAt4Mnfb5eDV5GLai1UretFb1/ev/coQO0eguveM7f67XgLb56FQU60uvAozqgOnBNBxg6etVDZq/Xgld9u2opucNS0jzqjx4xqslTE21eC16Obtpp6k+n0Xup99IdOsD4Xk98vBe8ukhCBx51M6gOOOmAp/y8XgteXSyhFpI7LCTNo37pESfcPfFR8DqNeNqR6ldH0vup97MqOqDgreZhRy1e7ZBV6ZB6rXfoi4JXwav+N30aUR3wsA4oeBW82uk83OnUqvUOq7ai+6zgVfAqeBW8qgMe1gEFr4JXO52HO11FlpCe8w5rWMFbR8CbX3AZeRcvyZabXwCz8RjPcavrnda00RPtMWVUtK/r8qzO+pt7ZfSvOsuqj3kreOsIeKng5y/kICzChn37D2Lrtu04cOgwYuISkJ2bL0CuywrKjpyTdxEXcvJkz4GFx6qjTcw3N/+SlJOdexEltryL18q3D2jVUX5dzzOv4DJs0XEYNmYy5i1agYzz2dV2r+q6rMqrv4K3loOXkCCMTp/xxQ8//oS7774bt912G2677XbZP/jgg2jZqhVOnj4jALbCit+TUtKQnJpeazsG65idm4fwyCh06doVjz76KJ586qlSbSlPgV05zkFs1rwl6NRjADp2749OPbgNkK1zz4HoN2Q0lqxch5i4RGTnXawW+LtSb0+mMXqXmZUtA5FVryi/les2o1mrTujaZzDCIqJrrX55UmZVKUvBW8vBS8tv34FDIGAJ3IYNG6JJ01/Rrn0HfPX1N/ifxx7D3/72N7z33vvwOXpMgGUUgBbkP//5Tzz33HPimjDHa8uenTkt4zx27totdbz99jtw66234s4770RWdm61WfE5eQUYPXEGmvzeDq079kQHga8dvATxH5164dfWndC55wAcPHKiVsquuu8h9W7l2s0yGJ0661/iXvC+xcQnYcykmVi8cl2Jc9Vdr/qSv4K3loOXAPrgw4/w97//Hd//+CMibNFiAdMK5rbvwEG88+57AuWevXojLiFRLDRaJUx7yy234P4HHpBreYydxmq9UJH5m+ec/cbOSm7SWvOpTDrnfMzvxKQUTJ4yDQ8//LAMEC1atsJf//pX3HHHHeJWYd7mWnfuOSCNnjAdP//eDkdPnJWyjLvhfHYuzgWFYtrshWjaogOGj5mM6NgEh8yMDJxlaOpX1nnrsfyC6/Jm+4wsTfqq7JmvycPkU169TL5lpTHnzJ7XUEZ0IzRp0R4+x0+Dg5XJ2+Rh1xe2obRLiNeY60wdTXpTjtmba617a5ry0pn0dXGv4K3F4KXCRcfGCzzvvfc+BIWEOTqqUVJ2kCVLl+HNt95C8xYtERoeKQrvHxiME6dO489//jPuuececUX4nvOHLTpG8rAqa3xiMs76nROfMf3GZ3z9kJ6Z5ehovJblEeQEf2h4BDLOX0BKWgbO+Qfi4CEf+Bw5BpZJC7YyHYXXLF6yFI0aNcJLL72EdRs24vRZP9x+++1i8dKfzc5nrae7vhvwNmneHsdP+TncGkam3IfbYtB3yGh06jkQ+w8fc9QlNf08omITyvRrsr48TxdF+vkLDjmwLbHxSUhKTceF3HwkJqchOMwG/6AwhITbkJya4bi2sm0k9BKS0xAWGS35BIVGiN81PfN6uc55MQ3LDo2IcpTNtnDQMdeaNrD9k2bMk8Fp8/Y9Io+4xBTxjVM+nFeIiolHfFJKqbrzPPXDFhOPwJBw2eiOSExJK+fabBncKLus7DzEJiSD7QkIDkeELRZ0dzBPU8f6sFfw1nLwcjKNVut9992HmLh4sUqtSsiOQgAeOXYch48cE/Dx2A8//igw/tOf/iRW5Ftvv42PP/4Yo8eMdUCEQKDveNDgIXj33ffw2GOPiY/1jTffxMTJU+Dr5+8oj2XSD9uv/wB06twF23fswuQpU/HJp5/hX48+Ki6Qzz//EtNnzERicqqjjIo6yeq169C7T18cPXZCOhfBTXcDXQ3O4E1NzxRXytbtOxBhi6pU/uWV7QBvi/Y4cdpPrDvnaxOSUzF97iK0at8d67fsEODwmn0Hj2LspBk4fsq3BLB4jk8gew8ewcRpc3H0xBlwEorHCdjpcxZhzYatOHzsFOYtXome/YehXZc+sl+wdFWl/aS8D4QTB4xZ85ei/9Axkk/X3oPFOl+/eYdA3qoj/H7+Qi7oMmCaPoNGSppeA4aL5c82EXa87kJOPvYfOoZhoyehbZc++Om3tujRb6j8XrBstQOCCUmpGDl+qvjCqW9sJ9NTtgTuus07MHLcVNBnTv95v8GjMXvBMpw9F+QY6JiG1588cw6jJ07Hxm27cPjoSUyeMR9deg0S//vA4eOwaesuJKXU3nkKtqOqm4K3FoOXN5NQvfe++8QSHDhoMM74nhPld77RVHpuPM6O0LFTZ/z0088geOkD/unnJmjeogVmz5nn8FnSSiUsH3jgAbE6mzZrhiZNm+LlV14R18XX33wDW5TdQmaevucC8MWXX4qV+s033wrYmf6nn3/Bp59+JvWkdT167LgyYeZc54SkFLGMWG9aYwFBIeWC1+focbz73nv47wcflEGBFpVzfpX9XRnw0rqjxUd/76btexwyW71hK1q064YtO/bKEwBdB6ZcDhar1m1G2869QSvRAImw7dxrIHoPHIG+g0cJxCbPnI+psxbIb8Jt1PhpSEnLdNxDk6fznnkeO3lWYNahez+MmzwLU2ctxOQZ82RS8I+OPbFo+RqxvI0+ZOXk4aDPcXTtPUj82XSzsOwJU+cI+H9r3RmEP61lDh5HTpwRVwvh99NvbTB4xHi5ftX6Lci89iRCi7hZq44YMXaK3Gujf2IpT5+Hlu26o/eAETIIsSxCukXbrgLiU74BDtnwKWrHngNgHTgQDB01ESPGTcWUmfOlfu279sWvrTqBAwrvm2mTs1zq2m8Fby0HL5Wtb7/+YgXSEvzyy68wZOgwLFu+EkeOHgfhxWtMJ6cCUjl5jHCiq+H+++8XWPPx0O6XK5BoB/qEGSXRpGkzcRfQqmRHOORzBB99/In4lceOGy9pDHgJWk7yvfrqa1iwaDGiYuyPgpFR0Rg2YqS4NQjfgMDgEnUqr2OYjsT8A4NDywUvfdkvvvgf3E2wjxkrln15ed7oOGVD+PwirgZfh/+bdci9eEmsvhNnzqFjjwHo3neIgMjIV8Db1gre64/ABC9n+9t0soOXIWusi4C350A0b9tVLM7g0EixWhkxcfZcILr3G4oWbbvhoM+JG8qM9Vi2egMGjRgvcOfAzPbQN03rndYsAX+acLNY3LSMO/UcgK079yE+KVWsdYL2yPHT6NFvmJyjL5f5c6PlO2fhcnE1HDp6Ulwk1B3eL54Pj4xBs5YlwZuWmYWVazehZfvuYu3SKqcOsn6cjFu2agN+/6MLBg0fB1rMzEvAu/sAmrTogI49+svAFR2XKPeE+W3fvV8mQFn3+mT1KnhrOXipnLFxCeg3YABeevll/P2222Tmn9EKb7/9Djp36YIFCxchODTcYZUZ8BC0f/nLX8SipfKb4+w4h48cxdvvvINnGjfG7j37HOd4Dc/v3L1HAMuICHYeHqPF+9nnn8vx/gMGynGTJ/eZWRfw7XffiWtjxMhR0uEMWK3XlfWd+VcEXspg0ZKlGD9hIs76npP6lJVPZY4Z8HJybenK9Th05IQAiBA6fPSUAI2TaoQE3QJW3+TNgJfuBV//4BL3iaBfsXaTRFGwLDvcrlvRzu2hPIPDbfALDCnlh6eveMHS1aAlvHPvIRlEmJ75/97G3hb6Ua33hBYureG5i1bIJBrvA9NwMo31IRApF9bL1IXXlAXeoNBIGRDomvA5dqpEhA3LTMvIwuCRE9C0ZUeH39yAl4Pg2EkzxT9uymEaDigcNFiPc4GhN3XfTb61Ya/grQPgpaKnpKVjz74DmDhpMjp07CSRDg89/LBYwowK+KVJExw9fqKEspcHXnaiFStX4ZFH/gX6fhcvXSbREbQque3dfwBbtm3H7XfcIb5lTtgxDSfnPv/iCwlhW7FqdYkOTGXmNbPnzBVLmVBnp7Z28ooU/kbg5XkCk2Xwe2XzLavM6+BtK26Bbn2GiB+ze9+hEpdK90KbTr0wZ9FyREbFlSjrZsBLtwD9n8YSZd3YlgOHj8vj9LQ5i6R9FbWN50QW+QUywReXkCwTdIzE8Dl+CpOm290jm3fslbx4D+iG+PHXNjKoWAdgls/8aKlz0i3DMonlCnhpcdM1MH7qbJmAtLaT5Yjerd0ETmpygGA7DHhpPc9fslIsbXPPmIb1pUuEMcO0oJnGnK/LewVvLQevs3JReRmFcPzkKaxZux5du3WXUCyGm7Vr116iFkya8sBLZZ41e664Bfjo/swzz4iPl9EFZnvhxRfFsqbbgEBnGoKXPt5XXnkV+w8cKtUB2Ck4ycfIBMYbs1NVtqPwuoosXtMmd+zZFroa6FvlnhCgX5T7XgNHiAti7OSZ8njMzm8t0wpeWmPW8zdyNXCCjb5jaxq2mxN1jBsmeHOuPc5by7R+Z1q6CDbv2CNApW+YPlgu+qDLgJOBjE024GV0Ci1J+kk5yWfNq6LvroCXVi79uPQ5E+TWduZfG2R27Tsk7ovxU+eUAG/zNl2wfPVGgbOpF9NTHpQb5UM5VVafTB61da/grcXgpeJxo7KVUGJj9eRdRFR0LEaOHoOHHnpYIhKOHj/p6FwVgXfmrNniL33uuedlxdjgIUNg3RjpMHDgIPGncoKNwDfgfblc8Bbg0GEfAe8TdQC8vzRvJ1EK9Dcmp2WID5FRCT//3lYemWPjk0t19IrAy4knu4+3FzZv3+2IhDA+3pnzloh/1XovqwJepkvNOC+DRIdu/dC93zAwz4XLVmPdpu1Ys3EbRoybYvcxX7N4CWkBb+vqBy8jEujSKBO813TWLt92GDN5Zgnw0sfNBRvUMwNLtlfBe3OA0r/+cSHkhIp36vRZbN66DcGhYSXga5QzL79A4nVfe/11AR7f42DOCXhvuaWUj5cW3/IVq/Cvfz0qk3VHjh5DUnKqfUux7xkSxok7Ljnm9QQEfbycXKM1S2vbChCWyU6zbPkK8QEzJM2drgbmz/KcyzRtrcreWLxcHOAcTkZ/7qgJ08DogE3bCM/rIGAZBrwMl8rMyilRHz6qL16xVtwU1QVehmMxRIur7ejzjE9MkThgvi+BMbWceGvDqIpr4OVTx5RZ88FBhtEKzu2xytUqW6vFy0k3azrqQlk+XoaFceXfuCmzEBUbX0I2zJt5cGCiP3f+klUK3ptjaqVSK3hdAC8VnJNJDz/8CFq1/kMAaO0c7DSEyKHDR/Dyy69IqBUnzQyECF57DPD9iIq57qtkvvTj0nJt8Pjj4s9lp+Bx5s890x48dFgiJ7gogsfsk2v2qAZaxAxs53HTeZnmlyZNZXJt0OChZdbX1M15z3wqcjXwPNtqradzHpX9XRF4GWlw/LSvRCDw8Z2TWNaQsS0790mIGWNarRNVlFtKeiaGj51ih3Y1Wby79/tI/hOnz3WEdrFsblwMwVAs+qgNeHl8xZrrk2vOIWuUhV9AiEyuHfA57oDldfDaV65VBrxBYZEyeUafOeOYrWlYD+oHZUp/7sEjJ2XFm/HxqsVbKY5W+SIFbxXBS0UlbE6dOSsTaFy5NnvuPFFedhaz0RLmUluGmjX79TeER9pKgJcxuvTTMkSMaZgnt9S0DHTt3l2iJH786WdZdcaOwWv40prxEyfhH//4Bz786CNHOhPVwNhgWr0LFi6WOGOThvW79957xTfMVWgsp7Iw5LUVgZcr5gYMHIRmv/6Kg4d9qpS3cx1YX/p2y7J4KXcunuAiCM6+M6TKarkfO3VWJuBodfr5B8v9YNgYZbdx605ZZkwfq91atrffna6G/T7HxKJmTC5XrhFujIygS4ELNDj7bwUv285oA4aZNW/TFYzFpWXONEwbGh4lE4t82Y0JJ2ManuNkFyfC1m7cJhEJvEdGL8uyeDkQsw7013IikTG9TEP50CJnLC7jdRkfbFajKXirzNIqJVDwVhG8VH5jJQwYOFisSMKV4V2//vY7evXuI/G3jz/+uCyQeOihh7Bl63aBpAENAcP3PPDFM//n3nslFGzSlKlyDfM+ePgI3njzLUf6ps1+RYuWLfHqq6+K2+LBf/wDZ/3sL0hhBxJXwxdf4P898gjoG+b+3ffel0UXL774osCf71pgqBlBxDJMXW60vxF42bbHGjQQN0aPnr1kgvFGeZZ3vkLwXoMOJ3I4k87JtlO+118Sw9C6qTMXyGQPH6vpP6Wftf+QMTKpRVAzIqK6XA18+hg6eqIAnvBl2QQk43pZLhchOIOX1uueAz4ScdC0ZQcMGTUBM+Yuxvgps8Qt8WvrzuKXpVzMPeP94CIR5sUBiivZaDmbp5yywMs0XMLMVWhMIxEOU2Zh5tzF4Mo6TvAxxjciKtYxcCp4q8TRKl+s4HUBvAQHlZmz5bNmzwFBSLBZN0YQfPLppxJNQCvFdByTluD85lt7bO0dd9wp1jE7GM/n8jHznD9+++133HXXXSXyfe31NxAYFOKANOthfLzPPvscFi5eAgKQq+pMfVi/mbPnllruWx4ArceZP2OR77rrbrHQrVYmr6MFTf/yfffdj5mz55QYYKz5VOY75USLjDPlXEZLMDmno9VLOHGyiH5brv7iNawn37kwZuIMsYjpO6XPkn5VTi7t2nsInPjaunOvAy70rTJUbc6CZWJNl7xHl2XJLBdXzJi3xDEh51wf85vlczKQk1O0blk2X+ZDsG3btR+r12+1l79rv6N8lsd0tNb7DR4FwtfUm3XdtH23WMzWevE7Ib901Qa06tBDQNpv6BiHeyUyKlbinOkPpzxN/ZiOLhha1pQJy+Fb4FjP/sPGgulYF3M97zMjHVp36CH+c+s5XkNrmYML5UMfclkv5DF51aW9RjVUeQypWoKb/Xt302mo3OkZ52Xhw6rVa7Fo8RJs3rIVtuhYgRAV1tpxqIQmLUFLS4WP69aX2FjPcwUU35lw7MRJxMYnlsqT+Rvw0uqmBUpwc7XbiZOn5GU5LIP1LKsulekUTMf0Jg9rGp6jtWlfzFFygLFeV5nv9nZfjxZxlhvzMLIxbbFeY84xZIovcmEsrakzr3dOw+v5aM+9NR9TV8a7Oqcx55z3Jg9eT/cCQ8QIYgLKlF1WXkzH46wnX2LuH2SfmDP1Lqte1jRcnGF9ijHnuHdOa87RYKAFzJfy0LdcVln2a1k3ez5l5WXys8YFO8ulrv1W8FaNo1W++mbBa1UoKmC+E5ycFdV6fVW/S/4FpQHOfNhpCV7G8RK827bvFKvFnqZ056tq2XX1etP+mqq/K+WbNNZJw+qqvyfLqq42VEe+Ct4qo7RqCdwJXqMA15W58j5Uk9bVfXngdTU/TVf+smCVTf2XjYK3ahyt8tXVAd6a6JiEfWhYBLp07YafmzSVV1DWRD20zPoPJW+4xwreKqO0agnqC3jZGTgDzXfyBoWEygtavKGDaBsV9NWhAwreqnG0ylfXJ/BSAWvCzVEdiq95KlBrUgcUvFVGadUS1Dfw1qSyatkKy/qiAwreqnG0ylcreBUW9QUW2g736bKCt8oorVoCBa/7lFU7vsqyvuiAgrdqHK3y1QpehUV9gYW2w326rOCtMkqrluDS5SuO5ZGquO5TXJWlyrIu60DhlaKqgcTFq732XQ2XCxW8dbmDaN0V8O7WgYJLhSgsUvC6OJZULlnhlWK1eF18QZC7FV7zU4jWBh2g+7GouLhyALnJq7zW4i2+CnCEqw03XOug90F1oOZ14FLhFVy9evUmkVq55F4LXoqHglaFr3mF13ug96CmdYDW7pUrnrF2yR6vBi9Ht4LLqvQ1rfRavupgTevA5cIij1m7Xg9euwCK1eWgLhd98vFiHbD7dj3jYiBz+PFqi/eaDOQRQ/29anXVtNWl5XteBz05oWZ4o+C1SOJKUbH4fNX14HnlV+CozD2tAzS06F4o4ix7DXzU4rUIvfjqVTCAmpNuHAk9rQxangJIdaD6dICwZb9m/2Y/91QEgwUxjq8KXocorn/hDSkqKpabwyWEHBl1UxmoDtRdHSBoubFf1yRwDWUUvEYSulcJqARUAh6SgILXQ4LWYlQCKgGVgJGAgtdIQvcqAZWASsBDElDwekjQWoxKQCWgEjASUPAaSeheJaASUAl4SAIKXg8JWotRCagEVAJGAgpeIwndqwRUAioBD0lAweshQWsxKgGVgErASEDBayShe5WASkAl4CEJKHidBM2V21y/zRVrunS4+pZv6tJYla0ndcAsFeY7WTz0rnMnspT8qeC1yIPA1ZejKxA8CQQtq2b0jYZVTQJYwQvI2m2u49YX49RMJ1D4qNxrQgf40pwrRUWoifeTeT14Oerx5Sc1ceO1TAWO6kDN6gDhy38W9jR8vR68tHRV+WtW+VX+Kv+a1AG+g5uWryc/Xg3e4mL+55q+d7cmlV7LVujWBh24dPkKyANPfbwWvBTxJXUxqLXvxf81VhuAV5vqwKdfT328Frwc3WrTTde6qOWnOlCzOsCIJv4LjSc+Xgte9e3WrJIrZFT+tU0H6HZknK8nPl4LXo3X1Y5f2zq+1qfmddJT7gavBa9OqtW8kito9B7UNh1Q8Fazva/g1U5f2zq91qfmdZIr2jzxUYtXZ7V1klF1QHXgmg4oeKt52FGLt+atC7Xw9B7UNh1Q8Cp41QpRS1R1wMM6oOBV8Gqn83Cnq23Wl9bH808ECl4Fr4JXwas64GEdUPAqeLXTebjTqYXpeQuztslcwVtHwJtfcBm5+QW4kJOHzKxsZJy/IPvs3HzkXbwEnq9tylXZ+rDubAPbwnZxO38hR9rriXaZ8lmHsjae90Q9Kiuv2nQd5ZWZlYPk1Aycz86tszroaZkqeOsIeLOycxEcEobtO3dh3vyFmDZ9BhYsXIz9Bw8hwhYloPK08rirPA4moeER2LvvAGbMnIXpM2Zg2YpVOOcfiOTU9GqFHoGakJSKyOg4RETFltqiYhOQmJImA5672ltf8qHs0jKzsHLtZvToNxRbd+2Tgau+tK8626HgreXgpXKnpmdizbr1+PDDj3D33Xfj3nvvwwMPPIC7775H9l9//Q22bN2G9Mys33fCdQAAIABJREFUEpCiNXLI5wiOnThV4nh1KlRV8mbbOKDs2r0X73/wAe68807885//lO2ee+5Fw4YNMX7CRMQlJFVbh2Ydps1eiHZd+6Jdlz6yb9+1L8zWrc9gTJw2F4ePnkT6+Qu1Uo5Vkbk7r6XsElPSMX7KbLRo1w2z5y+9aQOAecYnpSA4zIb0zPorbwVvLQcv3Qur1qzFfffdh7vvuQcff/Ip+vbrj+EjR6FL12548623BFgvvvQStu/YJSAznYuP7vfffz8aNWokj+3meG3Zc2A4fOQoXn75FRlAPv/iC0yaMhVTpk5H2/YdBMAcYCZMmlyiXe6sP+swdvJM/Px7W/TsPxyjxk/DqAnTMXrCdIwcNxX9hoxG6w490KX3IOzafxgZWdn6OG3xifNp5fhpPyxbvRG+/sE3LRvq+7LVG2QQPHHmXLUNuO7UIVfyUvDWcvBmZl3ASy+9hNtuvx2dunRFTFyC+EIJVW4nTp3G1998izvuuAMdOnZCdGycWGUECv2kf/nLX3D//Q/Io3JefoEoMq0Kq7LwWip8Tt5F2fjd+Rpez2PceD03fjfpuC8vnbUs63da6G3bt8edd90ldU9ITJY25eTmi4th5OgxMqi8/c67CAgKKVFnaz43853tGDvJDt5d+w7jAuV6TQ7nL+Qi3BaDpSvX449OvdBn8CicCwx11MPIg/uy6mBk5Xzems5cY5VpWXlVdCy/wH5vmEeuxU/tXK41D2u5Jk1Z1/OYdcu7WPL+m3yoO7n5lxxysKYx300b7fvSfnNeR9nPXbQCTZq3h8+x06KPLJPnrPWv698VvLUYvFQ2W3SMwJMWb2RUTCkFJOw2bdmKn37+Bd269xB/L9Pt2bcfGzZtxp///Gfcdddd2Lh5i/iHz/qWtiLCwiOxbftOLFi4SDa6LRKTU0uUxTwzMrNw6vRZHD12QsAYExePXXv2YsGixVi6bAX27j+AhKSUEukq6iDhETZ8+NFHePjhh7H/wCGBrrme7fIPCBJr/bHHGmD1mnWVztfkUZk9IWAHbzvsPXjEMaCYtGw3/bzjJs/CT7+1xc69Bx0DTEp6JvwCQsQ/zOtMGu75OyE5FWfPBcmjszmXeSEHgSERAnTCKio2Hj7HT0vZR0+eRUi4rcr+ZMoqLDIaR0+ckXwOHz0lA0Rq+vkSdTJ1YN2SUtJx2jcA+w8flzQnz5xDXEIyLuTkl0jDNgYEhyMmLkmeOli/g0dOYP/hYzK5yzbExCWKHOgiMG1Py8hCUGgEImwx0p6UtEycOuuPvQeOSHspN7qZrHWir53XjJk4Az//3g4r1mzCybP+knd27kXHtSZNXd4reGs5eCOjonHLLbfg3nvvRUhYuFgA1k7O77QcORHley5AOgNh8vEnn6Dxs8/iT3/6E27961/x3HPP4dVXX8WgwUMELlRaptu2YydatmqF5557XgBIH2vjxo3RvkNH7N67D7l5FwUiLCc0LELcGy1atsTylavQq3cfvPzKK/jHP/4paV999TU5FhUT5yijos6RmJSCxUuWYs7c+QJs1ttcT5gEBofitddeR4MnGmL9xk2OejDqYd2GjRg3fgJOnTkrwLbKxORRmX1Z4LWmY74ExIKlq/F909bYsGWngITHz/oHYcioiVixZmOp9hJIBw4fw4BhYwVSzJNpomMTxGe8YOkqAeWk6XPRuedA/NGxp7gzRk2Yhn0Hj1bKV8r8CCQOBnSNdO8zRPLq2nsQBg4fh9XrtyAmPhG0GE35bK9/UBhmzV+KPoNGyiN9m069xM1CX/ehoyeRlZ0ndWWaM+cCxRWzZsM2bNy6S1wxHbr1A7f4xBRxvWzduQ9DR0/EngM+jnICgsMwecY8LFmxDsdP+WLRsjXoM3CktJPtHThsLLbs2AsODmwHNwK976BRaNWhhwxyHbv3lzrS/UOQW+9LXf+u4K3F4KVypWeex0MPP4y///3v+P335mLJcrKNilqe8rFz0U86ZOgwAe/tt9+OocOGY8zYcdi8dZtYbExLK/f1118XcH79zTcYMnQ4ho8YiW+/+w5M8/rrbyAgKFigwjwJ9s8//xKPPfYY3nn3XXzy6acC4sFDhqJjp874/x56SFwD7dp3kAGivPpV5jjdKLSC6eOlq+X0WT9pM+tx/OQpvPvee1JH+rudrfPK5G+uYX43sng5QM1esAw//dYGO/bYLV6mO3LiNFq26w7CkwOFyZN7+j4J6WatOgqweIz3jK4LRgB07jUQg0aMw8x5S7Bu8w6s2bAVE6bOQYu2XdF/yBj4BdzYX8o60CLkRGDX3oNlANi2az/WbtyGEeOmChwJX1qtpnz/oFAMGz1J6jV64nSJSGDZU2ctkHwIY1rgHDiYhiDu1GMAevQfJvsJ0+Zgycp1WLlus0x+EYhLV61H87ZdsWrDVknDetE/S595z/7DMHjEePGXL1u1Aes2bcechculbpzM3LBllwweTENrev3mHeg/dIzIesrM+XL99t0H6l2omoK3loOXHXrajJkysUYYEkJNmzbDiJGjxMVA6zInzx7Ly45iOhg7DuN96WrgBBv9vTzG/LjRV9y+Qwf877vvRtfuPeDnHyDxswSGn38gmjb7DX/729/Qu09fuZ4dw4D3r3/9Kz748ENs2bZdLFVahPGJSViydBnuf+ABge/R4ycE2BUNEKa+znuWxUgGDga09Pv1HyDWuWkbIfzZ55/jzjvvwrgJE5GWYbeanPOpzG+WZcC7e/9hi4zo974kAOUjPAFCC4yP5MyX6VwFb/e+Q9Hk93YC27jEFOTkF4jVHh4Zg+lzFuH3Nl3kMftG9WcdJs2YJ9AjcPkkwHvLe0hf9Pwlq7B6w1awDPqBeW7WvCX4tXUnKYfuCVq3HORi4pNkoOjYo7+cS0hOuw7engPECuWjP0PuGN3B2F2Wz3Cy8sBLWDdp0V4sZl//ILGOqYNJqenYseeADFq9B47AuaBQx+DOuhDMvzRvB7pM+Js+aFf06Ebyq8nzCt5aDl4qXHJqGubOX4DPPv9SoHbrrbfinnvuwVNPPYUvvvxSLNvTZ30FGlYFpdJyco1Wo7FgqGzsgPv2HwRdA6+8+ioOHvYRxWZadiaeJzg5oceQLoKNxwheO/DulKgKq4+O+fJ3i5atQDD36du3VH0qo+isA/OhS4QThu9/8CFCwyOlXkzP8xxQGA2xeu06RNiiHecqk7/zNWwvwUv/La2+LTv2YOvOvY6NM+y0Alu07YZ5i1ciPinVLeDlZB19o9b7lZNXgENHTuCHZn9IiBth6Vxf62/ek+FjJqN5m67Yte+Q3CPmx433nj7mWPHb2l0HtLYJ/T869kKELbaE3JiGoWEcfOjqIBxZlli8PQeIyyQyqqQLiWn4NFAuePsNw2+tO5ewoE39U9IyMGHqbAE6rWC2hecoA8q5SYsOOHL8tOO4SVdf9greOgBewoHWjH9gkFiZEydNRpOmzfD44w0FTv/n3nslrIzxsLR2jHKWB15CeMmy5eIaoA91+oyZWL9ho2z0na5bv0F8uLffcYfEDAcGhVwDr7+4Gho2fBJr129wlGPKY+dZtHgJbrvtNrHMWRd2TnP+RnsDjKnTpuPBBx9E42efkxhftt+aD7/zGNvB/Y3yreg80xvwMha1LWN5u/SRfZvOvcUqa92xp8CAiywMIJjOVYuXrobu/YbJai9r3dgu+lR/aNoafMy+EXhZB7oJCKnufYdg+eoNOHbKV6xXyoZ1ZZ5m23foGOjPHTRivDwB8bi1fObHSA6GzJl2Erz0yU6eOV/AbE3D7xWBl66GAUPHgsC2lsPv1A0C3ljfpjwFr3uBpC9Ct8Q+OithVX6zc1DZaelxYmni5Clo0OBxsTJ/btJUrEOTX0XgnTl7jljNhOQDDzwok2OMLjDbQw89BFrWfNQ/cvS4QM73nL9Y2IQ1rWRTjtmzbqfO+IrvlZYyLVceM+cr2rMTExZcuUYLnRNqu/bsKxMQFeVT1XOsnwEvfaxbd+wDJ4vWb96JkeOn4Zfm7eVxno/i1rbwu+vgHYZeA0cgOS2jlGwYC8tJvMqAlzLjqrpFy9fIpBX9rJz0ItjZlmMnzzrkx2t37D0oMcl8lK/soGjAO33uYhkomI+RMb9XBN5eA4ZLNEhsfJIjjUnLe33itJ8MGpQ/f/OcglfB6xYJ3MyL0KnY3NjJrZ3eHKOVwEe2eQsW4rEGDfDfDz4oj+BGuSsE76zZAt4333wLEyZMxMJFi0ttDC9bsXIV4hOTr1m8AQLel15+GXv3HyzVmRgnzGW/9EU/UQXwsj3seLR06Y/+16OP4cAhHwE3z5n2VMeecmXH5wIK+h3pxjBWHxcG0Nqjq+G0X0CJetQG8FIerAdXeNGqpLth3uIV6E3XSLtuYt0uX70RyWn2yVg7eHtKRIMnwEuLd+T4qYiOSywhO9b7OnjbS/iYgtctuCmViVq8Lli8hM7BQz4yaXXWr3T8LRWY8PX1O4e33npbHvGtQCR4GYpWlo+Xq+FoKX/11ddipdI6vZDDLU+Al5WdIxDinp2bm5lc+5/HHhMgs35WMLIuBDit6Hffe79SVhXTs9MtXrJM6slwtuMn7JMq1rydoctzrFNF1zinKes387CD93ocL69jvrRIFy5bI/5fhkNxQsmUx3RHTpwRwDlHNfAaAnzVui3lRDW4x+I19WRdGDLG0DJOojJE64DPCXTrO0SiJxivyzodPXlGXCjG1ZBnGdQcizCc5HozFi8nJLv1GYLQiCiH3Mw9yMrJw669h2Qice7iFQ7XhtXiZXSFcUGYdPVlrz7eUmOEew+4avGyo7BDMQzsb3/7O7786iuZMDEd3yggobX/wEHxqRJaPkePO6wLA14uvgiPvK78zJeugtdef138vPTrUsF53JTLtNu275BYXlrVPGcm12699a8Sr0u/M4+zLkzHNJwA5OTauPETJU/n+pp6mz3T79i5Gw899LBEbpw8fVZAXFE6nmO7OUjcbMdk+WWB17SJj8MduveXiAZCyNpeRjtw0o2xugSGaRPrx0iCGXMXVyt4CVsu0GAEA+vFcrnxOxdIzJy7BM3bdJHoAB6nW4AgpPuEEQ2mLaw3v9ui42TV2MJlq2GLiZf23Ax4e/QbJhOFB32Ol9Bd1oUhbiMnTJOJvs3b9zjqwggP++Rae/EBU6eMXOvTXsHrXs6Wys1V8JrOEBwaLo/ffIHMyFGjJWaVcbyMNOCeMa3ffPutPN5z0QPDy4yCUmnps+WLdbZu246U1HSxiNjJaBkNGDRIrNOPPv4Eh48cE7cF82RcbO++/eQcl+vyem4GvAxRY77jJ06S1XSpaRmShvW74847JR3rzTSmLmXtCU2GhjFEjumWrVghYW5c/cY6cEtKTpVVcqwv82CnjY1PRLv27WVVG18eRGv9osV6K6us8o6xjuWBl2kIMDPLzphbE9XAeiQmp6Ft5z5iEXORQMb5bHBlGldpMTqAE1llx/G6x+Jl3TkRyAUHXKxBi5yyYB3O+AVi0PBx6NJrEE752t0klPfiFWvx+x9dJGY3PDJa0vB6LoagW4L15eIKQprtv1nwMvaZdWAYHl0iLCs14zzmLlou7h0OWhzYKU+WxzoySoKTbtxzAKPrx5wv7z7WteMK3lKodO+BmwGvUcRJk6fKJBcXUTzyr3/h088+R/PmLUBgcvafj/ZcmcZXRFotQFqFP/70s0CZ17z22msS/8vjVGROzhHad9xxp/h7+QIehqdxYox+WkYVGEvZgJcvsqGr4Y0335L9Cy+8iI8+/lgWVbB+jLBgfa31KK9TMEyO5XES73/9r/8FvpGMPl66RqzbU081wuQpU6XOrActZLb3lltvRevWf0jMr6sd80bglXb7B6Pf0DECucPHTknbWB7PEcaMu6WPmC/U4cozTirxOye4qhu8XFxA8DKkjCu8+J4Dvk2NVnrbzr0lPM46aNEFMmr8VIEv/cBDR0+SdLSEf23VCUNHTZSX3Rg3xM2Alz5eujW48e1vXEgxZtIMMHaXVjeBfMDneAmoUqa79/uIb50hflwYwuXaunLNNS6pj9cFHy+BRUWkFbNy9RoJGXv00UfF2vznPx/C/3vkETzTuDHatG2HM75+DiAY0DFtUEgYOnXugqcaNZIlxFyMYKDIPd/xy9VfL7z4osCTq9IaPvmkhKuFRdgceTIv4+N99tnn5N0MXLL7yiuvSroGDRrgzbfexsrVa6W+vN7Uo7w9J+0Y9/v0M8+AcGUd+SY168ZjdInMmDXbYfHyHRFsE9/ItmbtesfMfXnlVHScAJXlrING4vhp3xIQYDqep8XFx+E+g0bJggTrSjC6W1as3SzxsVzhRYDRgmZejEPlKqz9h45Z6p4Erv7iwgcuPnCuW0h4lKz4ovXpfM75N+tGvy7fm8DVaAwpI8xYhyGjJmHvwaMl/NKmPbTUV6zdJMt2eb2ZQKQ/m7G+zJcbr6flTFiuWr9F6muOm7xoZTMKhHDdue+wpOG958o1iWqYMkuWKHO1W++BI6Us1m/42CnguymMLpq2MX/KlCsEh4ycKHLl4FDeeydMurq2V4vXtYGk0qlu1uI1Ck5lprVCwO7ctRubNm8RC1feVWuJ13RWQCoy0xLesXEJkofpPNyb83y09DvnL+98SEpJdQDXXMs8DHhpbdJ1wWMSXxwQJGFsLIPHTBrnujj/NmXnXbSvpmMnLGtzzpPpKAs+otJ6d863qr+Zn9nKS2vqyr31GjkusMhGWGQM4hKTHe86qCgNz+WXMRiXl8ZapvW75HPtLXF0cXBhBMHKl92Yc9br+d0cp6wZccDVaHRdOcvZei3TOOdjfvMcLWRzDfMx4B0/dbbEFfMcLW+uzuO/VZiyTBqTl9lLnlwZl5ElLpzyrjPX17W9grfSCHXtQneA1ygVlc8oJBXXKK85f7N7k39ZSs6yCF66BghevueB5VWU5mbrU5fSm6iAsmTnyXaY+1HZMs317qw3dcUKXq6eM/VxZzkmz7q4V/C6xtNKp3IneGtSwcoDb03WScuueElxTcmnIvDWVJ1qW7kK3koj1LUL6wt4aanwfcCMXOB7f7lCrbYps9andoCYuhIaES0RFJu27Xa8HU3vz/X7o+B1jaeVTlVfwMtOw/A0hnJFxcSKv0470vWOpLIoKQvqCn25DB2z/jOFyskuJwVvpRHq2oX1CbzsNLRmzKadqCRsVB6l5UFdUbmUlouC1zWeVjpVfQOvdqLSnUhlojKpqg4oeCuNUNcuVPBqp6xqp9Tr67/OKHhd42mlUyl4638nUlDqPa6qDih4K41Q1y5U8GqnrGqn1Ovrv84oeF3jaaVTXSq8opMLZazQUrjUf7joPS7/HhdeKao0Q27mQq99V8NlBa8OPDrwqA5YdKDgciGuFCl4b2ZAuWHawivFqnQWpVMrqHwrSGXjHbK5dPkKioqLb8gOd1zgtRbvVQAc4bRTqQxUB1QHqAN8Cr56lWSo/o/XgpeipSNdO512OtUB1QFOtl8p8oy1S/Z4NXg5uvHxQjuedjzVAe/WARphnrJ2vR68FEBRUTE0tMy7O51C17vvPyOcios942Igc/jxaov3mgwUvjrJpk89XqoDduh6zsVgmKPgvSYJWr6Xr1xR69dLO6Bavd5l9XJinTG7nrZ0FbxGApY9fTx0sF8uLBLfr0Y9eFdnVPjW7/tdcKlQ+jX9ueznnvTpWjAjX9XidZYIIDeEIyFvjm4qA9WB+qMD7Nc1CVyDGwWvkYTuVQIqAZWAhySg4PWQoLUYlYBKQCVgJKDgNZLQvUpAJaAS8JAEFLweErQWoxJQCagEjAQUvEYSulcJqARUAh6SgILXQ4LWYlQCKgGVgJGAgtdIQvcqAZWASsBDElDwekjQWoxKQCWgEjASUPAaSTjt+coMvppTN5WB6kD90QGnbl5jPxW8TqJ3LBvW9zboi2P0vRX1Rgf4BkK+EIfvZyiqBavXFLzXwGuAq6+IrN/r9fV9DHp/qQOXCu0vyKmp5cMKXgDFV6/Kv1EodLVTKpi9Rwf40hxawDUBX68Hr0C3UP8CSIHjPcDRe13yXtcEfL0avJxA0/9dK6mE2ilVHt6mA7R8CUJPfrwavHSyq3tBQeNtoNH2ltZ5+1+7e+7vf7wWvAwR4iynKmFpJVSZqEy8UQfkDy89ZPZ6LXhp7XqjcmmbFaqqA2XrgPz/Gi0yD3y8Frx0qKsClq2AKheVizfqAP/qi/824omP14JX3QwKF2+Ei7a5Yr2nQeaJj9eCVyfVKlZA7aAqH2/UAfp5PfFR8OqyUHW5qA6oDlzTAQVvNQ87avGqReeNFp22uWK9V/AqeNUKUUtUdcDDOqDgVfBqp/Nwp1NrsGJr0Bvko+BV8Cp4FbyqAx7WAQWvglc7nYc7nTdYdNrGiq16Ba+CV8Gr4FUd8LAOKHjrCHjzCy4jJ+8iMs5fQEJSMmLjE5CQlILzF3KQm18Anq+rVgbrnnfxkrQlMTlV2hafkOSxtpnyWYdcp43HuNVl+Va3Xpy/kIvgMBsiomKRnZuvsqoExBW8dQS8aRnnsXf/QUydPgP9BgxEj569MGDgIMybvwBHjh5HanpGnQXvhZw8nAsIxIKFizFo8FD06NkTffr2xdx583Hi1GkBcHXBg0AlOE6c9sPRE2dwxGk7dvIsfP2DEZ+YIgNcddWjruZL+QWGhKP3wBEYN3kmQsOjFLwKXrufJb+gEEERMfAPjfL4W+BvNo6X1lZ8YjLGjZ+Al156CXfffTcefvhhPNagAR78xz9w//3348233hIA0wLm9aYT8/v8hYuwYuXqEsfN+Zres9OmZ2ZhxarV+O77H/DfDz6IBk80xPPPvyBtvPPOO/HpZ59h1eq11QZf1oFQ7dCtH/7o2NO+deqFNte2tp17o2f/YZg1f6kAmINETcutNpVPHePA1LnnQAweOQF+ASE3BV7ej6TUdJw444dTvgHIyMqul/JWi7eWW7x0L0ybMRN33XWXgLZ9h46YMWs2Fi5agkmTp+DnJk1x77334omGDbFq9RpxRZiOycc+pmvQ4HFxU5jjtWXPTrtj5240bvws/vfdd6N1m7ZYuHgJNm3ZKpb91998gzvvuksGluMnT+PiJfe7U9jRY+OT8GvrzmjZrjsWLluNRcvXYvEK+zZ30QoMHD4Ov7fpgiGjJsI/KAx5F91fj9pyT1ypR1pGFvYfPg6fY6eQeSHnpkBJnTjtF4hBI8Zh5LipiIpNuKn8XGmPJ9IoeGs5eNMyMtGwYUPccccdGDVmLOgDJYzNFhgUguYtWghgW7ZshcioaLE46Pel//cvf/mLWMVZ2bnyqEzFJmysysVjJj/CmmnLuo7peNx6nt+Zhun53TlvaznO35mmc5euUvcOHTshKiYOOdfyYn1Pnj6Dd959V+pPi78qeTuXVd5v5knw/ta6M7r2Hoys7Dy7LPILkJNfgMysHPgFhmD0xOlo0qIDlq5aj9T08466EMJlyYrlGXlxb62783EjU6tcy6tvecdNnsxDtjLuszWtuf562WX7snmddTPtpS+caZkn92Xdf1OGPb39utz8kvrjXCfW/fhpX3nKGDRivPiNmT/zsF5b178reGsxeKls4ZFRAs//e//94nJwVkAq5cHDPujWvQeGjRgp8OI1y5avwPSZs/DnP/8ZfGSfOWs25i9YiH0HDjo6DJWX157x9cPceQvQr/8A9B8wELNmz0F0bHyp61JS07Fz9x5s3rINsfGJCAkNx+Ily8TXPGz4CCxfsQq26NgS6SrqIJwoHDR4CD7//EucOnNWOq+5nvVKSkmTvG+//XbxaVvbzu9mM2lc2TMPAe8fndG97xBk510s1ckp4937D4NuhxHjpgoMTNnHTvli78EjAmzn8ulGOe0bIFtqxnVYBwSHYf+hY6ClSN/9AZ8TWL56I9Zs2Iqdew/BFhNfqg7OeVt/s34JSak4eOQEVq7bjFXrtmDHnoMIDouUQdF6Lb/T9cYB5rRfALbu3Cdlr9+8E/RnJ6WWnCtgO8/6B2HfoaNS35i4ROzccxAr1mzEsZO+Us+0zCz4HD+Ns+eCSsghKDRC0iWnZeBCTr7IYc3GbVi2egO27NyLsEi7kWCv02VQRifPnMOCpavQrksfdOoxQGRC+UZGxVVJJs5trm2/Fby1GLxUFlqBt9xyC+655x74+p0TOLEzGEXid1q2tqgYRNiiQR8kO+Krr72GRx55BH/6059w66234pF//QtPNWqEnr16O8CYkpaBhYsW46OPP8a//vWo+Fjvu+8+8a9+9NHHWL5ylaM85hkUEoZWrf/ADz/+JFBv0rQZHn+8obg6ODDw+48//YzQ8AhHGaaeZe1pKQeHhuP0WT9xkVjbxfKiY+PQqnVr3Hff/Rg9ZmyJjnfwkA/ate+AsePGIyExuVLllVUHlnkj8DLdybP+6Nl/uDwCh0bYJ5BYx7GTZop/MzE5zXFPTDmR0XGYOmsBpsycj9AIO2RYHqHVrc8QnDrrL+f5vUW7bmjVoYf4midNnysTVlZ5mDyte55nHQgw1oP5dOzeX+rTpdcg8bkSWpkWPynTEIRzFy6XCTECjmX/0akXuvcditkLliEk3OaQJy1Q+rfpw920bTdGTZiODt37S12XrFwn94TtHDZmMqbPWSQDgKn36vVb5SmCE5fL12xE38Gj0LpjT7Ro21XAOnzMZHFPsA1Mw3ZQVm0690aTFu3RpHl7tOvaF117D8KeAz6gtWxtf13+ruCt5eBlp6H/9m9/+xvee+89rF67TsLI2CGMwhpFN4rI49t37sLqNesEvHfeeRfWrF2PTZu3imXJtEzDSbdGjRoJaPmoz0mudes3olOXruJbpYvj5KkzUg7z9D0XgM+/+AL//Oc/8fwLL+BHAnjGTJn8mjx1mkyM3Xb77XJNTl5+lTsJ68RyuLHdbOtjjz2G115/XaIbLl4bcHhdp84h3CgfAAAVeUlEQVRdcNttt8lgceTY8RLWspFDZfbMywHePkPEQuTjNK1C+2a3rPcfPiZQHDVhGv7/9s40OKrryuPzIZ/somoqX8KQMjXJ8CFUTSpODUvlS7xMxQ4xcWKCsZmpMQazGhMWA8bExnjBmH01ZglgIwhgwg5mEQYbjDBgA1qQhARC+4qE2EELZ+p3mitaUtMt9Lrbovuoqut1v/fuvef+37n/d95ZniAaJ+vb702XlwaOkLzCEt3nPyYENmXGfPlg+lxJzchquF5//2yt9B86Wj6YNldmL1wqX39zVK1NrNQpM+bpMUisuLSiWZ/+/SMDN9rpcxapf3pFwjo5fjJFLUtI8s3JU5W0CFK5dmC7ZMVqda1Appu37xaf1Z4kM+cvlldHTZBFyz7TOdIGF8KMuZ/I/w0coRYoFv+GLTuVCLGokYEbEW4aiBSLmH20/XT150qe+MgnfzhL1m3cJknHTghYLlmRIAOHvy7vTJmpFjVyXai6JKnpWXoewU5uJLsSD2jGSX5Rc3zdnB7ErRFvGydeSHLTlm3ySMeOSr6dOnWS3/72MRn+2mtqrWZm+R4nr16/0bC4UHzaQV4/+lFzHy/Hss/myKDBg9W/On3GLHUt4FfFCsXKHjd+go6Hxcn5LAyI97levdWCfuHFF+XI0WP6qEybsopK+ergIfmPTp2UEBP3fdlANC1ZGPS/44tdMvnddzWVrN/L/ZXI//xcL/li955mWQ1Llv5dbxg9evxBrWbat2ScpueAlfPxjsfHe9nn42XOfCCe8/mFapn2G/xXWb9xe4N1zpitJd4Bw0YrWUHi4MdY4I91COlASLgkHIk1lZvfjJ+climDR4yTGfMWq7Xp5CYb4GDSMVmesE4zDbAWOZ8MBFwmZG3QtqKqWseGwLHKFy9PUKt0V+JXiqcj3pcG/VVmL1iqJFtRWa2Ez1jIEZR4h4yU18b8TWUpLa/UsZhvbkGxBjIHDh8rS1au1uvr9Pbb4ydlwqQP5b2ps83H65Gf7H28LcjtC7S4UEYI9MsDX8ngIUPlJ+3bK/Fh7eEW+K8uXYSgGn5eFo//QkXBCa517NixkUXIgtm9N1Gt1j8884wcOXpcF4RbtFiraekZ8q8//rGSW0lZhR53xIsMc+cvaNQnsjPeGxPeVMIeNXq0HveXJ9D83D5Igbb0jU+a+ZEqN3bceHWhuEXuzkem1NMZcvbceR23peO49m5LO0e8pJOtWvtP4RF6zfrNsmb9Jlmxap0Q5Bk0fKySYfLpzAaMvRHvGLXswMxf9tyCIg3kjf3be3Lw8FElSydr060Sb2qG9B86Si1K3B0u6EWf+HEJBDq9AEOs4leGjZENm3c0u370x41g31eH5czZ3EbE22/wSEncf0j7aipHcOIdJVj4JWUXGs0TWU5nntUbADcZSJ9+keHo98l33Dpz1N/ddLxY+G0Wr8c7SqjmXvN4UTIWEQsUssHC3bp9p4wb/4Z07dZdCDw93K6ddO7cWTZt3qJWk1PMexEvVgy+XfJmyQ2ePmOmBt4Ivq1YyedTDbDR97916KCWLgvlZHKKBsK6dOmqATY3jttyzvrPNyhpckNwC94dD7ZljhSCkBJHH8jS84/PKgkj485dexotXM5nkfLhe7C+gx2jLcT7yqtjBKtuwLAx+gjMYzD7BgwdLVinH81eKKdS0xuRFWO33uIdoy4GMPOXv6i0XP2suAF4JGeMe8lPO27Kkz6YoT5R/LrrN25TObEuL19t7I7iunMTITuDQFigvtlXfccCZ1xn8eJzhSgD+VmDEW//IaM00NdUF3Dn5BeVytRZCwS5Cc4xHuMb8YZilZYfN4u3lRYvysgCc4uTLYuVx1Ki5pu3bJNu3bqrFfzsn/6sVqBbqMGIl1xgijGwiB966CElS6xM93n44XbaJ1b1N4eT7li8KfKX3r3lySf/W745fKQZIbBoUtLS9WaAfxgZAy1uJ5+bm9tyLnO7cu26kjYZEvhykW/AKwMbHvH923v9Dp6OePFvEtnncZ/P9l37NKhEAQVkgDXprgPjIm+LiHdacx8vVuehJJ40GhMrft3lq9bK2IktI15kyDhzTqbNXaQ3DkiVG8Xw0RPVPZJ5J1CG3GRs8AhP0Crr7PmQ14Y5KvHeSaWDYANdz1DEi3vDHzf65TeFEviyuckcSjpmxNtyPm3xmUa8rSBelBPFh0AhJEcy7OfDIuDYlq3bNUhG5gPRfndeMOLFR8r5zz77J009wyfb9LM3cZ8c+PqgkP3A+Bpc69VbreR9Xx5oGMeNxzl79iYqef/q0UdDEq+Tnzm6OflvOX7omyQN5nXv/hvZk+jzG7vxwrFlPHU1DH9dxr/1vhK+kv/1m/qYjsvhfwcM18dl0r84342LfMGINz3rnBZdUNHVNLgWDuJFDuS5ekdPCPDhJli0bJVakQTw8OUe/tYXIL105brmx+I2OHMPEnVzc9twEC/BQ/pxfTq5C0vKZc7Hy+T1ie/KoSPH9TiYmsXbYl4NeaIRb2uIVyu79sqcufOUAFFK/4WPAishnkqR3z31lFqa+w983aDgEC+paI880rGRC4I2m7ZsFciRklxyaNlH/3z4zkLBoibX1h1zWQ2ULK9KWK3nOnnY0oYsh3bt2mkQjvHdcf9F576TK5yweo2sWbtOc3YZ2x1jS9ujx77TmwruDYJv7hyO8Z1tsDH8+wv0nbaOeJvm8XKMPFzSmUaOe1sf/Xl8d/0w/qT3Z8hLg0ZITm5hIzmu3azRaP2ESVM0rStSxMu1AWd3jZCJwg9uEtw0sIBXJKxX65LrM3PeYvUJk0FBGzcXtsyXpxTcFGzZRxtXPNIai5fxN23braW//tcJOfEnT3jnQ00z4ybFeOwnl9eXumc+3pDMGuIEI977JF6UFCWcN3+BBqt+36OH5BcWNRCPWzD4+DZv2SpdunbVtDNfaa3vHRUsSB7TO3T4qaRn3I2Q0y+E1rPnHzXwtvLTVQ1RZTcupLh06TK1hknyp40vuNZLXRDDX4Ns8hssGY5TVPHU00/r8aXLluvC9l9sTma3TU5JU7cFOcbcMJDXHaMdv7HmKXt++vc91MfMOJyDFX46I1Pzlzkv2Diuz0Bb2t2LeH3jVErCuk3q71245FONxrt+kIW8VnzD5Jnym/6c7BRDYNniV40E8TIOZEhxw+mMbMGideNDquwnQ4L0MPyp7CNbgSyIiZM/ahTwoh0FDDt279NAHfm/zNM78Y6Udz+cpW8v8yd6Xky0d/9BvQmQg0wQkPHAkPQ35CMFDXJ2eMfS1oJrIe4YXg97Ca6hhBRF/OrRX6s1O3rM6/rofeJUiqSlZ8qJU8myfsM/BVImE+CtSe9IfmFxg6JCSP/5y1/qsUWfLNYSXEqKWQBYNLPmzFF3wxNPPCmr16yV708mK7kS5CKDgjLl/gNe0cWALC6rgZziX3TuLBPfelst8RMnk+XQ4SRBPgJyWMTIzWIOtlgg9BEjRyqxPtfLlzaWnHpabxKnUlJl67btQiEHLhHGgmxdn7z8p3v37tKnzwta3Yd8wca61zH6C0a89Mv7GXAXkIZFwMtVt3Fs265EJQ8CXOSg8mrE7HN5mj710ayFGpx7P4LEC0EOGTFerUYKMsijJVUrLT1LU8Pw9W7ZsUdzZAloYc0yF1Ljlq5YLVSXUSkHgVPFRhHF5Ckz5fvkNMUzHMRLgcbcj5dpQO/c+XwlU6rsuCloEPFgkuoY14jrkXUuV2Xk+P6vk/R3qV+Z9r2u5YO034jXK7OGaO+FeFEkSHLNP9Zp1RmBr44d/12r0sinJZ+X4Ff79h3kL72fbyh2cArIouFdCKRlQZZdu3XTElxnIaaeThdeuvOzn/1cye+xxx5XCxTihOx69+mj+b0sBke8lPdSocYLbCA+CjCQg6IK5KM6DhL3t26cPE23vj5T5OX+vOiHebQX8nKf7/OCWs785g1sgwYP0ddGOtJlS8EH4/FynePfn2zReE3H5zd9BSNeXAZE5CEvCGTOwmVKHMiubQuL1TIjoPXqqDeVACFhkv8pSKBaK1I+XsbHpYBMVHuNemOSFjtgQfKozo2CYgmI1c2dNgQOJ30wU8ihhZi5Mbz13jSdH693pGjBvewmHMSLxQ0OECm5uRRUkDFC1RzuEHKJkcvJSCXmZ2s2qDzcVCa+M1USD1C5RgZI8P/s4Ppo61sj3hDE6fWwV+JFIVn4e/bukyFDhykxPf74ExrgIrvghRf7ykfTpms5ryMDp3T8xvKcNXuu9O37P/Ji377y8aJPGkgKRcYCxhru1+9lIaf3mZ49pffzffSdDbgbfMremHghXKreeE8D2Qa0IUg3dNirsnvvPpXXfyE5eZpuOQcZsdKZA+MyJ9LHuAkgLxVxZDc0JfJ9+w8oHm9MmNjsvRJNxwn2Gxko/oCgyNslyyCQ7FiylL3ytrKMLF90HxJAfl4Cjh+Vt2lNnbVQy173HjgkaRnZsmnbLtm49Qu1QumXD1YqhQqkZ2GF+stH9RbHE9ZuDFlA4cbHjbBl516Zt2i5yoAclB1v2r5b3+6FjG4MxmeOVJ3hQqFyjoozbhIrV38u3353Sl8M5DCgLVVwkGdBcVlAbNi/et0mrYLDonbkqJVrQ0bpeymojmNOVP5Nm7NI5i9eITv27NcCHDdWg4w3a/TmBm4LFq/Uwg38vv7zcOc+qFsjXq/MGqK9V+J1ioVyQsAZZ7LkyLfHtGDiuxMnpbQ8eFkp7WmL5cJLZ1zQxPXrjrP/TPZZyco+F3AxoPQuqwHi3blrt/ZLO6rgcvMLdYymi8h/nGDfaceb145/d0IzM3B3IO+9+mM/hIn1HqzfaB3zyV+upcO80execkdSHlwgkCAvzKF4IpQMHMfXisVfUg6W+IjDZ1FCvOTxUgiC/jEeKWSkzPHSnJbIh0wEeEOdG0lcI9G3EW8I4vR6OFzE6y4+CggJuk84FZK+3MeN57aOeMnjhXi/2LVHCc+dHw45tK8Izc3NI9LbcODgRUZ3Pe6nj9a0aUn/zYk3fKTekvHb8jlGvF6ZNUT7cBPvD6VMjYn3Nw3E+0PJY+O2fRJT4h2KxXtMq+jsmt29Zka8IYjT6+FYIV6sItLFKCcmr5j3JNhCuruQDIvmWPA/7Aiexdq7dMNxrY14vTJriPaxQrwoGwEuUrqKS8vU3xwOBbQ+mhNWrGBCdgL5uU0Do7EyPy/zMOINQZxeD8cS8aJokfIHelFia9t2yRt9sevT/PoY8Xpl1hDtY414bRE1X0SGiWFyvzpgxBuCOL0eNuK1RXm/i9LOj32dMeL1yqwh2hvxxv4iMqK0a3y/OmDEG4I4vR424rVFeb+L0s6PfZ0x4vXKrCHa36ypteDCfb6ZzYgn9okn3q9xTW1dCOYIz+G4fS0kd7Z4VzKbvxGp6cBdHbhxq0Zq6+rDw6wheolb4gVgU7q7SmdYGBbxrgM3b9VKfb0Rb4h7hrfDt0XE/LxGNvFONjb/u2vgVk2d3L4NM0T+L24tXqDFn2OKd1fxDAvDIl51ACOsLkpuBrgnromXu5sF2Yxs4pVsbN53dR8jLDq2rs+ajmviBYK6+tuCb8eU8K4SGhaGRTzpwK2aWqmPkovBR7txbvE6EIx8jWjiiWhsrj59x72AXzfapAvvxL3F68i3vv62+nwt4GYkbMQU+zrAOiez6YcgXSNex7p3tvh86+rrlYB5/DASjv0FaCQbP9fYWbhYm6zzH/LPLN4A6EPA3AmxgrlA9jEMTAcedB3wrWfWdZTduQEYxlwNAUGxnYaAIWAIRBIBs3gjia71bQgYAoZAAASMeAOAYrsMAUPAEIgkAka8kUTX+jYEDAFDIAACRrwBQLFdhoAhYAhEEgEj3kiia30bAoaAIRAAASPeAKDYLkPAEDAEIomAEW8k0bW+DQFDwBAIgIARbwBQbJchYAgYApFEwIg3kuha34aAIWAIBEDAiDcAKLbLEDAEDIFIImDEG0l0rW9DwBAwBAIgYMQbABTbZQgYAoZAJBEw4o0kuta3IWAIGAIBEDDiDQCK7TIEDAFDIJIIGPFGEl3r2xAwBAyBAAjwzzWzcgokM6dAqi9f8/Q/H//lft/mf+1mjWSey5eUzBypqa0NIJ7tMgQMAUMg9hCoqamV01m5cianQC5fvRF94s3JL1biraq+3CbeDB97l9hmZAgYAm0JAf6N/JVrNyQ1M0eyc4vk6vWb0SVeLOSC4nJJPZMjuYWlwr/csT9DwBAwBGIZAf79UGFJhaSeOS95RWVy7cat6BNvVfUVOZ2dK2lZ5+Xq9Rtm9cayxtncDIE4RwDb8sYdF2t6dq6UV170RLoYr/ft46XR5avX1drFz5udW6j/cjnOr41N3xAwBGIUAZ7q84vK9Ck/p6BYLl3xFlhrNfFiZl+ouiTpZ/PU6i0pq5S6unpzO8So4tm0DIF4RAAnKv+purS8SmNaGefylPe8+ndbTbw0hPXLL1xsIN+CknK5fuOW1NfXx+M1sjkbAoZADCGAT5esraLSCxpQI5uB7+Gwdj0RL1bvxUtXpKS8UtPL0s6cl7N5RVJ58bLcuHlLbtXUCgnHWML2MQxMB0wH2rIO1NbVKV+RMgZ/VV26ImRvwWvp2XlSWFKufOc1qAbpeiJeGjvyLa2okqzzBZrjhqDkueUVlklxWaWUXbgo5ZXV9jEMTAdMB9qsDsBh8FV+cbnyF1lbWLlZ5wvVuCR1NhwuhrAQryPf6stXpaKqWtPMCLZRYJFxNk+IACK8fQwD0wHTgTavA9m56jqFv+Cx/OIy5TWe7MnhdaQZjm2rshqaDozli+8DAQm6cfcoKq2QguIyySsq1QwIcn7tYxiYDpgOtEUdgKcg2sLSCimtqJQLVdXKZ/BaOC1dx51hIV46g3y5KyAoFjAkjHnOp9I+hoHpgOlAG9YBx1XwFvwFj8Fn4fLpOsJ127ARr+vQkTB3CQS3j2FgOmA68KDoALwVKbL158iIEK//APbdF8U0HAwH0wHTAacDRrx30jscILa1xWE6YDoQaR0w4jXiDWu0NtIKa/0bKcaCDhjxGvEa8ZoOmA5EWQeMeKMMeCzcrW0OZnWaDnjTASNeI16zdkwHTAeirANGvFEG3CwFb5aC4Wf4xYIOGPEa8Zq1YzpgOhBlHTDijTLgsXC3tjmY1Wk64E0HjHiNeM3aMR0wHYiyDhjxRhlwsxS8WQqGn+EXCzpgxGvEa9aO6YDpQJR1wIg3yoDHwt3a5mBWp+mANx0w4jXiNWvHdMB0IMo6YMQbZcDNUvBmKRh+hl8s6IARrxGvWTumA6YDUdYBI94oAx4Ld2ubg1mdpgPedMCI14jXrB3TAdOBKOvA/wNBspM6QdF7qwAAAABJRU5ErkJggg==;" vertex="1" parent="JWIEgKZcE3tuxmxvmTAX-1">
          <mxGeometry x="950" y="316.28" width="177" height="201.28" as="geometry" />
        </mxCell>
      </root>
    </mxGraphModel>
  </diagram>
</mxfile>
